<?xml version="1.0" encoding="utf-8"?>
<!-- Generator: Adobe Illustrator 24.0.1, SVG Export Plug-In . SVG Version: 6.00 Build 0)  -->
<svg version="1.1" id="Layer_1" xmlns="http://www.w3.org/2000/svg" xmlns:xlink="http://www.w3.org/1999/xlink" x="0px" y="0px"
	 viewBox="0 0 167.3 21.4" style="enable-background:new 0 0 167.3 21.4;" xml:space="preserve">
<style type="text/css">
	.st0{enable-background:new    ;}
	.st1{fill:#FFFFFF;}
</style>
<g class="st0">
	<path class="st1" d="M0.4,8.7c0-4.9,3.2-8.3,7.4-8.3c3.6,0,5.3,1.7,6.4,3.5l-1.5,1.1c-0.9-1.8-2.5-2.9-4.9-2.9
		c-3.1,0-5.5,2.6-5.5,6.6c0,3.8,2.4,6.6,5.5,6.6c2.5,0,4-1.2,4.9-3l1.5,1.1C13,15.5,11,17,7.8,17C3.6,17,0.4,13.5,0.4,8.7z"/>
	<path class="st1" d="M16.3,10.7c0-3.8,2.5-6.3,5.9-6.3c3.4,0,5.9,2.5,5.9,6.3c0,3.7-2.5,6.3-5.9,6.3C18.8,17,16.3,14.5,16.3,10.7z
		 M26.3,10.7c0-2.6-1.6-4.6-4.1-4.6c-2.5,0-4.1,2-4.1,4.6c0,2.6,1.6,4.6,4.1,4.6C24.7,15.4,26.3,13.3,26.3,10.7z"/>
	<path class="st1" d="M41.1,4.6v12.1h-1.7l-0.5-1.6c-0.7,0.9-2,1.8-3.9,1.8c-3,0-4.1-1.7-4.1-4.4v-8h1.8v8c0,1.7,0.9,2.8,2.6,2.8
		c2.6,0,4-1.7,4-4.9V4.6H41.1z"/>
	<path class="st1" d="M55.2,8.8v8h-1.8v-8c0-1.7-0.9-2.8-2.6-2.8c-2.6,0-4.1,1.7-4.1,4.9v5.8h-1.8V4.6h1.7L47,6.2
		c0.7-0.9,2.2-1.8,4.1-1.8C54.2,4.4,55.2,6.1,55.2,8.8z"/>
	<path class="st1" d="M59.7,13.5V6.3h-2.1V4.6h2.1v-4h1.8v4h3v1.7h-3v7.2c0,1.2,0.5,1.8,1.5,1.8c0.6,0,1.1-0.1,1.5-0.2v1.7
		C64.1,17,63.6,17,62.8,17C61.3,17,59.7,16.4,59.7,13.5z"/>
	<path class="st1" d="M66.6,10.8c0-3.3,2.2-6.4,5.9-6.4c4.1,0,5.7,3,5.7,5.9v0.9h-9.7c0.1,2.4,1.6,4.2,4.1,4.2c2,0,2.9-0.9,3.6-1.9
		l1.4,1c-0.7,1.1-2.2,2.6-5,2.6C69.3,17,66.6,15,66.6,10.8z M76.3,9.5c-0.2-1.6-1-3.5-3.8-3.5c-1.7,0-3.6,1.1-4,3.5H76.3z"/>
	<path class="st1" d="M87.9,4.6v1.7c-0.5-0.2-0.8-0.2-1.3-0.2c-2.3,0-3.7,1.7-3.7,4.7v5.9H81V4.6h1.7l0.5,1.4
		c0.5-0.9,1.8-1.7,3.4-1.7C87.2,4.4,87.6,4.5,87.9,4.6z"/>
	<path class="st1" d="M89.3,14.3l1.6-0.9c0.7,1.2,1.6,2,3.4,2c1.9,0,2.9-0.9,2.9-2c0-1.2-1-1.6-3.3-2c-2.2-0.3-4-1.3-4-3.6
		c0-2.1,2.1-3.4,4.3-3.4c2,0,3.5,0.8,4.5,1.9l-1.3,1.1c-0.7-0.8-1.7-1.4-3.1-1.4c-1.5,0-2.6,0.6-2.6,1.7c0,1.3,1.1,1.7,3.3,2
		c2.3,0.4,4.1,1.1,4.1,3.5c0,2.2-1.8,3.7-4.8,3.7C92.3,17,90.1,16,89.3,14.3z"/>
	<path class="st1" d="M113.6,10.7c0,3.5-2,6.3-5.7,6.3c-2,0-3.4-0.8-4.1-1.9v5.8h-1.8V4.6h1.7l0.5,1.5c0.6-0.9,2-1.7,3.8-1.7
		C111.5,4.4,113.6,7.2,113.6,10.7z M111.7,10.7c0-2.9-1.6-4.6-4-4.6s-4,1.8-4,4.6c0,2.9,1.6,4.6,4,4.6S111.7,13.6,111.7,10.7z"/>
	<path class="st1" d="M115.7,10.8c0-3.3,2.2-6.4,5.9-6.4c4.1,0,5.7,3,5.7,5.9v0.9h-9.7c0.1,2.4,1.6,4.2,4.1,4.2c2,0,2.9-0.9,3.6-1.9
		l1.4,1c-0.7,1.1-2.2,2.6-5,2.6C118.4,17,115.7,15,115.7,10.8z M125.4,9.5c-0.2-1.6-1-3.5-3.8-3.5c-1.7,0-3.6,1.1-4,3.5H125.4z"/>
	<path class="st1" d="M129.3,10.8c0-3.3,2.2-6.4,5.9-6.4c4.1,0,5.7,3,5.7,5.9v0.9h-9.7c0.1,2.4,1.6,4.2,4.1,4.2c2,0,2.9-0.9,3.6-1.9
		l1.4,1c-0.7,1.1-2.2,2.6-5,2.6C132,17,129.3,15,129.3,10.8z M139,9.5c-0.2-1.6-1-3.5-3.8-3.5c-1.7,0-3.6,1.1-4,3.5H139z"/>
	<path class="st1" d="M143,10.7c0-4,2.7-6.3,6-6.3c2.4,0,4,1.3,4.7,2.9l-1.4,0.8c-0.5-1.2-1.6-2.1-3.2-2.1c-2.3,0-4.1,1.7-4.1,4.6
		c0,3,1.8,4.6,4.1,4.6c1.7,0,2.6-0.9,3.3-2l1.5,0.8c-0.8,1.6-2.4,2.9-4.7,2.9C145.7,17,143,14.7,143,10.7z"/>
	<path class="st1" d="M156.5,0.5h1.8v6.3c0.7-1.2,2.2-2.3,4.2-2.3c3.2,0,4.4,1.8,4.4,4.4v8h-1.8V8.9c0-1.7-0.9-2.8-2.8-2.8
		c-2.5,0-4,1.9-4,4.5v6.2h-1.8V0.5z"/>
</g>
</svg>
