<?xml version="1.0" encoding="utf-8"?>
<!-- Generator: Adobe Illustrator 24.0.0, SVG Export Plug-In . SVG Version: 6.00 Build 0)  -->
<svg version="1.1" id="Layer_1" xmlns="http://www.w3.org/2000/svg" xmlns:xlink="http://www.w3.org/1999/xlink" x="0px" y="0px"
	 viewBox="0 0 263.7 17" style="enable-background:new 0 0 263.7 17;" xml:space="preserve">
<style type="text/css">
	.st0{fill-rule:evenodd;clip-rule:evenodd;fill:#677B80;}
	.st1{enable-background:new    ;}
	.st2{fill:#344854;}
</style>
<g id="FB-Microsite">
	<g id="Group-19" transform="translate(-25.000000, -27.000000)">
		<g transform="translate(25.000000, 27.000000)">
			<path id="Fill-11" class="st0" d="M9.6,0.6v1.7c0,0.1-0.1,0.2-0.2,0.2H2.2V6h6c0.1,0,0.1,0,0.1,0.2v1.7C8.3,8,8.3,8,8.2,8h-6v5.1
				c0,0.1-0.1,0.2-0.2,0.2H0.2c-0.1,0-0.2-0.1-0.2-0.2V0.6c0-0.1,0.1-0.2,0.2-0.2h9.2C9.5,0.5,9.6,0.5,9.6,0.6"/>
			<path id="Fill-12" class="st0" d="M20.6,7.9c-0.7-1.9-1.4-3.7-2.2-5.4H18c-0.8,1.7-1.5,3.5-2.2,5.4H20.6z M24.4,13.3h-2
				c-0.1,0-0.2-0.1-0.2-0.2c-0.3-1.1-0.6-2.2-1-3.3h-6.1c-0.4,1.1-0.7,2.2-0.9,3.3c0,0.1-0.1,0.2-0.2,0.2h-2c-0.1,0-0.2-0.1-0.2-0.2
				c1.2-4.1,3-8.6,4.7-12.4c0.1-0.2,0.2-0.2,0.4-0.2h2.6c0.2,0,0.3,0.1,0.4,0.2c1.8,3.8,3.5,8.3,4.7,12.4
				C24.6,13.2,24.5,13.3,24.4,13.3z"/>
			<path id="Fill-13" class="st0" d="M27.7,7c0-4,2.6-6.8,6.4-6.8h0.3c2.3,0,4.2,1.2,5.1,2.9c0.1,0.1,0,0.2-0.1,0.3l-1.6,0.8
				c-0.1,0.1-0.2,0.1-0.3-0.1c-0.7-1.2-1.7-1.8-3.2-1.8H34c-2.4,0-4,1.9-4,4.6s1.6,4.6,4,4.6h0.3c1.5,0,2.4-0.5,3.1-1.3
				c0.1-0.1,0.2-0.1,0.3-0.1l1.7,0.8c0.1,0,0.1,0.1,0.1,0.1s0,0.1-0.1,0.1c-1,1.5-2.9,2.4-5.1,2.4H34C30.2,13.6,27.7,10.9,27.7,7"/>
			<path id="Fill-14" class="st0" d="M54.1,11.4v1.7c0,0.1-0.1,0.2-0.2,0.2h-9.6c-0.1,0-0.2-0.1-0.2-0.2V0.6c0-0.1,0.1-0.2,0.2-0.2
				h9.5c0.1,0,0.2,0.1,0.2,0.2v1.7c0,0.1-0.1,0.2-0.2,0.2h-7.5v3.3h6.1c0.1,0,0.2,0.1,0.2,0.2v1.7c0,0.1-0.1,0.2-0.2,0.2h-6.1v3.4
				h7.6C54,11.3,54.1,11.3,54.1,11.4"/>
			<path id="Fill-15" class="st0" d="M68.4,9.6c0-1.2-0.8-1.7-2.5-1.7h-4.3v3.5h4.3C67.7,11.3,68.4,10.8,68.4,9.6 M65.3,2.5h-3.7V6
				h3.7c1.7,0,2.4-0.5,2.4-1.7C67.7,3,66.9,2.5,65.3,2.5 M70.7,9.8c0,2.2-1.7,3.5-4.8,3.5h-6.3c-0.1,0-0.2-0.1-0.2-0.2V0.6
				c0-0.1,0.1-0.2,0.2-0.2h5.8c3,0,4.6,1.2,4.6,3.3c0,1.4-0.7,2.3-2.2,2.8C69.8,7,70.7,8.2,70.7,9.8"/>
			<path id="Fill-16" class="st0" d="M81.4,11.5c2.6,0,4.3-1.8,4.3-4.6S84,2.3,81.4,2.3h-0.3c-2.6,0-4.3,1.8-4.3,4.6
				s1.7,4.6,4.3,4.6H81.4z M74.5,6.9c0-3.9,2.6-6.7,6.6-6.7h0.3c4,0,6.6,2.8,6.6,6.7s-2.6,6.7-6.6,6.7h-0.3
				C77.1,13.6,74.5,10.8,74.5,6.9z"/>
			<path id="Fill-17" class="st0" d="M98.6,11.5c2.6,0,4.3-1.8,4.3-4.6s-1.7-4.6-4.3-4.6h-0.3c-2.6,0-4.3,1.8-4.3,4.6
				s1.7,4.6,4.3,4.6H98.6z M91.7,6.9c0-3.9,2.6-6.7,6.6-6.7h0.3c4,0,6.6,2.8,6.6,6.7s-2.6,6.7-6.6,6.7h-0.3
				C94.3,13.6,91.7,10.8,91.7,6.9z"/>
			<path id="Fill-18" class="st0" d="M121,13.3h-2.4c-0.2,0-0.2,0-0.3-0.2c-1.7-2-3.6-3.9-5.3-5.3h-1v5.3c0,0.1-0.1,0.2-0.2,0.2H110
				c-0.1,0-0.2-0.1-0.2-0.2V0.6c0-0.1,0.1-0.2,0.2-0.2h1.8c0.1,0,0.2,0.1,0.2,0.2v5.1h1.1c1.8-1.6,3.4-3.4,4.8-5.1
				c0.1-0.1,0.2-0.1,0.3-0.1h2.2c0.1,0,0.2,0.1,0.2,0.1s0,0.1-0.1,0.1c-2,2.4-3.9,4.4-5.7,6c2.3,1.9,4.4,4.1,6.4,6.4
				C121.2,13.2,121.2,13.3,121,13.3"/>
			<g class="st1">
				<path class="st2" d="M129,6.9c0-4,2.6-6.7,6-6.7c2.9,0,4.3,1.3,5.2,2.9l-1.2,0.9c-0.7-1.4-2-2.4-4-2.4c-2.5,0-4.4,2.1-4.4,5.3
					c0,3.1,2,5.3,4.4,5.3c2,0,3.2-1,4-2.4l1.2,0.9c-0.9,1.7-2.5,2.9-5.2,2.9C131.6,13.6,129,10.7,129,6.9z"/>
				<path class="st2" d="M141.8,8.5c0-3.1,2-5.1,4.8-5.1s4.8,2,4.8,5.1c0,3-2,5.1-4.8,5.1S141.8,11.5,141.8,8.5z M149.9,8.5
					c0-2.1-1.3-3.8-3.3-3.8s-3.3,1.7-3.3,3.8c0,2.1,1.3,3.8,3.3,3.8S149.9,10.5,149.9,8.5z"/>
				<path class="st2" d="M161.9,3.6v9.8h-1.4l-0.4-1.3c-0.6,0.7-1.7,1.4-3.2,1.4c-2.4,0-3.3-1.3-3.3-3.5V3.6h1.5V10
					c0,1.4,0.7,2.2,2.1,2.2c2.1,0,3.2-1.3,3.2-3.9V3.6H161.9z"/>
				<path class="st2" d="M173.3,6.9v6.5h-1.5V6.9c0-1.4-0.7-2.2-2.1-2.2c-2.1,0-3.3,1.3-3.3,3.9v4.7h-1.5V3.6h1.3l0.4,1.3
					c0.6-0.7,1.8-1.5,3.3-1.5C172.5,3.4,173.3,4.7,173.3,6.9z"/>
				<path class="st2" d="M177,10.7V4.9h-1.7V3.6h1.7V0.4h1.5v3.2h2.4v1.3h-2.4v5.8c0,1,0.4,1.5,1.2,1.5c0.5,0,0.9-0.1,1.2-0.2v1.3
					c-0.3,0.1-0.7,0.2-1.4,0.2C178.2,13.6,177,13.1,177,10.7z"/>
				<path class="st2" d="M182.5,8.5c0-2.7,1.8-5.2,4.7-5.2c3.3,0,4.6,2.4,4.6,4.8v0.7H184c0.1,2,1.3,3.4,3.3,3.4
					c1.6,0,2.3-0.7,2.9-1.5l1.1,0.8c-0.6,0.9-1.8,2.1-4,2.1C184.7,13.6,182.5,11.9,182.5,8.5z M190.4,7.5c-0.1-1.3-0.8-2.8-3.1-2.8
					c-1.4,0-2.9,0.9-3.2,2.8H190.4z"/>
				<path class="st2" d="M199.7,3.5v1.4c-0.4-0.1-0.7-0.2-1.1-0.2c-1.8,0-3,1.4-3,3.8v4.8h-1.5V3.6h1.3l0.4,1.2
					c0.4-0.7,1.5-1.3,2.8-1.3C199.2,3.4,199.5,3.4,199.7,3.5z"/>
				<path class="st2" d="M200.9,11.3l1.3-0.7c0.5,1,1.3,1.6,2.7,1.6c1.6,0,2.4-0.7,2.4-1.6c0-1-0.8-1.3-2.7-1.6
					c-1.8-0.3-3.2-1-3.2-2.9c0-1.7,1.7-2.7,3.5-2.7c1.7,0,2.8,0.6,3.6,1.5l-1,0.9c-0.5-0.7-1.4-1.1-2.5-1.1c-1.2,0-2.1,0.5-2.1,1.4
					c0,1,0.9,1.3,2.6,1.7c1.8,0.3,3.3,0.9,3.3,2.8c0,1.8-1.4,3-3.9,3C203.3,13.6,201.6,12.8,200.9,11.3z"/>
				<path class="st2" d="M220.5,8.5c0,2.8-1.7,5.1-4.6,5.1c-1.6,0-2.7-0.7-3.3-1.6v4.7h-1.5V3.6h1.3l0.4,1.2
					c0.5-0.8,1.6-1.4,3.1-1.4C218.9,3.4,220.5,5.7,220.5,8.5z M219,8.5c0-2.3-1.3-3.8-3.3-3.8s-3.3,1.5-3.3,3.8
					c0,2.3,1.3,3.8,3.3,3.8S219,10.8,219,8.5z"/>
				<path class="st2" d="M222.2,8.5c0-2.7,1.8-5.2,4.7-5.2c3.3,0,4.6,2.4,4.6,4.8v0.7h-7.8c0.1,2,1.3,3.4,3.3,3.4
					c1.6,0,2.3-0.7,2.9-1.5l1.1,0.8c-0.6,0.9-1.8,2.1-4,2.1C224.4,13.6,222.2,11.9,222.2,8.5z M230.1,7.5c-0.1-1.3-0.8-2.8-3.1-2.8
					c-1.4,0-2.9,0.9-3.2,2.8H230.1z"/>
				<path class="st2" d="M233.3,8.5c0-2.7,1.8-5.2,4.7-5.2c3.3,0,4.6,2.4,4.6,4.8v0.7h-7.8c0.1,2,1.3,3.4,3.3,3.4
					c1.6,0,2.3-0.7,2.9-1.5l1.1,0.8c-0.6,0.9-1.8,2.1-4,2.1C235.5,13.6,233.3,11.9,233.3,8.5z M241.1,7.5c-0.1-1.3-0.8-2.8-3.1-2.8
					c-1.4,0-2.9,0.9-3.2,2.8H241.1z"/>
				<path class="st2" d="M244.3,8.5c0-3.2,2.2-5.1,4.8-5.1c1.9,0,3.3,1,3.8,2.3l-1.2,0.7c-0.4-1-1.3-1.7-2.6-1.7
					c-1.8,0-3.3,1.4-3.3,3.8c0,2.4,1.5,3.8,3.3,3.8c1.4,0,2.1-0.7,2.6-1.6l1.2,0.6c-0.6,1.3-2,2.4-3.8,2.4
					C246.5,13.6,244.3,11.6,244.3,8.5z"/>
				<path class="st2" d="M255.2,0.2h1.5v5.1c0.5-0.9,1.7-1.9,3.4-1.9c2.6,0,3.6,1.5,3.6,3.6v6.4h-1.5V7c0-1.3-0.7-2.3-2.2-2.3
					c-2,0-3.3,1.5-3.3,3.6v5h-1.5V0.2z"/>
			</g>
		</g>
	</g>
</g>
</svg>
