<?xml version="1.0" encoding="utf-8"?>
<!-- Generator: Adobe Illustrator 24.0.1, SVG Export Plug-In . SVG Version: 6.00 Build 0)  -->
<svg version="1.1" id="Layer_1" xmlns="http://www.w3.org/2000/svg" xmlns:xlink="http://www.w3.org/1999/xlink" x="0px" y="0px"
	 viewBox="0 0 121.6 13.6" style="enable-background:new 0 0 121.6 13.6;" xml:space="preserve">
<style type="text/css">
	.st0{fill-rule:evenodd;clip-rule:evenodd;fill:#677B80;}
</style>
<g id="FB-Microsite">
	<g id="Group-19" transform="translate(-25.000000, -27.000000)">
		<g transform="translate(25.000000, 27.000000)">
			<path id="Fill-11" class="st0" d="M9.8,0.5v1.7c0,0.1-0.1,0.2-0.2,0.2H2.4v3.5h6c0.1,0,0.1,0,0.1,0.2v1.7c0,0.1,0,0.1-0.1,0.1h-6
				V13c0,0.1-0.1,0.2-0.2,0.2H0.4c-0.1,0-0.2-0.1-0.2-0.2V0.5c0-0.1,0.1-0.2,0.2-0.2h9.2C9.7,0.4,9.8,0.4,9.8,0.5"/>
			<path id="Fill-12" class="st0" d="M20.8,7.8c-0.7-1.9-1.4-3.7-2.2-5.4h-0.4c-0.8,1.7-1.5,3.5-2.2,5.4H20.8z M24.6,13.2h-2
				c-0.1,0-0.2-0.1-0.2-0.2c-0.3-1.1-0.6-2.2-1-3.3h-6.1c-0.4,1.1-0.7,2.2-0.9,3.3c0,0.1-0.1,0.2-0.2,0.2h-2c-0.1,0-0.2-0.1-0.2-0.2
				c1.2-4.1,3-8.6,4.7-12.4c0.1-0.2,0.2-0.2,0.4-0.2h2.6c0.2,0,0.3,0.1,0.4,0.2c1.8,3.8,3.5,8.3,4.7,12.4
				C24.8,13.1,24.7,13.2,24.6,13.2z"/>
			<path id="Fill-13" class="st0" d="M27.9,6.9c0-4,2.6-6.8,6.4-6.8h0.3c2.3,0,4.2,1.2,5.1,2.9c0.1,0.1,0,0.2-0.1,0.3L38,4.1
				c-0.1,0.1-0.2,0.1-0.3-0.1C37,2.8,36,2.2,34.5,2.2h-0.3c-2.4,0-4,1.9-4,4.6s1.6,4.6,4,4.6h0.3c1.5,0,2.4-0.5,3.1-1.3
				c0.1-0.1,0.2-0.1,0.3-0.1l1.7,0.8c0.1,0,0.1,0.1,0.1,0.1s0,0.1-0.1,0.1c-1,1.5-2.9,2.4-5.1,2.4h-0.3
				C30.4,13.5,27.9,10.8,27.9,6.9"/>
			<path id="Fill-14" class="st0" d="M54.3,11.3V13c0,0.1-0.1,0.2-0.2,0.2h-9.6c-0.1,0-0.2-0.1-0.2-0.2V0.5c0-0.1,0.1-0.2,0.2-0.2
				H54c0.1,0,0.2,0.1,0.2,0.2v1.7c0,0.1-0.1,0.2-0.2,0.2h-7.5v3.3h6.1c0.1,0,0.2,0.1,0.2,0.2v1.7c0,0.1-0.1,0.2-0.2,0.2h-6.1v3.4
				h7.6C54.2,11.2,54.3,11.2,54.3,11.3"/>
			<path id="Fill-15" class="st0" d="M68.6,9.5c0-1.2-0.8-1.7-2.5-1.7h-4.3v3.5h4.3C67.9,11.2,68.6,10.7,68.6,9.5 M65.5,2.4h-3.7
				v3.5h3.7c1.7,0,2.4-0.5,2.4-1.7C67.9,2.9,67.1,2.4,65.5,2.4 M70.9,9.7c0,2.2-1.7,3.5-4.8,3.5h-6.3c-0.1,0-0.2-0.1-0.2-0.2V0.5
				c0-0.1,0.1-0.2,0.2-0.2h5.8c3,0,4.6,1.2,4.6,3.3c0,1.4-0.7,2.3-2.2,2.8C70,6.9,70.9,8.1,70.9,9.7"/>
			<path id="Fill-16" class="st0" d="M81.6,11.4c2.6,0,4.3-1.8,4.3-4.6s-1.7-4.6-4.3-4.6h-0.3C78.7,2.2,77,4,77,6.8s1.7,4.6,4.3,4.6
				H81.6z M74.7,6.8c0-3.9,2.6-6.7,6.6-6.7h0.3c4,0,6.6,2.8,6.6,6.7s-2.6,6.7-6.6,6.7h-0.3C77.3,13.5,74.7,10.7,74.7,6.8z"/>
			<path id="Fill-17" class="st0" d="M98.8,11.4c2.6,0,4.3-1.8,4.3-4.6s-1.7-4.6-4.3-4.6h-0.3c-2.6,0-4.3,1.8-4.3,4.6
				s1.7,4.6,4.3,4.6H98.8z M91.9,6.8c0-3.9,2.6-6.7,6.6-6.7h0.3c4,0,6.6,2.8,6.6,6.7s-2.6,6.7-6.6,6.7h-0.3
				C94.5,13.5,91.9,10.7,91.9,6.8z"/>
			<path id="Fill-18" class="st0" d="M121.2,13.2h-2.4c-0.2,0-0.2,0-0.3-0.2c-1.7-2-3.6-3.9-5.3-5.3h-1V13c0,0.1-0.1,0.2-0.2,0.2
				h-1.8c-0.1,0-0.2-0.1-0.2-0.2V0.5c0-0.1,0.1-0.2,0.2-0.2h1.8c0.1,0,0.2,0.1,0.2,0.2v5.1h1.1c1.8-1.6,3.4-3.4,4.8-5.1
				c0.1-0.1,0.2-0.1,0.3-0.1h2.2c0.1,0,0.2,0.1,0.2,0.1s0,0.1-0.1,0.1c-2,2.4-3.9,4.4-5.7,6c2.3,1.9,4.4,4.1,6.4,6.4
				C121.4,13.1,121.4,13.2,121.2,13.2"/>
		</g>
	</g>
</g>
</svg>
