<?xml version="1.0" encoding="utf-8"?>
<!-- Generator: Adobe Illustrator 21.0.2, SVG Export Plug-In . SVG Version: 6.00 Build 0)  -->
<svg version="1.1" id="Layer_1" xmlns="http://www.w3.org/2000/svg" xmlns:xlink="http://www.w3.org/1999/xlink" x="0px" y="0px"
	 viewBox="0 0 63.8 76.8" style="enable-background:new 0 0 63.8 76.8;" xml:space="preserve">
<style type="text/css">
	.st0{fill:none;}
	.st1{fill:#3A5997;}
	.st2{fill:#FFFFFF;}
	.st3{opacity:0.75;fill:url(#SVGID_1_);}
	.st4{fill:url(#SVGID_2_);}
	.st5{opacity:0.75;fill:url(#SVGID_3_);}
</style>
<pattern  x="-113" y="-242" width="54.1" height="47.5" patternUnits="userSpaceOnUse" id="New_Pattern_Swatch_102" viewBox="0 -47.5 54.1 47.5" style="overflow:visible;">
	<g>
		<rect y="-47.5" class="st0" width="54.1" height="47.5"/>
		<rect y="-47.5" class="st1" width="54.1" height="47.5"/>
	</g>
</pattern>
<pattern  x="-113" y="-242" width="54.1" height="47.5" patternUnits="userSpaceOnUse" id="New_Pattern_Swatch_108" viewBox="0 -47.5 54.1 47.5" style="overflow:visible;">
	<g>
		<rect y="-47.5" class="st0" width="54.1" height="47.5"/>
		<rect y="-47.5" class="st2" width="54.1" height="47.5"/>
	</g>
</pattern>
<pattern  id="SVGID_1_" xlink:href="#New_Pattern_Swatch_102" patternTransform="matrix(1 0 0 1 -41.1877 -221.4243)">
</pattern>
<path class="st3" d="M63.8,31.9c0,17.6-14.3,31.9-31.9,31.9C14.3,63.9,0,49.6,0,31.9S14.3,0,31.9,0C49.5,0,63.8,14.3,63.8,31.9z"/>
<pattern  id="SVGID_2_" xlink:href="#New_Pattern_Swatch_108" patternTransform="matrix(1 0 0 1 -132.6104 -312.812)">
</pattern>
<path class="st4" d="M49.8,64.5v12.3h-9.1h-9.1h-9.1h-9.1V46.1c0-2.5,2-4.5,4.5-4.5c2.5,0,4.5,2,4.5,4.5v14.7c0,0,0,0,0-0.1
	c0-2.5,2-4.5,4.5-4.5c2.5,0,4.5,2,4.5,4.5v1.4c0-2.5,2-4.5,4.5-4.5c2.5,0,4.5,2,4.5,4.5v2.3c0-2.5,2-4.5,4.5-4.5
	C47.8,59.9,49.8,62,49.8,64.5z"/>
<pattern  id="SVGID_3_" xlink:href="#New_Pattern_Swatch_108" patternTransform="matrix(1 0 0 1 -178.946 -1.9724)">
</pattern>
<path class="st5" d="M34.6,31.9c0,1.5-1.2,2.8-2.8,2.8c-1.5,0-2.8-1.2-2.8-2.8s1.2-2.8,2.8-2.8C33.4,29.2,34.6,30.4,34.6,31.9z"/>
</svg>
