<?xml version="1.0" encoding="UTF-8"?>
<svg width="17px" height="17px" viewBox="0 0 17 17" version="1.1" xmlns="http://www.w3.org/2000/svg" xmlns:xlink="http://www.w3.org/1999/xlink">
    <title>Close Button</title>
    <g id="Button-States" stroke="none" stroke-width="1" fill="none" fill-rule="evenodd">
        <g id="Buttons" transform="translate(-195.000000, -604.000000)" fill="#677B8C">
            <path d="M203.5,604 C208.19442,604 212,607.80558 212,612.5 C212,617.19442 208.19442,621 203.5,621 C198.80558,621 195,617.19442 195,612.5 C195,607.80558 198.80558,604 203.5,604 Z M203.418675,607.840912 L203.305309,607.852054 C202.973705,607.912101 202.724926,608.205135 202.730999,608.553022 L202.730999,608.553022 L202.788573,611.812983 L199.528588,611.869215 C199.142048,611.875962 198.834165,612.194784 198.840912,612.581325 C198.847659,612.967865 199.166481,613.275748 199.553022,613.269001 L199.553022,613.269001 L202.812983,613.211427 L202.869215,616.471412 L202.877262,616.566271 C202.929569,616.907081 203.226996,617.165273 203.581325,617.159088 C203.967865,617.152341 204.275748,616.833519 204.269001,616.446978 L204.269001,616.446978 L204.211427,613.187017 L207.471412,613.130785 C207.857952,613.124038 208.165835,612.805216 208.159088,612.418675 C208.152341,612.032135 207.833519,611.724252 207.446978,611.730999 L207.446978,611.730999 L204.187017,611.788573 L204.130785,608.528588 L204.122738,608.433729 C204.070431,608.092919 203.773004,607.834727 203.418675,607.840912 L203.418675,607.840912 Z" id="Close-Button" transform="translate(203.500000, 612.500000) scale(-1, -1) rotate(90.000000) translate(-203.500000, -612.500000) "></path>
        </g>
    </g>
</svg>