<svg id="Layer_1" data-name="Layer 1" xmlns="http://www.w3.org/2000/svg" viewBox="0 0 200 200"><defs><style>.cls-1{fill:#67788a;}</style></defs><path class="cls-1" d="M23.57,112.64a7.94,7.94,0,1,0,7.94,7.94A7.94,7.94,0,0,0,23.57,112.64Zm0,11.38A3.44,3.44,0,1,1,27,120.58,3.44,3.44,0,0,1,23.57,124Z"/><path class="cls-1" d="M23.57,72.53a7.94,7.94,0,1,0,7.94,7.94A7.94,7.94,0,0,0,23.57,72.53Zm0,11.38A3.44,3.44,0,1,1,27,80.47,3.44,3.44,0,0,1,23.57,83.91Z"/><path class="cls-1" d="M23.57,48.3a7.94,7.94,0,1,0-7.93-7.94A7.95,7.95,0,0,0,23.57,48.3Zm0-11.38a3.44,3.44,0,1,1-3.43,3.44A3.45,3.45,0,0,1,23.57,36.92Z"/><path class="cls-1" d="M176.32,50.57H139.23V157.11h-9.76v-35h6.66v-3h-6.66V82h6.66V79h-6.66V41.86h45.82v-3H129.47V28H92.37V157.11H82.61v-35h5.77v-3H82.61V96.89H45.52v60.22H12.18v22.43H187.82V157.11h-11.5Zm-4.5,106.21H151.89V55.07h19.93ZM143.73,55.07h5.16V156.78h-5.16ZM125,156.78H105V32.47H125ZM96.87,32.47H102V156.78H96.87ZM78.11,156.78H58.18V101.39H78.11ZM50,101.39h5.16v55.39H50ZM16.68,161.61H36.54V175H16.68ZM183.32,175H39.54V161.61H183.32Z"/><rect class="cls-1" x="37.28" y="119.08" width="4.25" height="3"/><rect class="cls-1" x="37.28" y="78.97" width="51.1" height="3"/><rect class="cls-1" x="37.28" y="38.86" width="50.51" height="3"/><path class="cls-1" d="M100,194a93.16,93.16,0,0,1-40.31-9.05L57.76,189a98.84,98.84,0,0,0,83.25.57l-1.87-4.09A93.38,93.38,0,0,1,100,194Z"/><path class="cls-1" d="M182.84,144.57l4,2.14a98.78,98.78,0,0,0-.1-93.82l-4,2.15a94.25,94.25,0,0,1,.1,89.53Z"/><path class="cls-1" d="M100,5.8a93.72,93.72,0,0,1,65,26l3.11-3.25A98.62,98.62,0,0,0,34,26.65L37,30A93.94,93.94,0,0,1,100,5.8Z"/><path class="cls-1" d="M18.43,146.84A94.22,94.22,0,0,1,17.26,55l-4-2.15a98.75,98.75,0,0,0,1.23,96.2Z"/></svg>