<svg id="Layer_1" data-name="Layer 1" xmlns="http://www.w3.org/2000/svg" viewBox="0 0 200 200"><defs><style>.cls-1{fill:#67788a;}</style></defs><path class="cls-1" d="M36.22,152.66V66.07a54.22,54.22,0,0,0-16-38.58L20,27.26l-2.16,2.08.24.25A51.26,51.26,0,0,1,33.22,66.07v86.59Z"/><path class="cls-1" d="M160.65,125.18H70v4.5a23,23,0,1,1-23,23V66.07A64.88,64.88,0,0,0,27.89,19.91l-.81-.86H65.66L73.26,30H94L77,5.64H56.35l6.18,8.91H16.69l8,8.49a60.47,60.47,0,0,1,17.82,43v86.59A27.51,27.51,0,0,0,70,180.14h90.69a27.48,27.48,0,0,0,0-55Zm-86-115L85.35,25.49H75.62L65,10.14Zm86,165.5H85a27.46,27.46,0,0,0,0-46h75.64a23,23,0,0,1,0,46Z"/><path class="cls-1" d="M137.67,121.27V66.07a64.88,64.88,0,0,0-19.09-46.16l-5-5.36H89.81v4.5H111.6l3.74,4a60.44,60.44,0,0,1,17.83,43v55.2Z"/><rect class="cls-1" x="65.76" y="54.35" width="52.76" height="3"/><rect class="cls-1" x="65.76" y="67.36" width="52.76" height="3"/><rect class="cls-1" x="65.76" y="80.38" width="52.76" height="3"/><rect class="cls-1" x="65.76" y="93.4" width="44.49" height="3"/><rect class="cls-1" x="65.76" y="106.41" width="50.44" height="3"/><path class="cls-1" d="M100,194.1A94.11,94.11,0,0,1,23.7,44.91l-3.64-2.63A98.6,98.6,0,0,0,100,198.6a97.69,97.69,0,0,0,43.21-9.95l-2-4A93.16,93.16,0,0,1,100,194.1Z"/><path class="cls-1" d="M100,1.4A100.31,100.31,0,0,0,84.2,2.66l.71,4.44A96.17,96.17,0,0,1,100,5.9a94.16,94.16,0,0,1,87.61,128.51l4.19,1.64A98.66,98.66,0,0,0,100,1.4Z"/></svg>