<svg id="Layer_1" data-name="Layer 1" xmlns="http://www.w3.org/2000/svg" viewBox="0 0 200 200"><defs><style>.cls-1{fill:#67788a;}</style></defs><path class="cls-1" d="M100.37,194.1a93.76,93.76,0,0,1-50.62-14.77l-2.43,3.79a98.64,98.64,0,0,0,106.1,0L151,179.33A93.8,93.8,0,0,1,100.37,194.1Z"/><path class="cls-1" d="M146.82,42.66,127.57,21.48H84.05L64.8,42.66H3.35V173.55h193.3V42.66ZM122.62,26h3l15.16,16.68H134L118.84,26Zm-9.86,0,15.16,16.68H83.71L98.86,26ZM86,26h6.74L77.63,42.66H70.88ZM79.62,47.16H192.15V69.5L173,91.08H47L27.86,69.5V47.16H79.62Zm-71.77,0h6.06v114h3v-114h6.45v24L45,95.58h130.1l17.1-19.29v73.45L175,169.05H45.72L27.86,148.9V81.84h-4.5v87.21H7.85Zm20,106.26,13.85,15.63H27.86ZM179,169.05l13.11-14.79v14.79Z"/><path class="cls-1" d="M129.26,74.71H90.75V84.9h38.51Zm-3,7.19H93.75V77.71h32.51Z"/><path class="cls-1" d="M100.37,5.9a94.21,94.21,0,0,1,70.18,31.42l3.36-3a98.59,98.59,0,0,0-147.48.46l3.37,3A94.19,94.19,0,0,1,100.37,5.9Z"/></svg>