<svg id="Layer_1" data-name="Layer 1" xmlns="http://www.w3.org/2000/svg" viewBox="0 0 200 200"><defs><style>.cls-1{fill:#67788a;}</style></defs><path class="cls-1" d="M100.47,194.1a93.76,93.76,0,0,1-50.62-14.77l-2.42,3.79a98.62,98.62,0,0,0,106.09,0l-2.42-3.79A93.8,93.8,0,0,1,100.47,194.1Z"/><path class="cls-1" d="M107.75,116.19v16.62H94.12v4.5h13.63v16.15h4.5V137.31h13.63v-4.5H112.25V116.19a23.3,23.3,0,1,0-4.5,0Zm2.25-42A18.81,18.81,0,1,1,91.2,93,18.83,18.83,0,0,1,110,74.19Z"/><path class="cls-1" d="M196.65,42.66H146.82L127.57,21.48H84.05L64.8,42.66H3.35V173.55H175l.06,0,0,0h21.6ZM122.62,26h3l15.16,16.68H134L118.84,26Zm-9.86,0,15.16,16.68H83.71L98.86,26ZM86,26h6.74L77.62,42.66H70.88ZM7.85,47.16h6.06v114h3v-114h6.44v24L45,95.58H78.31v-4.5H47L27.85,69.5V47.16h164.3V69.5L173,91.08h-32v4.5h34l17.1-19.29v73.45L175,169.05H45.72L27.85,148.9V81.84h-4.5v87.21H7.85Zm20,106.26,13.86,15.63H27.85ZM179,169.05l13.11-14.79v14.79Z"/><path class="cls-1" d="M100.37,5.9a94.21,94.21,0,0,1,70.18,31.42l3.36-3a98.59,98.59,0,0,0-147.48.46l3.37,3A94.19,94.19,0,0,1,100.37,5.9Z"/></svg>