<?xml version="1.0" encoding="utf-8"?>
<!-- Generator: Adobe Illustrator 24.2.3, SVG Export Plug-In . SVG Version: 6.00 Build 0)  -->
<svg version="1.1" xmlns="http://www.w3.org/2000/svg" xmlns:xlink="http://www.w3.org/1999/xlink" x="0px" y="0px"
	 viewBox="0 0 61.33 47.49" style="enable-background:new 0 0 61.33 47.49;" xml:space="preserve">
<style type="text/css">
	.st0{fill:#FFFFFF;}
	.st1{fill:none;stroke:#29ABE2;stroke-miterlimit:10;}
	.st2{fill:#FFFFFF;stroke:#344853;stroke-width:2;stroke-miterlimit:10;}
	.st3{fill:none;stroke:#344853;stroke-width:2;stroke-miterlimit:10;}
	.st4{fill:none;stroke:#344853;stroke-width:2;stroke-miterlimit:10;stroke-dasharray:1.7782,1.7782;}
	.st5{fill:none;stroke:#344853;stroke-width:2;stroke-miterlimit:10;stroke-dasharray:1.8875,1.8875;}
	.st6{fill:#344853;}
</style>
<g id="BG_Color">
</g>
<g id="Layer_1">
	<g>
		<g>
			<path class="st0" d="M0,47.49V4.55l20.93-4.33l0.45,0.32c0.26,0.21,0.4,0.52,0.4,0.85v41.59L0,47.49z M2.01,6.19v38.84
				l17.76-3.67V2.52L2.01,6.19z"/>
		</g>
		<g>
			<path class="st0" d="M40.39,47.27l-0.44-0.32c-0.26-0.21-0.4-0.52-0.4-0.85V4.5L61.33,0v42.94L40.39,47.27z M40.45,45.21
				C40.45,45.21,40.45,45.21,40.45,45.21L40.45,45.21z M41.56,6.14v38.84l17.76-3.67V2.47L41.56,6.14z"/>
		</g>
		<g>
			<path class="st0" d="M40.46,47.25c-0.07,0-0.14-0.01-0.22-0.02l-20.47-4.23V0.92l0.4-0.37c0.26-0.21,0.59-0.29,0.92-0.23
				l20.46,4.23v42.08L41.15,47C40.96,47.16,40.71,47.25,40.46,47.25z M21.78,41.35l17.76,3.67V6.19L21.78,2.52V41.35z"/>
		</g>
		<g>
			<path class="st0" d="M3.94,22.06V8l13.75-2.84v14.06L3.94,22.06z M5.95,9.64v9.96l9.72-2.01V7.63L5.95,9.64z"/>
		</g>
		<g>
			<g>
				<polygon class="st0" points="3.9,27.63 3.9,25.57 17.65,22.63 17.65,24.68 				"/>
			</g>
		</g>
		<g>
			<g>
				<polygon class="st0" points="3.9,32.29 3.9,30.23 17.65,27.29 17.65,29.34 				"/>
			</g>
		</g>
		<g>
			<g>
				<polygon class="st0" points="3.9,36.94 3.9,34.89 17.65,31.94 17.65,34 				"/>
			</g>
		</g>
		<g>
			<g>
				<polygon class="st0" points="3.9,41.6 3.9,39.55 17.65,36.6 17.65,38.66 				"/>
			</g>
		</g>
		<g>
			<g>
				<g>
					<polygon class="st0" points="43.45,26.94 43.45,24.89 57.19,21.94 57.19,24 					"/>
				</g>
			</g>
			<g>
				<g>
					<polygon class="st0" points="43.45,31.6 43.45,29.55 57.19,26.6 57.19,28.66 					"/>
				</g>
			</g>
			<g>
				<g>
					<polygon class="st0" points="43.45,36.26 43.45,34.2 57.19,31.26 57.19,33.31 					"/>
				</g>
			</g>
			<g>
				<g>
					<polygon class="st0" points="43.45,40.92 43.45,38.86 57.19,35.92 57.19,37.97 					"/>
				</g>
			</g>
		</g>
		<g>
			<g>
				<polygon class="st0" points="37.49,22.01 37.49,19.96 23.84,17.01 23.84,19.07 				"/>
			</g>
		</g>
		<g>
			<g>
				<polygon class="st0" points="37.49,16.1 37.49,14.04 23.84,11.1 23.84,13.15 				"/>
			</g>
		</g>
		<g>
			<g>
				<polygon class="st0" points="37.49,10.19 37.49,8.13 23.84,5.19 23.84,7.24 				"/>
			</g>
		</g>
		<g>
			<path class="st0" d="M43.57,22.06V8l13.75-2.84v14.06L43.57,22.06z M45.58,9.64v9.96l9.72-2.01V7.63L45.58,9.64z"/>
		</g>
		<g>
			<path class="st0" d="M37.55,42.64L23.8,39.79V23.68l13.75,2.84V42.64z M25.81,38.15l9.72,2.01v-12l-9.72-2.01V38.15z"/>
		</g>
	</g>
</g>
</svg>
