<?xml version="1.0" encoding="utf-8"?>
<!-- Generator: Adobe Illustrator 24.2.3, SVG Export Plug-In . SVG Version: 6.00 Build 0)  -->
<svg version="1.1" xmlns="http://www.w3.org/2000/svg" xmlns:xlink="http://www.w3.org/1999/xlink" x="0px" y="0px"
	 viewBox="0 0 56.56 61.39" style="enable-background:new 0 0 56.56 61.39;" xml:space="preserve">
<style type="text/css">
	.st0{fill:#FFFFFF;}
	.st1{fill:none;stroke:#29ABE2;stroke-miterlimit:10;}
	.st2{fill:#FFFFFF;stroke:#344853;stroke-width:2;stroke-miterlimit:10;}
	.st3{fill:none;stroke:#344853;stroke-width:2;stroke-miterlimit:10;}
	.st4{fill:none;stroke:#344853;stroke-width:2;stroke-miterlimit:10;stroke-dasharray:1.7782,1.7782;}
	.st5{fill:none;stroke:#344853;stroke-width:2;stroke-miterlimit:10;stroke-dasharray:1.8875,1.8875;}
	.st6{fill:#344853;}
</style>
<g id="BG_Color">
</g>
<g id="Layer_1">
	<g>
		<g>
			<g>
				<path class="st0" d="M51.21,61.39c-0.56,0-1.13-0.09-1.68-0.27c-1.37-0.45-2.47-1.41-3.12-2.69l-6.43-12.86l1.75-0.88
					l6.43,12.86c0.41,0.82,1.11,1.42,1.98,1.71c0.87,0.29,1.79,0.21,2.6-0.2c1.66-0.84,2.33-2.89,1.5-4.55L47.78,41.6l1.75-0.88
					L56,53.63c1.31,2.63,0.25,5.85-2.36,7.18C52.87,61.19,52.04,61.39,51.21,61.39z"/>
			</g>
			<g>
				<path class="st0" d="M37.49,45.88c-1.78,0-3.56-0.28-5.3-0.85c-4.33-1.41-7.85-4.42-9.91-8.48c-4.26-8.38-0.91-18.66,7.47-22.92
					c8.38-4.26,18.66-0.91,22.92,7.47l0,0c4.26,8.38,0.91,18.66-7.47,22.92C42.77,45.25,40.14,45.88,37.49,45.88z M37.45,13.74
					c-2.3,0-4.63,0.53-6.81,1.64c-3.59,1.83-6.26,4.94-7.5,8.77c-1.25,3.83-0.93,7.92,0.9,11.51c1.83,3.59,4.94,6.26,8.77,7.5
					c3.83,1.25,7.92,0.93,11.51-0.9c7.41-3.77,10.38-12.87,6.61-20.28l0,0C48.26,16.76,42.95,13.74,37.45,13.74z"/>
			</g>
			<g>
				<path class="st0" d="M47.25,29.41l-1.95-0.17c0.27-3.19-1.36-6.24-4.17-7.77c-1.58-0.86-3.36-1.17-5.13-0.89l-0.31-1.94
					c2.21-0.35,4.41,0.04,6.38,1.11C45.56,21.66,47.59,25.45,47.25,29.41z"/>
			</g>
		</g>
		<g>
			<g>
				<path class="st0" d="M21.6,27.02c-4.22-0.25-7.53-3.76-7.53-8c0-4.42,3.6-8.01,8.02-8.01c2.67,0,5.15,1.32,6.65,3.53l-1.63,1.1
					c-1.13-1.67-3.01-2.67-5.02-2.67c-3.34,0-6.05,2.72-6.05,6.05c0,3.2,2.5,5.85,5.69,6.04L21.6,27.02z"/>
			</g>
			<g>
				<path class="st0" d="M8.73,39.67l-1.91-0.44c1.62-7.08,7.83-12.02,15.1-12.02v1.96C15.57,29.17,10.15,33.49,8.73,39.67z"/>
			</g>
			<g>
				<polygon class="st0" points="25.2,39.96 2.02,39.96 2.02,9.02 3.98,9.02 3.98,38 25.2,38 				"/>
			</g>
			<g>
				<rect x="39.86" y="9.11" class="st0" width="1.96" height="3.75"/>
			</g>
			<g>
				<polygon class="st0" points="41.82,53.42 2.02,53.42 2.02,38.37 3.98,38.37 3.98,51.46 39.86,51.46 39.86,44.4 41.82,44.4 				
					"/>
			</g>
			<g>
				<g>
					<path class="st0" d="M37.73,36.26c-1.62-5.76-8.05-9.61-13.08-9.86c-0.25-0.01-0.52-0.03-0.79-0.05
						c-0.71-0.05-1.45-0.11-2.03-0.03l-0.26-1.94c0.79-0.1,1.62-0.04,2.44,0.02c0.25,0.02,0.5,0.04,0.74,0.05
						c5.83,0.3,12.99,4.6,14.87,11.29L37.73,36.26z"/>
				</g>
				<g>
					<polygon class="st0" points="44.6,37.18 23.36,37.18 23.36,35.22 42.64,35.22 42.64,13.8 44.6,13.8 					"/>
				</g>
				<g>
					<rect x="42.64" y="35.59" class="st0" width="1.96" height="7.82"/>
				</g>
			</g>
			<g>
				<path class="st0" d="M38.67,10.36c-1.72,0-3.25-0.83-4.19-2.15c-0.94,1.31-2.47,2.15-4.19,2.15c-1.72,0-3.25-0.83-4.19-2.15
					c-0.94,1.31-2.47,2.15-4.19,2.15c-1.72,0-3.25-0.83-4.19-2.15c-0.94,1.31-2.47,2.15-4.19,2.15S10.3,9.53,9.36,8.22
					c-0.94,1.31-2.47,2.15-4.19,2.15c-2.55,0-4.76-1.87-5.16-4.36L0,5.85V0h43.84l-0.01,6C43.43,8.49,41.22,10.36,38.67,10.36z
					 M33.58,4.87h1.67l0.26,0.83c0.25,1.57,1.58,2.71,3.15,2.71c1.57,0,2.93-1.13,3.21-2.63V1.96H1.96v3.81
					C2.24,7.27,3.6,8.4,5.17,8.4c1.58,0,2.9-1.14,3.15-2.71l0.13-0.83h1.67l0.26,0.83c0.25,1.57,1.57,2.71,3.15,2.71
					s2.91-1.14,3.15-2.71l0.13-0.83h1.67l0.26,0.83c0.25,1.57,1.57,2.71,3.15,2.71c1.58,0,2.91-1.14,3.15-2.71l0.13-0.83h1.67
					l0.26,0.83c0.25,1.57,1.58,2.71,3.15,2.71c1.58,0,2.9-1.14,3.15-2.71L33.58,4.87z"/>
			</g>
			<g>
				<path class="st0" d="M24.62,24c-0.8,0-1.58-0.11-2.34-0.34l0.56-1.88c0.57,0.17,1.17,0.26,1.78,0.26c3.42,0,6.19-2.78,6.19-6.19
					c0-0.63-0.09-1.24-0.28-1.83l1.87-0.58c0.24,0.78,0.36,1.59,0.36,2.41C32.77,20.34,29.11,24,24.62,24z"/>
			</g>
		</g>
	</g>
</g>
</svg>
