<?xml version="1.0" encoding="utf-8"?>
<!-- Generator: Adobe Illustrator 24.2.3, SVG Export Plug-In . SVG Version: 6.00 Build 0)  -->
<svg version="1.1" xmlns="http://www.w3.org/2000/svg" xmlns:xlink="http://www.w3.org/1999/xlink" x="0px" y="0px"
	 viewBox="0 0 44.42 61.13" style="enable-background:new 0 0 44.42 61.13;" xml:space="preserve">
<style type="text/css">
	.st0{fill:#FFFFFF;}
	.st1{fill:none;stroke:#29ABE2;stroke-miterlimit:10;}
	.st2{fill:#FFFFFF;stroke:#344853;stroke-width:2;stroke-miterlimit:10;}
	.st3{fill:none;stroke:#344853;stroke-width:2;stroke-miterlimit:10;}
	.st4{fill:none;stroke:#344853;stroke-width:2;stroke-miterlimit:10;stroke-dasharray:1.7782,1.7782;}
	.st5{fill:none;stroke:#344853;stroke-width:2;stroke-miterlimit:10;stroke-dasharray:1.8875,1.8875;}
	.st6{fill:#344853;}
</style>
<g id="BG_Color">
</g>
<g id="Layer_1">
	<g>
		<g>
			<path class="st0" d="M37.96,61.13c-0.68,0-1.36-0.11-2.03-0.33c-1.65-0.54-2.98-1.7-3.76-3.25L24.2,41.61l1.85-0.93l7.98,15.94
				c0.53,1.05,1.44,1.84,2.55,2.21c1.12,0.37,2.31,0.28,3.37-0.26c2.15-1.09,3.02-3.73,1.94-5.88l-8.01-16l1.85-0.93l8.01,16
				c1.58,3.17,0.31,7.05-2.85,8.66C39.97,60.89,38.97,61.13,37.96,61.13z"/>
		</g>
		<g>
			<path class="st0" d="M20.98,41.89c-7.64,0-15.01-4.19-18.71-11.45c-5.23-10.3-1.12-22.93,9.18-28.16
				c10.29-5.23,22.93-1.12,28.16,9.18c2.54,4.99,2.98,10.66,1.24,15.98s-5.43,9.65-10.42,12.18C27.4,41.16,24.17,41.89,20.98,41.89z
				 M20.91,2.07c-2.87,0-5.79,0.66-8.52,2.05C3.11,8.83-0.6,20.22,4.12,29.5c4.72,9.28,16.1,12.99,25.38,8.27
				c9.28-4.72,12.99-16.1,8.27-25.38C34.44,5.84,27.79,2.07,20.91,2.07z"/>
		</g>
		<g>
			<path class="st0" d="M32.88,21.65l-2.06-0.18c0.34-4.02-1.72-7.87-5.26-9.81c-1.99-1.09-4.23-1.48-6.47-1.13l-0.32-2.05
				c2.7-0.42,5.39,0.05,7.79,1.36C30.81,12.18,33.3,16.82,32.88,21.65z"/>
		</g>
	</g>
</g>
</svg>
