<?xml version="1.0" encoding="utf-8"?>
<!-- Generator: Adobe Illustrator 24.2.3, SVG Export Plug-In . SVG Version: 6.00 Build 0)  -->
<svg version="1.1" xmlns="http://www.w3.org/2000/svg" xmlns:xlink="http://www.w3.org/1999/xlink" x="0px" y="0px"
	 viewBox="0 0 61.47 49.66" style="enable-background:new 0 0 61.47 49.66;" xml:space="preserve">
<style type="text/css">
	.st0{fill:#FFFFFF;}
	.st1{fill:none;stroke:#29ABE2;stroke-miterlimit:10;}
	.st2{fill:#FFFFFF;stroke:#344853;stroke-width:2;stroke-miterlimit:10;}
	.st3{fill:none;stroke:#344853;stroke-width:2;stroke-miterlimit:10;}
	.st4{fill:none;stroke:#344853;stroke-width:2;stroke-miterlimit:10;stroke-dasharray:1.7782,1.7782;}
	.st5{fill:none;stroke:#344853;stroke-width:2;stroke-miterlimit:10;stroke-dasharray:1.8875,1.8875;}
	.st6{fill:#344853;}
</style>
<g id="BG_Color">
</g>
<g id="Layer_1">
	<g>
		<g>
			
				<rect x="27.76" y="22.43" transform="matrix(0.7708 -0.6371 0.6371 0.7708 -10.1119 24.3424)" class="st0" width="2.04" height="7.6"/>
		</g>
		<g>
			
				<rect x="31.54" y="19.49" transform="matrix(0.769 -0.6393 0.6393 0.769 -7.2241 26.1396)" class="st0" width="2.04" height="7.16"/>
		</g>
		<g>
			<g>
				<path class="st0" d="M20.49,26.39c-1.38,0-2.76-0.22-4.1-0.66c-3.35-1.09-6.07-3.42-7.67-6.56c-1.6-3.14-1.87-6.72-0.78-10.06
					c1.09-3.35,3.42-6.07,6.56-7.67c3.14-1.6,6.72-1.88,10.06-0.78c3.35,1.09,6.07,3.42,7.67,6.56s1.88,6.72,0.78,10.07
					c-1.09,3.35-3.42,6.07-6.56,7.67C24.58,25.91,22.54,26.39,20.49,26.39z M20.47,2.04c-1.73,0-3.45,0.41-5.04,1.22
					C12.77,4.6,10.8,6.91,9.87,9.74c-0.92,2.83-0.69,5.86,0.66,8.51c1.35,2.66,3.65,4.63,6.49,5.55c2.83,0.92,5.86,0.69,8.51-0.66
					c2.66-1.35,4.63-3.65,5.55-6.49c0.92-2.83,0.69-5.86-0.66-8.51l0,0c-1.35-2.66-3.65-4.63-6.49-5.55
					C22.8,2.22,21.63,2.04,20.47,2.04z"/>
			</g>
			<g>
				<path class="st0" d="M28.17,13.66l-2.03-0.17c0.2-2.31-0.99-4.51-3.02-5.63c-1.14-0.63-2.43-0.85-3.71-0.65l-0.32-2.01
					c1.73-0.28,3.46,0.03,5.01,0.87C26.83,7.58,28.43,10.56,28.17,13.66z"/>
			</g>
			<g>
				<rect x="8.73" y="12.61" class="st0" width="13.01" height="2.04"/>
			</g>
			<g>
				<rect x="10.59" y="18.68" class="st0" width="13.72" height="2.04"/>
			</g>
			<g>
				<rect y="10.95" class="st0" width="8.54" height="2.04"/>
			</g>
			<g>
				<rect x="0.25" y="15.62" class="st0" width="9.01" height="2.04"/>
			</g>
		</g>
		<g>
			<g>
				<path class="st0" d="M51.78,49.66c-3.1,0-6.17-1.32-8.29-3.88L31.11,31.22c-0.68-0.8-1-1.81-0.91-2.85
					c0.09-1.04,0.57-1.98,1.37-2.65c0.8-0.67,1.81-0.99,2.85-0.91c0.14,0.01,0.27,0.03,0.4,0.05l-1.02-1.24l0.01-0.01
					c0.87-0.71,1.82-1.19,2.82-1.43c1.71-0.4,4.23-0.51,6.55,1.27c1.07,0.82,2.19,1.33,3.33,1.52c2.32,0.38,4.36,1.54,5.73,3.27
					l7.93,10.01c2.01,2.54,1.62,6.29-0.87,8.36l-0.66,0.55C56.64,48.84,54.2,49.65,51.78,49.66z M34.09,26.84
					c-0.43,0-0.85,0.14-1.2,0.44c-0.38,0.32-0.61,0.77-0.66,1.27c-0.04,0.5,0.11,0.98,0.43,1.36l12.38,14.56
					c3.08,3.71,8.6,4.23,12.3,1.15l0.66-0.55c1.65-1.37,1.91-3.85,0.58-5.53l-7.93-10.01c-1.06-1.33-2.64-2.23-4.47-2.53
					c-1.48-0.24-2.91-0.89-4.24-1.92c-1.68-1.29-3.55-1.2-4.83-0.9c-0.61,0.14-1.2,0.43-1.76,0.84c0.66,0.23,1.25,0.63,1.72,1.18
					l5.19,6.14l-1.56,1.31l-5.19-6.14C35.14,27.06,34.62,26.84,34.09,26.84z"/>
			</g>
			<g>
				<path class="st0" d="M29.73,35.56c-0.1,0-0.2,0-0.31-0.01c-0.96-0.08-1.84-0.53-2.46-1.27c-0.62-0.74-0.92-1.67-0.84-2.63
					c0.08-0.96,0.53-1.83,1.27-2.46l2.08-1.81l1.34,1.53l-2.09,1.82c-0.33,0.28-0.53,0.66-0.57,1.08c-0.04,0.42,0.09,0.83,0.37,1.15
					c0.27,0.32,0.65,0.52,1.07,0.55c0.42,0.03,0.83-0.1,1.15-0.37l2.01-1.7l1.31,1.56l-2.01,1.7C31.4,35.26,30.58,35.56,29.73,35.56
					z"/>
			</g>
			<g>
				<path class="st0" d="M35.21,40.9c-0.88,0-1.72-0.4-2.34-1.12c-0.75-0.88-1.02-2.07-0.73-3.17l0.93-3.68l1.97,0.5l-0.93,3.69
					c-0.12,0.47,0,0.98,0.31,1.35c0.14,0.17,0.44,0.44,0.9,0.4l4.19-0.3l0.15,2.03l-4.16,0.3C35.39,40.9,35.3,40.9,35.21,40.9z"/>
			</g>
			<g>
				<path class="st0" d="M38.21,44.86c-1.06,0-2.01-0.42-2.65-1.18c-0.66-0.78-0.92-1.81-0.72-2.91l0.14-0.8l2,0.36l-0.15,0.8
					c-0.09,0.49,0.01,0.92,0.27,1.23c0.25,0.3,0.7,0.45,1.13,0.46l4.64-0.03l0.01,2.04l-4.64,0.03
					C38.25,44.86,38.23,44.86,38.21,44.86z"/>
			</g>
			<g>
				<path class="st0" d="M41.6,48.66c-1.09,0-2.03-0.41-2.67-1.17c-0.66-0.78-0.92-1.82-0.72-2.91l0.14-0.79l2,0.36l-0.14,0.79
					c-0.09,0.49,0.01,0.92,0.27,1.23c0.26,0.3,0.69,0.46,1.14,0.45l5.24-0.21l0.08,2.03l-5.27,0.22
					C41.65,48.66,41.63,48.66,41.6,48.66z"/>
			</g>
		</g>
	</g>
</g>
</svg>
