<?xml version="1.0" encoding="utf-8"?>
<!-- Generator: Adobe Illustrator 24.2.3, SVG Export Plug-In . SVG Version: 6.00 Build 0)  -->
<svg version="1.1" xmlns="http://www.w3.org/2000/svg" xmlns:xlink="http://www.w3.org/1999/xlink" x="0px" y="0px"
	 viewBox="0 0 38.91 61.11" style="enable-background:new 0 0 38.91 61.11;" xml:space="preserve">
<style type="text/css">
	.st0{fill:#FFFFFF;}
	.st1{fill:none;stroke:#29ABE2;stroke-miterlimit:10;}
	.st2{fill:#FFFFFF;stroke:#344853;stroke-width:2;stroke-miterlimit:10;}
	.st3{fill:none;stroke:#344853;stroke-width:2;stroke-miterlimit:10;}
	.st4{fill:none;stroke:#344853;stroke-width:2;stroke-miterlimit:10;stroke-dasharray:1.7782,1.7782;}
	.st5{fill:none;stroke:#344853;stroke-width:2;stroke-miterlimit:10;stroke-dasharray:1.8875,1.8875;}
	.st6{fill:#344853;}
</style>
<g id="BG_Color">
</g>
<g id="Layer_1">
	<g>
		<g>
			<path class="st0" d="M32.69,10.31H6.22V0h26.47V10.31z M8.27,8.26h22.37V2.05H8.27V8.26z"/>
		</g>
		<g>
			<path class="st0" d="M38.91,44.95H0v-6.37c0-4.49,3.65-8.15,8.15-8.15h22.62c4.49,0,8.15,3.65,8.15,8.15V44.95z M2.05,42.9h34.81
				v-4.32c0-3.36-2.74-6.1-6.1-6.1H8.15c-3.36,0-6.1,2.74-6.1,6.1V42.9z"/>
		</g>
		<g>
			<polygon class="st0" points="30.32,32 26.03,10.31 12.86,10.31 8.59,32 6.58,31.6 11.18,8.26 27.71,8.26 32.33,31.6 			"/>
		</g>
		<g>
			<polygon class="st0" points="19.64,61.11 15.39,55.43 15.39,43.91 17.44,43.91 17.44,54.75 19.56,57.59 21.47,54.77 21.47,43.91 
				23.52,43.91 23.52,55.4 			"/>
		</g>
	</g>
</g>
</svg>
