<?xml version="1.0" encoding="utf-8"?>
<!-- Generator: Adobe Illustrator 24.2.3, SVG Export Plug-In . SVG Version: 6.00 Build 0)  -->
<svg version="1.1" xmlns="http://www.w3.org/2000/svg" xmlns:xlink="http://www.w3.org/1999/xlink" x="0px" y="0px"
	 viewBox="0 0 61 40.15" style="enable-background:new 0 0 61 40.15;" xml:space="preserve">
<style type="text/css">
	.st0{fill:#FFFFFF;}
	.st1{fill:none;stroke:#29ABE2;stroke-miterlimit:10;}
	.st2{fill:#FFFFFF;stroke:#344853;stroke-width:2;stroke-miterlimit:10;}
	.st3{fill:none;stroke:#344853;stroke-width:2;stroke-miterlimit:10;}
	.st4{fill:none;stroke:#344853;stroke-width:2;stroke-miterlimit:10;stroke-dasharray:1.7782,1.7782;}
	.st5{fill:none;stroke:#344853;stroke-width:2;stroke-miterlimit:10;stroke-dasharray:1.8875,1.8875;}
	.st6{fill:#344853;}
</style>
<g id="BG_Color">
</g>
<g id="Layer_1">
	<g>
		<g>
			<rect x="1.61" y="16.46" class="st0" width="9.75" height="2"/>
		</g>
		<g>
			<path class="st0" d="M22.93,13.59c-3.57,0-6.48-2.91-6.48-6.48s2.91-6.48,6.48-6.48c3.57,0,6.48,2.91,6.48,6.48
				S26.5,13.59,22.93,13.59z M22.93,2.62c-2.47,0-4.48,2.01-4.48,4.48c0,2.47,2.01,4.48,4.48,4.48c2.47,0,4.48-2.01,4.48-4.48
				C27.41,4.63,25.4,2.62,22.93,2.62z"/>
		</g>
		<g>
			<rect x="18.05" y="16.46" class="st0" width="9.75" height="2"/>
		</g>
		<g>
			<path class="st0" d="M6.48,35.27C2.91,35.27,0,32.37,0,28.79s2.91-6.48,6.48-6.48s6.48,2.91,6.48,6.48S10.06,35.27,6.48,35.27z
				 M6.48,24.31C4.01,24.31,2,26.32,2,28.79s2.01,4.48,4.48,4.48s4.48-2.01,4.48-4.48S8.95,24.31,6.48,24.31z"/>
		</g>
		<g>
			<rect x="1.61" y="38.15" class="st0" width="9.75" height="2"/>
		</g>
		<g>
			<rect x="18.05" y="38.15" class="st0" width="9.75" height="2"/>
		</g>
		<g>
			<g>
				<rect x="35.29" y="20.63" class="st0" width="25.71" height="2"/>
			</g>
			<g>
				<rect x="35.29" y="25.01" class="st0" width="23.02" height="2"/>
			</g>
			<g>
				<rect x="35.29" y="29.39" class="st0" width="25.71" height="2"/>
			</g>
			<g>
				<rect x="35.29" y="33.77" class="st0" width="23.02" height="2"/>
			</g>
			<g>
				<rect x="35.29" y="38.15" class="st0" width="25.71" height="2"/>
			</g>
		</g>
		<g>
			<g>
				<path class="st0" d="M58.72,14.4H32.99L43.21,3.44l5.27,5.58l2.58-2.73L58.72,14.4z M37.59,12.4h16.49l-3.02-3.2l-2.58,2.73
					l-5.26-5.57L37.59,12.4z"/>
			</g>
			<g>
				<path class="st0" d="M50.3,5.71c-1.58,0-2.86-1.28-2.86-2.86S48.73,0,50.3,0s2.86,1.28,2.86,2.86S51.88,5.71,50.3,5.71z M50.3,2
					c-0.47,0-0.86,0.38-0.86,0.86s0.38,0.86,0.86,0.86s0.86-0.38,0.86-0.86S50.78,2,50.3,2z"/>
			</g>
		</g>
		<g>
			<g>
				<path class="st0" d="M6.48,13.59C2.91,13.59,0,10.68,0,7.11s2.91-6.48,6.48-6.48s6.48,2.91,6.48,6.48S10.06,13.59,6.48,13.59z
					 M6.48,2.62C4.01,2.62,2,4.63,2,7.11c0,2.47,2.01,4.48,4.48,4.48s4.48-2.01,4.48-4.48C10.96,4.63,8.95,2.62,6.48,2.62z"/>
			</g>
			<g>
				<g>
					<rect x="2.62" y="2.81" class="st0" width="2" height="8.87"/>
				</g>
				<g>
					<rect x="5.48" y="1.62" class="st0" width="2" height="10.96"/>
				</g>
				<g>
					<rect x="8.34" y="2.81" class="st0" width="2" height="8.51"/>
				</g>
			</g>
		</g>
		<g>
			<g>
				<path class="st0" d="M22.93,35.27c-3.57,0-6.48-2.91-6.48-6.48s2.91-6.48,6.48-6.48c3.57,0,6.48,2.91,6.48,6.48
					S26.5,35.27,22.93,35.27z M22.93,24.31c-2.47,0-4.48,2.01-4.48,4.48s2.01,4.48,4.48,4.48c2.47,0,4.48-2.01,4.48-4.48
					S25.4,24.31,22.93,24.31z"/>
			</g>
			<g>
				<g>
					<rect x="19.07" y="24.5" class="st0" width="2" height="8.87"/>
				</g>
				<g>
					<rect x="21.93" y="23.31" class="st0" width="2" height="10.96"/>
				</g>
				<g>
					<rect x="24.79" y="24.5" class="st0" width="2" height="8.51"/>
				</g>
			</g>
		</g>
	</g>
</g>
</svg>
