<?xml version="1.0" encoding="utf-8"?>
<!-- Generator: Adobe Illustrator 24.2.3, SVG Export Plug-In . SVG Version: 6.00 Build 0)  -->
<svg version="1.1" xmlns="http://www.w3.org/2000/svg" xmlns:xlink="http://www.w3.org/1999/xlink" x="0px" y="0px"
	 viewBox="0 0 61.17 42.23" style="enable-background:new 0 0 61.17 42.23;" xml:space="preserve">
<style type="text/css">
	.st0{fill:#FFFFFF;}
	.st1{fill:none;stroke:#29ABE2;stroke-miterlimit:10;}
	.st2{fill:#FFFFFF;stroke:#344853;stroke-width:2;stroke-miterlimit:10;}
	.st3{fill:none;stroke:#344853;stroke-width:2;stroke-miterlimit:10;}
	.st4{fill:none;stroke:#344853;stroke-width:2;stroke-miterlimit:10;stroke-dasharray:1.7782,1.7782;}
	.st5{fill:none;stroke:#344853;stroke-width:2;stroke-miterlimit:10;stroke-dasharray:1.8875,1.8875;}
	.st6{fill:#344853;}
</style>
<g id="BG_Color">
</g>
<g id="Layer_1">
	<g>
		<g>
			<polygon class="st0" points="7.1,42.23 7.1,33.62 0,33.62 0,0 50.64,0 50.64,21.69 48.64,21.69 48.64,2 2,2 2,31.62 9.1,31.62 
				9.1,38.44 19.07,31.62 40.31,31.62 40.31,33.62 19.69,33.62 			"/>
		</g>
		<g>
			<g>
				<rect x="9.8" y="6.49" class="st0" width="31.06" height="2"/>
			</g>
			<g>
				<rect x="9.8" y="12.35" class="st0" width="27.3" height="2"/>
			</g>
			<g>
				<rect x="9.8" y="24.07" class="st0" width="27.3" height="2"/>
			</g>
			<g>
				<rect x="9.8" y="18.21" class="st0" width="31.06" height="2"/>
			</g>
		</g>
		<g>
			<g>
				<path class="st0" d="M48.51,39.78c-5.25,0-9.53-4.27-9.53-9.52s4.27-9.52,9.53-9.52s9.52,4.27,9.52,9.52
					S53.76,39.78,48.51,39.78z M48.51,22.73c-4.15,0-7.53,3.38-7.53,7.52s3.38,7.52,7.53,7.52s7.52-3.38,7.52-7.52
					S52.66,22.73,48.51,22.73z"/>
			</g>
			<g>
				<g>
					<polygon class="st0" points="48.53,34.22 42.64,28.33 44.05,26.91 48.53,31.39 59.76,20.16 61.17,21.57 					"/>
				</g>
			</g>
		</g>
	</g>
</g>
</svg>
