<?xml version="1.0" encoding="utf-8"?>
<!-- Generator: Adobe Illustrator 24.2.3, SVG Export Plug-In . SVG Version: 6.00 Build 0)  -->
<svg version="1.1" xmlns="http://www.w3.org/2000/svg" xmlns:xlink="http://www.w3.org/1999/xlink" x="0px" y="0px"
	 viewBox="0 0 45.52 60.85" style="enable-background:new 0 0 45.52 60.85;" xml:space="preserve">
<style type="text/css">
	.st0{fill:#FFFFFF;}
	.st1{fill:none;stroke:#29ABE2;stroke-miterlimit:10;}
	.st2{fill:#FFFFFF;stroke:#344853;stroke-width:2;stroke-miterlimit:10;}
	.st3{fill:none;stroke:#344853;stroke-width:2;stroke-miterlimit:10;}
	.st4{fill:none;stroke:#344853;stroke-width:2;stroke-miterlimit:10;stroke-dasharray:1.7782,1.7782;}
	.st5{fill:none;stroke:#344853;stroke-width:2;stroke-miterlimit:10;stroke-dasharray:1.8875,1.8875;}
	.st6{fill:#344853;}
</style>
<g id="BG_Color">
</g>
<g id="Layer_1">
	<g>
		<g>
			<polygon class="st0" points="45.5,60.85 0,60.85 0,0.02 36.4,0.02 36.4,2.02 2,2.02 2,58.85 43.5,58.85 43.5,9.19 45.5,9.19 			
				"/>
		</g>
		<g>
			<path class="st0" d="M44.42,10.33h-9.23V1.1c0-0.44,0.26-0.84,0.67-1.01c0.41-0.17,0.88-0.08,1.2,0.23l8.13,8.13
				c0.31,0.31,0.41,0.78,0.24,1.19C45.26,10.06,44.86,10.33,44.42,10.33z M43.78,9.86C43.78,9.87,43.78,9.87,43.78,9.86L43.78,9.86z
				 M37.19,8.33h5.05l-5.05-5.05V8.33z"/>
		</g>
		<g>
			<g>
				<rect x="8.42" y="7.78" class="st0" width="24.14" height="2"/>
			</g>
			<g>
				<rect x="8.42" y="12.54" class="st0" width="24.14" height="2"/>
			</g>
		</g>
		<g>
			<g>
				<rect x="8.42" y="42.66" class="st0" width="27.77" height="2"/>
			</g>
			<g>
				<rect x="8.42" y="47.2" class="st0" width="25.92" height="2"/>
			</g>
			<g>
				<rect x="8.42" y="51.75" class="st0" width="27.77" height="2"/>
			</g>
		</g>
		<g>
			<g>
				<path class="st0" d="M37.6,38.35H7.42V23.51H37.6V38.35z M9.42,36.35H35.6V25.51H9.42V36.35z"/>
			</g>
			<g>
				
					<rect x="21.51" y="15.44" transform="matrix(0.4144 -0.9101 0.9101 0.4144 -14.9676 38.5997)" class="st0" width="2" height="30.97"/>
			</g>
			<g>
				
					<rect x="7.02" y="29.93" transform="matrix(0.9102 -0.4141 0.4141 0.9102 -10.7875 12.0975)" class="st0" width="30.97" height="2"/>
			</g>
		</g>
		<g>
			<rect x="1" y="18.23" class="st0" width="43.47" height="2"/>
		</g>
	</g>
</g>
</svg>
