<?xml version="1.0" encoding="utf-8"?>
<!-- Generator: Adobe Illustrator 24.2.3, SVG Export Plug-In . SVG Version: 6.00 Build 0)  -->
<svg version="1.1" xmlns="http://www.w3.org/2000/svg" xmlns:xlink="http://www.w3.org/1999/xlink" x="0px" y="0px"
	 viewBox="0 0 60.98 46.7" style="enable-background:new 0 0 60.98 46.7;" xml:space="preserve">
<style type="text/css">
	.st0{fill:#FFFFFF;}
	.st1{fill:none;stroke:#29ABE2;stroke-miterlimit:10;}
	.st2{fill:#FFFFFF;stroke:#344853;stroke-width:2;stroke-miterlimit:10;}
	.st3{fill:none;stroke:#344853;stroke-width:2;stroke-miterlimit:10;}
	.st4{fill:none;stroke:#344853;stroke-width:2;stroke-miterlimit:10;stroke-dasharray:1.7782,1.7782;}
	.st5{fill:none;stroke:#344853;stroke-width:2;stroke-miterlimit:10;stroke-dasharray:1.8875,1.8875;}
	.st6{fill:#344853;}
</style>
<g id="BG_Color">
</g>
<g id="Layer_1">
	<g>
		<g>
			<rect y="3.54" class="st0" width="60.98" height="2"/>
		</g>
		<g>
			<rect y="31.56" class="st0" width="60.98" height="2"/>
		</g>
		<g>
			<rect x="29.49" class="st0" width="2" height="4.37"/>
		</g>
		<g>
			<rect x="29.49" y="33.1" class="st0" width="2" height="9.41"/>
		</g>
		<g>
			
				<rect x="15.94" y="38.57" transform="matrix(0.6615 -0.7499 0.7499 0.6615 -21.3607 31.817)" class="st0" width="17.26" height="2"/>
		</g>
		<g>
			
				<rect x="35.42" y="30.94" transform="matrix(0.7497 -0.6618 0.6618 0.7497 -17.0732 34.0084)" class="st0" width="2" height="17.26"/>
		</g>
		<g>
			<path class="st0" d="M27.57,26.61H10.99V10.71h16.58V26.61z M12.99,24.61h12.58V12.71H12.99V24.61z"/>
		</g>
		<g>
			<g>
				<rect x="31.97" y="17.66" class="st0" width="17.03" height="2"/>
			</g>
			<g>
				<rect x="31.97" y="12.76" class="st0" width="17.03" height="2"/>
			</g>
			<g>
				<rect x="31.97" y="22.57" class="st0" width="17.03" height="2"/>
			</g>
		</g>
		<g>
			
				<rect x="9.21" y="17.66" transform="matrix(0.7235 -0.6903 0.6903 0.7235 -7.5524 18.4675)" class="st0" width="20.14" height="2"/>
		</g>
		<g>
			<rect x="18.28" y="8.59" transform="matrix(0.69 -0.7238 0.7238 0.69 -7.5315 19.739)" class="st0" width="2" height="20.14"/>
		</g>
		<g>
			<rect x="4.59" y="28.83" class="st0" width="2" height="2"/>
		</g>
		<g>
			<g>
				<g>
					<path class="st0" d="M52.72,30.83h-1.78v-2h1.78V30.83z M49.16,30.83h-1.78v-2h1.78V30.83z M45.61,30.83h-1.78v-2h1.78V30.83z
						 M42.05,30.83h-1.78v-2h1.78V30.83z M38.49,30.83h-1.78v-2h1.78V30.83z M34.94,30.83h-1.78v-2h1.78V30.83z M31.38,30.83H29.6
						v-2h1.78V30.83z M27.83,30.83h-1.78v-2h1.78V30.83z M24.27,30.83h-1.78v-2h1.78V30.83z M20.71,30.83h-1.78v-2h1.78V30.83z
						 M17.16,30.83h-1.78v-2h1.78V30.83z M13.6,30.83h-1.78v-2h1.78V30.83z M10.04,30.83H8.26v-2h1.78V30.83z"/>
				</g>
				<g>
					<path class="st0" d="M6.59,27.04h-2v-1.89h2V27.04z M6.59,23.26h-2v-1.89h2V23.26z M6.59,19.49h-2V17.6h2V19.49z M6.59,15.71
						h-2v-1.89h2V15.71z M6.59,11.94h-2v-1.89h2V11.94z"/>
				</g>
				<g>
					<rect x="4.59" y="6.27" class="st0" width="2" height="2"/>
				</g>
				<g>
					<path class="st0" d="M52.72,8.27h-1.78v-2h1.78V8.27z M49.16,8.27h-1.78v-2h1.78V8.27z M45.61,8.27h-1.78v-2h1.78V8.27z
						 M42.05,8.27h-1.78v-2h1.78V8.27z M38.49,8.27h-1.78v-2h1.78V8.27z M34.94,8.27h-1.78v-2h1.78V8.27z M31.38,8.27H29.6v-2h1.78
						V8.27z M27.83,8.27h-1.78v-2h1.78V8.27z M24.27,8.27h-1.78v-2h1.78V8.27z M20.71,8.27h-1.78v-2h1.78V8.27z M17.16,8.27h-1.78
						v-2h1.78V8.27z M13.6,8.27h-1.78v-2h1.78V8.27z M10.04,8.27H8.26v-2h1.78V8.27z"/>
				</g>
				<g>
					<path class="st0" d="M56.4,27.04h-2v-1.89h2V27.04z M56.4,23.27h-2v-1.89h2V23.27z M56.4,19.49h-2V17.6h2V19.49z M56.4,15.72
						h-2v-1.89h2V15.72z M56.4,11.94h-2v-1.89h2V11.94z"/>
				</g>
			</g>
			<g>
				<g>
					<rect x="54.4" y="6.27" class="st0" width="2" height="1.99"/>
				</g>
				<g>
					<rect x="54.4" y="28.82" class="st0" width="2" height="2.01"/>
				</g>
			</g>
		</g>
	</g>
</g>
</svg>
