<?xml version="1.0" encoding="utf-8"?>
<!-- Generator: Adobe Illustrator 24.2.3, SVG Export Plug-In . SVG Version: 6.00 Build 0)  -->
<svg version="1.1" xmlns="http://www.w3.org/2000/svg" xmlns:xlink="http://www.w3.org/1999/xlink" x="0px" y="0px"
	 viewBox="0 0 61.52 47.11" style="enable-background:new 0 0 61.52 47.11;" xml:space="preserve">
<style type="text/css">
	.st0{fill:#FFFFFF;}
	.st1{fill:none;stroke:#29ABE2;stroke-miterlimit:10;}
	.st2{fill:#FFFFFF;stroke:#344853;stroke-width:2;stroke-miterlimit:10;}
	.st3{fill:none;stroke:#344853;stroke-width:2;stroke-miterlimit:10;}
	.st4{fill:none;stroke:#344853;stroke-width:2;stroke-miterlimit:10;stroke-dasharray:1.7782,1.7782;}
	.st5{fill:none;stroke:#344853;stroke-width:2;stroke-miterlimit:10;stroke-dasharray:1.8875,1.8875;}
	.st6{fill:#344853;}
</style>
<g id="BG_Color">
</g>
<g id="Layer_1">
	<g>
		<g>
			<path class="st0" d="M56.89,33.85H4.63V3.57h52.27V33.85z M6.64,31.83h48.23V5.59H6.64V31.83z"/>
		</g>
		<g>
			<rect y="3.57" class="st0" width="61.52" height="2.02"/>
		</g>
		<g>
			<rect y="31.83" class="st0" width="61.52" height="2.02"/>
		</g>
		<g>
			<g>
				<polygon class="st0" points="22.53,28.48 20.51,28.48 20.51,23 16.93,23 16.93,28.48 14.92,28.48 14.92,20.98 22.53,20.98 				
					"/>
			</g>
			<g>
				<polygon class="st0" points="34.56,28.48 32.55,28.48 32.55,18.53 28.97,18.53 28.97,28.48 26.95,28.48 26.95,16.51 
					34.56,16.51 				"/>
			</g>
			<g>
				<polygon class="st0" points="46.6,28.48 44.58,28.48 44.58,14.06 41.01,14.06 41.01,28.48 38.99,28.48 38.99,12.04 46.6,12.04 
									"/>
			</g>
		</g>
		<g>
			<rect x="29.75" class="st0" width="2.02" height="4.41"/>
		</g>
		<g>
			<rect x="29.75" y="33.39" class="st0" width="2.02" height="9.49"/>
		</g>
		<g>
			
				<rect x="16.08" y="38.91" transform="matrix(0.6615 -0.7499 0.7499 0.6615 -21.5478 32.0957)" class="st0" width="17.41" height="2.02"/>
		</g>
		<g>
			
				<rect x="35.73" y="31.21" transform="matrix(0.7497 -0.6618 0.6618 0.7497 -17.2228 34.3063)" class="st0" width="2.02" height="17.41"/>
		</g>
	</g>
</g>
</svg>
