<?xml version="1.0" encoding="UTF-8"?>
<svg width="24px" height="24px" viewBox="0 0 24 24" version="1.1" xmlns="http://www.w3.org/2000/svg" xmlns:xlink="http://www.w3.org/1999/xlink">
    <title>WA-Close</title>
    <g id="Button-States" stroke="none" stroke-width="1" fill="none" fill-rule="evenodd">
        <g transform="translate(-159.000000, -425.000000)" fill="#075E54" id="WA-Close">
            <path d="M171,425 C177.627417,425 183,430.372583 183,437 C183,443.627417 177.627417,449 171,449 C164.372583,449 159,443.627417 159,437 C159,430.372583 164.372583,425 171,425 Z M167.707107,432.292893 C167.316582,431.902369 166.683418,431.902369 166.292893,432.292893 C165.902369,432.683418 165.902369,433.316582 166.292893,433.707107 L166.292893,433.707107 L169.585,437 L166.292893,440.292893 L166.209705,440.387101 C165.90468,440.779392 165.932409,441.346623 166.292893,441.707107 L166.292893,441.707107 L166.387101,441.790295 C166.779392,442.09532 167.346623,442.067591 167.707107,441.707107 L167.707107,441.707107 L171,438.415 L174.292893,441.707107 C174.683418,442.097631 175.316582,442.097631 175.707107,441.707107 C176.097631,441.316582 176.097631,440.683418 175.707107,440.292893 L175.707107,440.292893 L172.415,437 L175.707107,433.707107 L175.790295,433.612899 C176.09532,433.220608 176.067591,432.653377 175.707107,432.292893 L175.707107,432.292893 L175.612899,432.209705 C175.220608,431.90468 174.653377,431.932409 174.292893,432.292893 L174.292893,432.292893 L171,435.585 Z"></path>
        </g>
    </g>
</svg>