<?xml version="1.0" encoding="UTF-8"?>
<svg width="24px" height="24px" viewBox="0 0 24 24" version="1.1" xmlns="http://www.w3.org/2000/svg" xmlns:xlink="http://www.w3.org/1999/xlink">
    <title>WA-NewsBar-Close</title>
    <g id="Button-States" stroke="none" stroke-width="1" fill="none" fill-rule="evenodd">
        <g transform="translate(-180.000000, -267.000000)" fill="#ECE5DD" id="WA-NewsBar-Close">
            <path d="M192,267 C198.627417,267 204,272.372583 204,279 C204,285.627417 198.627417,291 192,291 C185.372583,291 180,285.627417 180,279 C180,272.372583 185.372583,267 192,267 Z M188.707107,274.292893 C188.316582,273.902369 187.683418,273.902369 187.292893,274.292893 C186.902369,274.683418 186.902369,275.316582 187.292893,275.707107 L187.292893,275.707107 L190.585,279 L187.292893,282.292893 L187.209705,282.387101 C186.90468,282.779392 186.932409,283.346623 187.292893,283.707107 L187.292893,283.707107 L187.387101,283.790295 C187.779392,284.09532 188.346623,284.067591 188.707107,283.707107 L188.707107,283.707107 L192,280.415 L195.292893,283.707107 C195.683418,284.097631 196.316582,284.097631 196.707107,283.707107 C197.097631,283.316582 197.097631,282.683418 196.707107,282.292893 L196.707107,282.292893 L193.415,279 L196.707107,275.707107 L196.790295,275.612899 C197.09532,275.220608 197.067591,274.653377 196.707107,274.292893 L196.707107,274.292893 L196.612899,274.209705 C196.220608,273.90468 195.653377,273.932409 195.292893,274.292893 L195.292893,274.292893 L192,277.585 Z"></path>
        </g>
    </g>
</svg>