<svg xmlns="http://www.w3.org/2000/svg" viewBox="0 0 43 43"><defs><style>.cls-1{fill:#fff;}</style></defs><g id="Layer_1" data-name="Layer 1"><path class="cls-1" d="M12.79,33H.48V10H12.79ZM2.48,31h8.31V12H2.48Z"/><polygon class="cls-1" points="27.03 40.9 11.45 32.84 12.37 31.07 25.03 37.61 25.03 5.39 12.37 11.93 11.45 10.15 27.03 2.1 27.03 40.9"/><path class="cls-1" d="M32,29.38,30.56,28a9.17,9.17,0,0,0,0-12.94L32,13.62A11.15,11.15,0,0,1,32,29.38Z"/><path class="cls-1" d="M36.34,36.41,34.92,35a19.07,19.07,0,0,0,0-27l1.42-1.41a21.08,21.08,0,0,1,0,29.82Z"/></g></svg>