<svg xmlns="http://www.w3.org/2000/svg" viewBox="0 0 43 43"><defs><style>.cls-1{fill:#fff;}</style></defs><g id="Layer_1" data-name="Layer 1"><path class="cls-1" d="M.87,40.9v-35L15.11,2.35l.43.31a1.09,1.09,0,0,1,.41.85v33.6Zm2-33.41V38.33L14,35.55V4.7Z"/><path class="cls-1" d="M27.88,40.65,27.07,40l0-.54V5.89L42.13,2.1v35Zm1.17-33.2V38.3l11.08-2.79V4.67Z"/><path class="cls-1" d="M28.24,40.68l-.51-.11L14,37.11V3l.41-.37a1,1,0,0,1,.9-.19L29,5.93V40ZM16,35.55,27,38.33V7.49L16,4.7Z"/><path class="cls-1" d="M3.48,20.43V8.71l9.77-2.46V18Zm2-10.16v7.6l5.77-1.45V8.82Z"/><polygon class="cls-1" points="3.79 24.62 3.79 22.97 12.89 20.6 12.89 22.25 3.79 24.62"/><polygon class="cls-1" points="3.79 28.37 3.79 26.72 12.89 24.35 12.89 26 3.79 28.37"/><polygon class="cls-1" points="3.79 32.12 3.79 30.47 12.89 28.1 12.89 29.75 3.79 32.12"/><polygon class="cls-1" points="3.79 35.87 3.79 34.21 12.89 31.84 12.89 33.5 3.79 35.87"/><polygon class="cls-1" points="29.96 24.07 29.96 22.42 39.06 20.05 39.06 21.7 29.96 24.07"/><polygon class="cls-1" points="29.96 27.82 29.96 26.17 39.06 23.8 39.06 25.45 29.96 27.82"/><polygon class="cls-1" points="29.96 31.57 29.96 29.91 39.06 27.55 39.06 29.2 29.96 31.57"/><polygon class="cls-1" points="29.96 35.32 29.96 33.66 39.06 31.29 39.06 32.95 29.96 35.32"/><polygon class="cls-1" points="26.02 20.1 26.02 18.45 16.98 16.08 16.98 17.73 26.02 20.1"/><polygon class="cls-1" points="26.02 15.35 26.02 13.69 16.98 11.32 16.98 12.97 26.02 15.35"/><polygon class="cls-1" points="26.02 10.59 26.02 8.93 16.98 6.56 16.98 8.22 26.02 10.59"/><path class="cls-1" d="M29.71,20.43V8.71l9.77-2.46V18Zm2-10.16v7.6l5.77-1.45V8.82Z"/><path class="cls-1" d="M26.39,37l-9.77-2.46V21.16l9.77,2.46Zm-7.77-4,5.77,1.45V25.18l-5.77-1.45Z"/></g></svg>