<svg xmlns="http://www.w3.org/2000/svg" viewBox="0 0 43 43"><defs><style>.cls-1{fill:#fff;}</style></defs><g id="Layer_1" data-name="Layer 1"><path class="cls-1" d="M39.12,41.92a3.73,3.73,0,0,1-1.18-.19,3.67,3.67,0,0,1-2.18-1.89l-2.68-5.49,1.8-.88L37.55,39a1.73,1.73,0,0,0,1,.87,1.76,1.76,0,0,0,2.12-2.46L38,31.85,39.8,31l2.69,5.52a3.77,3.77,0,0,1-1.67,5A3.61,3.61,0,0,1,39.12,41.92Z"/><path class="cls-1" d="M31.48,35a11.13,11.13,0,1,1,5-1.21A11.13,11.13,0,0,1,31.48,35Zm0-20.25a9.14,9.14,0,1,0,2.83.45A9.11,9.11,0,0,0,31.46,14.72Z"/><path class="cls-1" d="M38,24.25l-2-.17a4.73,4.73,0,0,0-2.43-4.53,4.66,4.66,0,0,0-3-.52l-.31-2A6.72,6.72,0,0,1,38,24.25Z"/><rect class="cls-1" x="34.73" y="10.29" width="2" height="4.58"/><polygon class="cls-1" points="28.26 34.42 2 34.42 2 10.56 4 10.56 4 32.42 28.26 32.42 28.26 34.42"/><path class="cls-1" d="M33.8,11.74A4.61,4.61,0,0,1,30.17,10a4.62,4.62,0,0,1-7.26,0,4.62,4.62,0,0,1-7.26,0,4.63,4.63,0,0,1-7.27,0,4.6,4.6,0,0,1-3.63,1.76A4.7,4.7,0,0,1,.13,7.83l0-.3L3.21.61H35.35l3.12,6.92,0,.3A4.69,4.69,0,0,1,33.8,11.74ZM29.26,6.67H31l.25.85A2.61,2.61,0,0,0,33.8,9.74a2.69,2.69,0,0,0,2.59-1.95L34.06,2.61H4.5L2.17,7.79a2.68,2.68,0,0,0,2.58,2A2.62,2.62,0,0,0,7.34,7.52l.13-.85H9.18l.25.85a2.62,2.62,0,0,0,5.17,0l.13-.85h1.71l.25.85a2.62,2.62,0,0,0,5.17,0L22,6.67h1.71l.24.85a2.62,2.62,0,0,0,5.18,0Z"/><path class="cls-1" d="M16.65,34.42H5.7V14.08h11Zm-8.95-2h7V16.08H7.7Z"/><polygon class="cls-1" points="21.43 28.16 17.73 28.16 17.73 14.08 26.55 14.08 26.55 16.08 19.73 16.08 19.73 26.16 21.43 26.16 21.43 28.16"/><rect class="cls-1" x="13.06" y="23.99" width="2" height="1.77"/><polygon class="cls-1" points="34.98 31.31 23.68 31.31 23.68 29.31 32.98 29.31 32.98 14.15 34.98 14.15 34.98 31.31"/><polygon class="cls-1" points="29.71 25.17 21.38 25.17 21.38 23.17 27.71 23.17 27.71 14.39 29.71 14.39 29.71 25.17"/></g></svg>