<svg xmlns="http://www.w3.org/2000/svg" viewBox="0 0 43 43"><defs><style>.cls-1{fill:#fff;}</style></defs><g id="Layer_1" data-name="Layer 1"><path class="cls-1" d="M37,42.37h-.28a4.92,4.92,0,0,1-3.42-1.66L24.68,31l1.49-1.33,8.63,9.69a3,3,0,0,0,4.18.24,3,3,0,0,0,.23-4.16l-8.65-9.74,1.49-1.33,8.66,9.74a5,5,0,0,1-.39,7A4.89,4.89,0,0,1,37,42.37Z"/><path class="cls-1" d="M17.33,33.65a16.44,16.44,0,1,1,13-26.56h0a16.44,16.44,0,0,1-13,26.56Zm0-30.88A14.44,14.44,0,1,0,28.7,8.32,14.33,14.33,0,0,0,17.3,2.77Z"/><path class="cls-1" d="M24.72,16.17A7.73,7.73,0,0,0,19.4,9.65a7.63,7.63,0,0,0-5,.1l-.69-1.88A9.59,9.59,0,0,1,20,7.75,9.7,9.7,0,0,1,26.71,16Z"/></g></svg>