<svg xmlns="http://www.w3.org/2000/svg" viewBox="0 0 43 43"><defs><style>.cls-1{fill:#fff;}</style></defs><g id="Layer_1" data-name="Layer 1"><path class="cls-1" d="M5.08,15.85,2.82,9.63,32.43,0l2.26,6.22Zm.33-5,.89,2.46L32.1,5l-.89-2.46Z"/><rect class="cls-1" x="7.93" y="9.52" width="6.4" height="2" transform="translate(-3.11 16.16) rotate(-64.99)"/><rect class="cls-1" x="15.32" y="6.94" width="6.4" height="2" transform="translate(3.49 21.37) rotate(-64.99)"/><rect class="cls-1" x="22.72" y="4.84" width="6.4" height="2" transform="translate(9.66 26.86) rotate(-64.99)"/><polygon class="cls-1" points="31.22 39.87 4.71 39.87 4.71 13.52 34.1 13.52 34.1 33.38 32.1 33.38 32.1 15.52 6.71 15.52 6.71 37.87 31.22 37.87 31.22 39.87"/><path class="cls-1" d="M36.27,42.89A3.51,3.51,0,0,1,34,42.1l-9.17-7.37,1.25-1.56,9.17,7.37a1.56,1.56,0,0,0,1.18.33,1.6,1.6,0,0,0,1.08-.6A1.61,1.61,0,0,0,37.28,38l-9.2-7.39,1.25-1.56,9.2,7.39a3.61,3.61,0,0,1,.59,5,3.54,3.54,0,0,1-2.41,1.36A3.25,3.25,0,0,1,36.27,42.89Z"/><path class="cls-1" d="M19.91,37.13l-.63,0a10.56,10.56,0,1,1,8.5-17.55h0a10.56,10.56,0,0,1-7.87,17.57Zm0-19.12a8.48,8.48,0,0,0-5.67,2.17,8.57,8.57,0,0,0-.71,12.08A8.57,8.57,0,0,0,25.58,33a8.57,8.57,0,0,0,.71-12.08h0A8.48,8.48,0,0,0,20.4,18Z"/><path class="cls-1" d="M24.62,23.71a6,6,0,0,0-3.8-2.91c-.23-.05-.46-.1-.68-.13l.26-2c.3,0,.6.1.9.17a8.07,8.07,0,0,1,5.06,3.87Z"/><path class="cls-1" d="M16.56,32.11V21.28l9.38,5.42Zm2-7.36v3.9l3.38-1.95Z"/></g></svg>