<svg xmlns="http://www.w3.org/2000/svg" viewBox="0 0 43 43"><defs><style>.cls-1{fill:#fff;}</style></defs><g id="Layer_1" data-name="Layer 1"><path class="cls-1" d="M32.63,7.53H10.37V.36H32.63Zm-20.26-2H30.63V2.36H12.37Z"/><path class="cls-1" d="M37.79,31.16H5.21V27.28a6.43,6.43,0,0,1,6.42-6.42H31.37a6.43,6.43,0,0,1,6.42,6.42Zm-30.58-2H35.79V27.28a4.42,4.42,0,0,0-4.42-4.42H11.63a4.42,4.42,0,0,0-4.42,4.42Z"/><polygon class="cls-1" points="30.38 21.37 26.87 7.53 16.11 7.53 12.62 21.37 10.68 20.88 14.55 5.53 28.43 5.53 32.32 20.88 30.38 21.37"/><polygon class="cls-1" points="21.66 42.64 17.98 37.71 17.98 31.17 19.98 31.17 19.98 37.05 21.58 39.2 23.02 37.07 23.02 31.17 25.02 31.17 25.02 37.69 21.66 42.64"/></g></svg>