<svg xmlns="http://www.w3.org/2000/svg" viewBox="0 0 43 43"><defs><style>.cls-1{fill:#fff;}</style></defs><g id="Layer_1" data-name="Layer 1"><polygon class="cls-1" points="6.05 39.79 6.05 31.93 0.74 31.93 0.74 3.29 35.37 3.29 35.37 22.76 33.37 22.76 33.37 5.29 2.74 5.29 2.74 29.93 8.05 29.93 8.05 35.62 15.13 29.93 25.24 29.93 25.24 31.93 15.83 31.93 6.05 39.79"/><rect class="cls-1" x="7.57" y="9.75" width="21.45" height="2"/><rect class="cls-1" x="7.57" y="14.46" width="16.43" height="2"/><rect class="cls-1" x="7.57" y="23.89" width="16.43" height="2"/><rect class="cls-1" x="7.57" y="19.18" width="21.45" height="2"/><path class="cls-1" d="M32.38,38.26a8.19,8.19,0,1,1,8.19-8.19A8.2,8.2,0,0,1,32.38,38.26Zm0-14.38a6.19,6.19,0,1,0,6.19,6.19A6.19,6.19,0,0,0,32.38,23.88Z"/><polygon class="cls-1" points="32.39 33.63 27.31 28.55 28.73 27.14 32.39 30.8 41.76 21.44 43.17 22.85 32.39 33.63"/></g></svg>