<svg xmlns="http://www.w3.org/2000/svg" viewBox="0 0 43 43"><defs><style>.cls-1{fill:#fff;}</style></defs><g id="Layer_1" data-name="Layer 1"><path class="cls-1" d="M11.17,15.67a7.61,7.61,0,1,1,7.6-7.6A7.62,7.62,0,0,1,11.17,15.67Zm0-13.21a5.61,5.61,0,1,0,5.6,5.61A5.62,5.62,0,0,0,11.17,2.46Z"/><path class="cls-1" d="M21.13,42.54H1.2V25.66a10,10,0,0,1,10-10c5.31,0,10,5,10,10.63h-2c0-4.6-3.72-8.63-8-8.63a8,8,0,0,0-8,8V40.54H19.13V34.66h2Z"/><path class="cls-1" d="M19.47,35.74A6.11,6.11,0,0,1,15.14,34L8.46,27.27l1.42-1.41,6.68,6.68a4.13,4.13,0,0,0,5.82,0l1.31-1.31L29.64,25a2.51,2.51,0,0,0,.69-1.75l2,0a4.45,4.45,0,0,1-1.25,3.15L23.79,34A6.1,6.1,0,0,1,19.47,35.74Z"/><polygon class="cls-1" points="19.48 28.44 14 22.96 15.42 21.55 19.45 25.58 24.61 20.2 26.05 21.58 19.48 28.44"/><path class="cls-1" d="M38.31,30.34a3.35,3.35,0,0,1-1.08-.18,3.45,3.45,0,0,1-2-1.73l-2.85-5.59,1.78-.91L37,27.52a1.43,1.43,0,0,0,.86.74,1.48,1.48,0,0,0,1.78-2.08l-2.86-5.59,1.78-.91,2.86,5.59A3.49,3.49,0,0,1,39.89,30,3.53,3.53,0,0,1,38.31,30.34Z"/><path class="cls-1" d="M31.41,23.75a10.25,10.25,0,0,1-3.23-.52A10.4,10.4,0,1,1,40.67,8.63h0a10.41,10.41,0,0,1-9.26,15.12Zm0-18.8A8.4,8.4,0,0,0,28.8,21.33,8.4,8.4,0,0,0,38.89,9.54,8.43,8.43,0,0,0,31.38,5Z"/><path class="cls-1" d="M33.86,13.35h-2a3,3,0,0,1,1-2.28,2,2,0,0,0,.08-3,2.09,2.09,0,0,0-1.46-.57,2,2,0,0,0-1.27,3.54,3,3,0,0,1,1,2.27h-2a1,1,0,0,0-.35-.76,4,4,0,0,1,2.53-7,4,4,0,0,1,4.12,4,4,4,0,0,1-1.38,3A1,1,0,0,0,33.86,13.35Z"/><path class="cls-1" d="M35.32,19.26l-1-1.71A5.66,5.66,0,0,0,37,13.09l2,.14A7.64,7.64,0,0,1,35.32,19.26Z"/><path class="cls-1" d="M32.54,22.6A2.63,2.63,0,0,0,29.88,20a2.65,2.65,0,0,0-1.87.81l-.72.74-1.43-1.4.72-.73A4.6,4.6,0,0,1,29.86,18a4.43,4.43,0,0,1,3.32,1.36,4.59,4.59,0,0,1,1.36,3.22Z"/><rect class="cls-1" x="28.89" y="13.67" width="5.38" height="2"/><rect class="cls-1" x="30.06" y="14.78" width="3.05" height="2"/></g></svg>