<svg xmlns="http://www.w3.org/2000/svg" viewBox="0 0 43 43"><defs><style>.cls-1{fill:#fff;}</style></defs><g id="Layer_1" data-name="Layer 1"><path class="cls-1" d="M38.27,42.54a4.07,4.07,0,0,1-1.24-.2,3.93,3.93,0,0,1-2.29-2l-4.3-8.61,1.79-.89,4.3,8.61a1.93,1.93,0,0,0,2.61.85A1.94,1.94,0,0,0,40,37.74L35.66,29.1l1.79-.9,4.33,8.64a3.94,3.94,0,0,1-3.51,5.7Z"/><path class="cls-1" d="M29.08,32.15a11.77,11.77,0,0,1-10.49-6.43,11.76,11.76,0,0,1,21-10.66h0A11.76,11.76,0,0,1,29.08,32.15Zm0-21.52A9.76,9.76,0,1,0,37.77,16h0a9.7,9.7,0,0,0-5.68-4.85A9.56,9.56,0,0,0,29.06,10.63Z"/><path class="cls-1" d="M34.72,19.54a5.05,5.05,0,0,0-2.62-4,5,5,0,0,0-3.21-.56l-.31-2a7.08,7.08,0,0,1,8.13,6.43Z"/><path class="cls-1" d="M17.76,19.53a5.71,5.71,0,1,1,5.08-8.9l-1.66,1.12a3.71,3.71,0,1,0-3.3,5.78Z"/><path class="cls-1" d="M9.5,27.73l-1.95-.45A10.67,10.67,0,0,1,18,19v2A8.67,8.67,0,0,0,9.5,27.73Z"/><polygon class="cls-1" points="20.85 28.19 1.7 28.19 1.7 7.13 3.7 7.13 3.7 26.19 20.85 26.19 20.85 28.19"/><rect class="cls-1" x="30.33" y="7.19" width="2" height="2.51"/><polygon class="cls-1" points="32.33 37.2 1.7 37.2 1.7 26.78 3.7 26.78 3.7 35.2 30.33 35.2 30.33 30.82 32.33 30.82 32.33 37.2"/><path class="cls-1" d="M28.91,25.46c-1-3.71-5.2-6.19-8.44-6.35l-.54,0a7.06,7.06,0,0,0-1.29,0l-.27-2a8.13,8.13,0,0,1,1.71,0l.49,0c4,.21,9,3.18,10.27,7.81Z"/><polygon class="cls-1" points="34.19 26.33 19.62 26.33 19.62 24.33 32.19 24.33 32.19 10.33 34.19 10.33 34.19 26.33"/><rect class="cls-1" x="32.19" y="24.92" width="2" height="5.23"/><path class="cls-1" d="M29.59,8.66A4.07,4.07,0,0,1,26.5,7.25a4.08,4.08,0,0,1-6.17,0,4.09,4.09,0,0,1-6.18,0A4.08,4.08,0,0,1,8,7.25,4.07,4.07,0,0,1,4.89,8.66,4.14,4.14,0,0,1,.82,5.21V.46H33.68l0,4.75A4.14,4.14,0,0,1,29.59,8.66Zm-4-4.61h1.71l.23.85a2.07,2.07,0,0,0,2.05,1.76A2.13,2.13,0,0,0,31.68,5V2.46H2.81V5A2.12,2.12,0,0,0,4.89,6.66,2.07,2.07,0,0,0,6.94,4.9l.14-.85h1.7L9,4.9a2.07,2.07,0,0,0,4.1,0l.13-.85H15l.23.85a2.07,2.07,0,0,0,4.1,0l.13-.85h1.71l.23.85a2.08,2.08,0,0,0,4.11,0Z"/><path class="cls-1" d="M20.46,17.51a5.87,5.87,0,0,1-1.67-.25l.58-1.91a4,4,0,0,0,1.09.16,3.81,3.81,0,0,0,3.8-3.81,3.54,3.54,0,0,0-.17-1.12L26,10a5.56,5.56,0,0,1,.26,1.72A5.81,5.81,0,0,1,20.46,17.51Z"/></g></svg>