<svg xmlns="http://www.w3.org/2000/svg" viewBox="0 0 43 43"><defs><style>.cls-1{fill:#fff;}</style></defs><g id="Layer_1" data-name="Layer 1"><path class="cls-1" d="M7.62,15.73A6.68,6.68,0,1,1,14.3,9.06,6.67,6.67,0,0,1,7.62,15.73Zm0-11.35A4.68,4.68,0,1,0,12.3,9.06,4.68,4.68,0,0,0,7.62,4.38Z"/><rect class="cls-1" x="2.58" y="17.77" width="10.09" height="2"/><rect class="cls-1" x="2.58" y="39.22" width="10.09" height="2"/><rect class="cls-1" x="18.35" y="20.15" width="23.5" height="2"/><rect class="cls-1" x="18.35" y="24.91" width="19.69" height="2"/><rect class="cls-1" x="18.35" y="29.68" width="23.5" height="2"/><rect class="cls-1" x="18.35" y="34.45" width="19.69" height="2"/><rect class="cls-1" x="18.35" y="39.22" width="23.5" height="2"/><path class="cls-1" d="M42.65,16.61H18.12L27.89,6.13l5,5.26,2.43-2.57Zm-19.93-2H38l-2.72-2.88L32.86,14.3l-5-5.25Z"/><path class="cls-1" d="M34.58,7.38a2.75,2.75,0,1,1,2.75-2.75A2.75,2.75,0,0,1,34.58,7.38Zm0-3.5a.75.75,0,1,0,.75.75A.75.75,0,0,0,34.58,3.88Z"/><path class="cls-1" d="M7.62,37.18A6.68,6.68,0,1,1,14.3,30.5,6.68,6.68,0,0,1,7.62,37.18Zm0-11.35A4.68,4.68,0,1,0,12.3,30.5,4.68,4.68,0,0,0,7.62,25.83Z"/></g></svg>