<svg xmlns="http://www.w3.org/2000/svg" viewBox="0 0 43 43"><defs><style>.cls-1{fill:#fff;}</style></defs><g id="Layer_1" data-name="Layer 1"><path class="cls-1" d="M19.66,14.8a1,1,0,0,1-.49-.12L2.38,5.35a1,1,0,0,1-.49-1.08,1,1,0,0,1,.89-.79L23.58,1.8a.93.93,0,0,1,.54.11l18.05,9.41a1,1,0,0,1,.51,1.09,1,1,0,0,1-.91.79l-22,1.6ZM6.24,5.21l13.64,7.57,18.24-1.32L23.45,3.81Z"/><path class="cls-1" d="M19.22,23.34c-1.64-1.36-2-4-1.9-6s.92-3.72,2-4.39l1,1.72a4,4,0,0,0-1.05,2.83c-.15,1.87.33,3.6,1.18,4.31Z"/><path class="cls-1" d="M19.66,23.57a1,1,0,0,1-.49-.12C2.26,14.06,2.26,14.06,2.16,14,.59,12.66.17,10,.33,8s.91-3.73,2-4.39l1,1.72A4,4,0,0,0,2.32,8.17c-.14,1.82.31,3.52,1.12,4.26l16.44,9.12,20-1.44a9.1,9.1,0,0,1-.66-4.33c.16-2.09.91-3.73,2-4.39l1,1.71a4,4,0,0,0-1.06,2.84,5.75,5.75,0,0,0,1,4.16.9.9,0,0,1,.19.15,1,1,0,0,1,.32.73,1,1,0,0,1-.57.92,1,1,0,0,1-.6.09l-21.8,1.58Z"/><path class="cls-1" d="M19.22,32.16c-1.64-1.36-2-4-1.9-6s.92-3.73,2-4.39l1,1.72a4,4,0,0,0-1.05,2.83c-.15,1.87.33,3.6,1.18,4.31Z"/><path class="cls-1" d="M19.66,32.39a1,1,0,0,1-.49-.13c-16.91-9.38-16.91-9.38-17-9.49C.59,21.48.17,18.84.33,16.83s.91-3.73,2-4.39l1,1.71A4,4,0,0,0,2.32,17c-.14,1.82.31,3.51,1.12,4.25l16.44,9.13,20-1.44a9.1,9.1,0,0,1-.66-4.33c.16-2.09.91-3.73,2-4.39l1,1.71a4,4,0,0,0-1.06,2.83,5.76,5.76,0,0,0,1,4.17,1.33,1.33,0,0,1,.19.14,1,1,0,0,1,.32.74,1,1,0,0,1-.57.92,1,1,0,0,1-.6.09l-21.8,1.58Z"/><path class="cls-1" d="M19.22,41c-1.64-1.36-2-4-1.9-6s.92-3.73,2-4.39l1,1.71a4,4,0,0,0-1.05,2.83c-.15,1.88.33,3.61,1.18,4.32Z"/><path class="cls-1" d="M19.66,41.21a1.05,1.05,0,0,1-.49-.13c-16.91-9.39-16.91-9.39-17-9.49-1.57-1.3-2-3.93-1.83-5.94s.91-3.73,2-4.39l1,1.71A4,4,0,0,0,2.32,25.8c-.14,1.83.31,3.52,1.12,4.26l16.44,9.13,20-1.44a9.1,9.1,0,0,1-.66-4.33c.16-2.09.91-3.73,2-4.4l1,1.72a4,4,0,0,0-1.06,2.83,5.78,5.78,0,0,0,1,4.17,1.33,1.33,0,0,1,.19.14,1,1,0,0,1,.32.73,1,1,0,0,1-1.17,1l-21.8,1.58Z"/><path class="cls-1" d="M7.2,16.76c-1.63-1.35-2-3.94-1.9-5.93s.92-3.7,2-4.35l1,1.72a4,4,0,0,0-1,2.79c-.14,1.83.33,3.53,1.18,4.22Z"/><path class="cls-1" d="M14.08,29.3c-2-3.07-.21-7.83,1.1-9.1l1.4,1.42c-.64.63-2.24,4.38-.82,6.6Z"/><path class="cls-1" d="M10.06,26.77c-.7-4.37,1-7.36,2-8.33l1.4,1.43c-.55.54-2,2.91-1.41,6.58Z"/><path class="cls-1" d="M6.41,34c-1.88-1.57-2.93-5.4-2.73-8,.14-1.85.87-2.65,1.45-3l1,1.72c-.15.08-.42.48-.49,1.44-.17,2.22.81,5.28,2,6.29Z"/></g></svg>