<svg xmlns="http://www.w3.org/2000/svg" viewBox="0 0 43 43"><defs><style>.cls-1{fill:#fff;}</style></defs><g id="Layer_1" data-name="Layer 1"><rect class="cls-1" x="17.91" y="19.87" width="2" height="5.52" transform="translate(-10.08 17.23) rotate(-39.57)"/><rect class="cls-1" x="20.65" y="17.74" width="2" height="5.2" transform="translate(-8 18.54) rotate(-39.74)"/><path class="cls-1" d="M13.82,22.85A10.57,10.57,0,1,1,23.23,7.48h0A10.59,10.59,0,0,1,18.59,21.7,10.47,10.47,0,0,1,13.82,22.85Zm0-19.15a8.58,8.58,0,1,0,7.66,4.69h0A8.57,8.57,0,0,0,13.78,3.7Z"/><path class="cls-1" d="M19.89,11.79l-2-.17a4,4,0,0,0-2.06-3.84,4,4,0,0,0-2.53-.44l-.31-2A5.92,5.92,0,0,1,16.8,6,6,6,0,0,1,19.89,11.79Z"/><rect class="cls-1" x="4.35" y="10.88" width="9.45" height="2"/><rect class="cls-1" x="5.7" y="15.29" width="9.97" height="2"/><rect class="cls-1" x="0.19" y="9.67" width="4.03" height="2"/><rect class="cls-1" x="0.19" y="13.06" width="4.55" height="2"/><path class="cls-1" d="M35.62,39.91A8.09,8.09,0,0,1,29.39,37l-9-10.56A3.1,3.1,0,0,1,23,21.34h0l-.65-.81h0a5.33,5.33,0,0,1,2.15-1.08,5.76,5.76,0,0,1,5,1,5.13,5.13,0,0,0,2.3,1,6.9,6.9,0,0,1,4.32,2.47l5.76,7.27a4.66,4.66,0,0,1-.67,6.44l-.48.4A8,8,0,0,1,35.62,39.91ZM22.77,23.33a1.09,1.09,0,0,0-.71.26,1.08,1.08,0,0,0-.38.75,1,1,0,0,0,.25.79l9,10.57a6.09,6.09,0,0,0,8.57.81l.49-.4a2.65,2.65,0,0,0,.38-3.66L34.6,25.18a5,5,0,0,0-3.09-1.74A7.19,7.19,0,0,1,28.31,22,3.75,3.75,0,0,0,25,21.39a3,3,0,0,0-.78.31,3.1,3.1,0,0,1,.89.73l3.77,4.46-1.53,1.29L23.6,23.72a1.05,1.05,0,0,0-.74-.38Z"/><path class="cls-1" d="M18.58,30.59h-.25a2.89,2.89,0,0,1-1.62-5.08l2.44-2.07L20.44,25,18,27a.89.89,0,0,0-.1,1.25.86.86,0,0,0,.6.31.88.88,0,0,0,.64-.2l2.39-2,1.28,1.54-2.38,2A2.85,2.85,0,0,1,18.58,30.59Z"/><path class="cls-1" d="M22.73,33.75a2.49,2.49,0,0,1-1.91-.9,2.83,2.83,0,0,1-.59-2.54l.09-.22,1.53-2.88,1.77.94L22.15,30.9a.85.85,0,0,0,.19.65.54.54,0,0,0,.43.2l3.88-.42.21,2L23,33.74Z"/><path class="cls-1" d="M25.08,37.18a2.68,2.68,0,0,1-2.71-3.27l0-.18.89-1.49,1.72,1-.69,1.16a.78.78,0,0,0,.15.53.74.74,0,0,0,.55.23l4-.76.37,2-4.23.79Z"/><path class="cls-1" d="M28,40.23a2.78,2.78,0,0,1-2.13-.94A2.81,2.81,0,0,1,25.29,37l.32-1.64,2,.39-.31,1.62a.8.8,0,0,0,.14.67.74.74,0,0,0,.51.23l3.88-1.16L32.36,39l-4.3,1.24Z"/></g></svg>