<svg xmlns="http://www.w3.org/2000/svg" viewBox="0 0 43 43"><defs><style>.cls-1{fill:#fff;}</style></defs><g id="Layer_1" data-name="Layer 1"><polygon class="cls-1" points="38.34 41.93 4.64 41.93 4.64 1.08 31.44 1.08 31.44 3.08 6.64 3.08 6.64 39.93 36.34 39.93 36.34 8.04 38.34 8.04 38.34 41.93"/><path class="cls-1" d="M37.29,9.13h-7V1.47L31,1.15a1.06,1.06,0,0,1,1.17.23l6.39,6.4-.23.69A1.08,1.08,0,0,1,37.29,9.13Zm-.67-.41h0ZM32.29,7.13H35L32.29,4.38Z"/><rect class="cls-1" x="11.05" y="6.06" width="17.59" height="2"/><rect class="cls-1" x="11.05" y="27.15" width="20.24" height="2"/><rect class="cls-1" x="11.05" y="31.13" width="18.89" height="2"/><rect class="cls-1" x="11.05" y="35.12" width="20.24" height="2"/><path class="cls-1" d="M30.11,25H10.89V15.18H30.11ZM12.89,23H28.11V17.18H12.89Z"/><rect class="cls-1" x="19.5" y="10.64" width="2" height="18.92" transform="translate(-6.29 30.43) rotate(-65.52)"/><rect class="cls-1" x="11.04" y="19.1" width="18.92" height="2" transform="translate(-6.48 10.29) rotate(-24.46)"/><rect class="cls-1" x="5.64" y="10.74" width="31.68" height="2"/></g></svg>