<svg xmlns="http://www.w3.org/2000/svg" viewBox="0 0 43 43"><defs><style>.cls-1{fill:#fff;}</style></defs><g id="Layer_1" data-name="Layer 1"><path class="cls-1" d="M40,32.62H3V4.53H40Zm-35-2H38V6.53H5Z"/><rect class="cls-1" x="0.52" y="4.53" width="41.95" height="2"/><rect class="cls-1" x="0.52" y="30.62" width="41.95" height="2"/><polygon class="cls-1" points="15.04 26.47 13.04 26.47 13.04 18.97 10.52 18.97 10.52 26.47 8.52 26.47 8.52 16.97 15.04 16.97 15.04 26.47"/><polygon class="cls-1" points="24.76 26.47 22.76 26.47 22.76 15.36 20.24 15.36 20.24 26.47 18.24 26.47 18.24 13.36 24.76 13.36 24.76 26.47"/><polygon class="cls-1" points="34.48 26.47 32.48 26.47 32.48 11.75 29.96 11.75 29.96 26.47 27.96 26.47 27.96 9.75 34.48 9.75 34.48 26.47"/><rect class="cls-1" x="20.5" y="1.84" width="2" height="3.56"/><rect class="cls-1" x="20.5" y="32.06" width="2" height="6.22"/><rect class="cls-1" x="10.17" y="35.61" width="13.01" height="2" transform="translate(-20.84 22.09) rotate(-44.35)"/><rect class="cls-1" x="25.33" y="30.11" width="2" height="13.01" transform="translate(-18.26 29.85) rotate(-45.65)"/></g></svg>