<svg xmlns="http://www.w3.org/2000/svg" viewBox="0 0 43 43"><defs><style>.cls-1{fill:#fff;}</style></defs><g id="Layer_1" data-name="Layer 1"><rect class="cls-1" x="20.5" y="1.84" width="2" height="3.56"/><rect class="cls-1" x="20.5" y="32.06" width="2" height="6.22"/><rect class="cls-1" x="10.17" y="35.61" width="13.01" height="2" transform="translate(-20.84 22.09) rotate(-44.35)"/><rect class="cls-1" x="25.33" y="30.11" width="2" height="13.01" transform="translate(-18.26 29.85) rotate(-45.65)"/><rect class="cls-1" x="22.48" y="17.51" width="10.73" height="2"/><rect class="cls-1" x="22.48" y="13.85" width="10.73" height="2"/><rect class="cls-1" x="22.48" y="21.18" width="10.73" height="2"/><path class="cls-1" d="M20.4,24.1H8.79V12.93H20.4Zm-9.61-2H18.4V14.93H10.79Z"/><rect class="cls-1" x="7.95" y="17.51" width="13.28" height="2" transform="translate(-8.74 15.2) rotate(-43.65)"/><rect class="cls-1" x="13.6" y="11.87" width="2" height="13.28" transform="translate(-8.88 16.3) rotate(-46.37)"/><rect class="cls-1" x="0.52" y="4.6" width="41.95" height="2"/><rect class="cls-1" x="0.52" y="30.68" width="41.95" height="2"/><rect class="cls-1" x="3.02" y="8.22" width="1.95" height="1.95"/><rect class="cls-1" x="3.02" y="12" width="1.95" height="1.95"/><rect class="cls-1" x="3.02" y="15.77" width="1.95" height="1.95"/><rect class="cls-1" x="3.02" y="19.55" width="1.95" height="1.95"/><rect class="cls-1" x="3.02" y="23.33" width="1.95" height="1.95"/><rect class="cls-1" x="3.02" y="27.11" width="1.95" height="1.95"/><rect class="cls-1" x="38.04" y="8.22" width="1.95" height="1.95"/><rect class="cls-1" x="38.04" y="12" width="1.95" height="1.95"/><rect class="cls-1" x="38.04" y="15.77" width="1.95" height="1.95"/><rect class="cls-1" x="38.04" y="19.55" width="1.95" height="1.95"/><rect class="cls-1" x="38.04" y="23.33" width="1.95" height="1.95"/><rect class="cls-1" x="38.04" y="27.11" width="1.95" height="1.95"/><rect class="cls-1" x="25.95" y="8.22" width="1.95" height="1.95" transform="translate(36.11 -17.73) rotate(90)"/><rect class="cls-1" x="22.07" y="8.22" width="1.95" height="1.95" transform="translate(32.24 -13.85) rotate(90)"/><rect class="cls-1" x="18.2" y="8.22" width="1.95" height="1.95" transform="translate(28.36 -9.98) rotate(90)"/><rect class="cls-1" x="33.7" y="8.22" width="1.95" height="1.95" transform="translate(43.87 -25.48) rotate(90)"/><rect class="cls-1" x="29.82" y="8.22" width="1.95" height="1.95" transform="translate(39.99 -21.61) rotate(90)"/><rect class="cls-1" x="14.32" y="8.22" width="1.95" height="1.95" transform="translate(24.49 -6.1) rotate(90)"/><rect class="cls-1" x="10.44" y="8.22" width="1.95" height="1.95" transform="translate(20.61 -2.22) rotate(90)"/><rect class="cls-1" x="6.57" y="8.22" width="1.95" height="1.95" transform="translate(16.73 1.65) rotate(90)"/><rect class="cls-1" x="25.95" y="27.17" width="1.95" height="1.95" transform="translate(55.06 1.22) rotate(90)"/><rect class="cls-1" x="22.07" y="27.17" width="1.95" height="1.95" transform="translate(51.19 5.1) rotate(90)"/><rect class="cls-1" x="18.2" y="27.17" width="1.95" height="1.95" transform="translate(47.31 8.97) rotate(90)"/><rect class="cls-1" x="33.7" y="27.17" width="1.95" height="1.95" transform="translate(62.82 -6.53) rotate(90)"/><rect class="cls-1" x="29.82" y="27.17" width="1.95" height="1.95" transform="translate(58.94 -2.66) rotate(90)"/><rect class="cls-1" x="14.32" y="27.17" width="1.95" height="1.95" transform="translate(43.44 12.85) rotate(90)"/><rect class="cls-1" x="10.44" y="27.17" width="1.95" height="1.95" transform="translate(39.56 16.73) rotate(90)"/><rect class="cls-1" x="6.57" y="27.17" width="1.95" height="1.95" transform="translate(35.68 20.6) rotate(90)"/></g></svg>