<svg xmlns="http://www.w3.org/2000/svg" viewBox="0 0 43 43"><defs><style>.cls-1{fill:#fff;}</style></defs><g id="Layer_1" data-name="Layer 1"><rect class="cls-1" x="16.6" y="39.5" width="17.66" height="2"/><rect class="cls-1" x="11.8" y="39.5" width="2.4" height="2"/><polygon class="cls-1" points="40.8 36.19 4.73 36.19 4.73 1.16 6.73 1.16 6.73 34.19 40.8 34.19 40.8 36.19"/><polygon class="cls-1" points="36.8 16.3 34.8 16.3 34.8 11.01 29.4 11.01 29.4 9.01 36.8 9.01 36.8 16.3"/><polygon class="cls-1" points="6.59 30.52 5.18 29.11 18.27 16.01 23.33 21.06 35.01 9.38 36.42 10.79 23.33 23.89 18.27 18.84 6.59 30.52"/><rect class="cls-1" x="2.2" y="3.53" width="3.43" height="2"/><rect class="cls-1" x="2.2" y="12.56" width="3.43" height="2"/><rect class="cls-1" x="2.2" y="21.58" width="3.43" height="2"/><rect class="cls-1" x="2.2" y="30.61" width="3.43" height="2"/></g></svg>