<svg xmlns="http://www.w3.org/2000/svg" viewBox="0 0 43 43"><defs><style>.cls-1{fill:#fff;}</style></defs><g id="Layer_1" data-name="Layer 1"><path class="cls-1" d="M29.45,11.53,22.74,4.08,27.25,0,34,7.47Zm-3.89-7.3,4,4.48,1.54-1.39-4-4.48Z"/><polygon class="cls-1" points="20.63 17.51 15.84 12.19 25.16 3.79 29.96 9.13 26.85 11.93 25.51 10.45 27.14 8.98 25.01 6.62 18.66 12.34 20.81 14.71 21.4 14.2 22.7 15.72 20.63 17.51"/><path class="cls-1" d="M17.39,19.09,14,15.3l4.15-3.74,3.41,3.79Zm-.59-3.64.73.81,1.18-1.05L18,14.39Z"/><path class="cls-1" d="M24.9,17.5a3.62,3.62,0,0,1-2.56-6.18,3.72,3.72,0,0,1,5.12,0,3.62,3.62,0,0,1,0,5.12h0A3.6,3.6,0,0,1,24.9,17.5Zm0-5.24a1.64,1.64,0,0,0-1.62,1.62A1.62,1.62,0,0,0,23.76,15a1.62,1.62,0,0,0,2.76-1.15,1.62,1.62,0,0,0-1.62-1.62Z"/><path class="cls-1" d="M24.26,29.23H2.89V22.91H24.26Zm-19.37-2H22.26V24.91H4.89Z"/><path class="cls-1" d="M36.69,42.57H12.94V36.15h1.9a14.26,14.26,0,0,1-4.13-7.73l-.21-1.18H16l.19.76A8.88,8.88,0,1,0,26.1,17.09l.29-2a10.88,10.88,0,1,1-12,14.13H13a12.39,12.39,0,0,0,5.31,7.06l2.94,1.85H14.94v2.42H34.69V38.15H28.37l2.95-1.85a12.3,12.3,0,0,0-4.15-22.51l.38-2a14.31,14.31,0,0,1,7.2,24.33h1.94Z"/></g></svg>