<?xml version="1.0" encoding="utf-8"?>
<!-- Generator: Adobe Illustrator 24.2.3, SVG Export Plug-In . SVG Version: 6.00 Build 0)  -->
<svg version="1.1" xmlns="http://www.w3.org/2000/svg" xmlns:xlink="http://www.w3.org/1999/xlink" x="0px" y="0px"
	 viewBox="0 0 58.56 61.48" style="enable-background:new 0 0 58.56 61.48;" xml:space="preserve">
<style type="text/css">
	.st0{fill:#FFFFFF;}
	.st1{fill:none;stroke:#29ABE2;stroke-miterlimit:10;}
	.st2{fill:#FFFFFF;stroke:#344853;stroke-width:2;stroke-miterlimit:10;}
	.st3{fill:none;stroke:#344853;stroke-width:2;stroke-miterlimit:10;}
	.st4{fill:none;stroke:#344853;stroke-width:2;stroke-miterlimit:10;stroke-dasharray:1.7782,1.7782;}
	.st5{fill:none;stroke:#344853;stroke-width:2;stroke-miterlimit:10;stroke-dasharray:1.8875,1.8875;}
	.st6{fill:#344853;}
</style>
<g id="BG_Color">
</g>
<g id="Layer_1">
	<g>
		<g>
			<polygon class="st0" points="58.56,10.98 56.53,10.98 56.54,2.06 2.03,2.02 2.02,10.95 0,10.95 0.01,0 58.56,0.04 			"/>
		</g>
		<g>
			<g>
				
					<rect x="6.85" y="5.21" transform="matrix(0.7074 -0.7069 0.7069 0.7074 -0.376 11.5333)" class="st0" width="13.78" height="2.02"/>
			</g>
			<g>
				
					<rect x="22.39" y="5.22" transform="matrix(0.7074 -0.7069 0.7069 0.7074 4.1647 22.5208)" class="st0" width="13.78" height="2.02"/>
			</g>
			<g>
				
					<rect x="37.93" y="5.23" transform="matrix(0.7074 -0.7069 0.7069 0.7074 8.7058 33.508)" class="st0" width="13.78" height="2.02"/>
			</g>
		</g>
		<g>
			<g>
				<path class="st0" d="M29.29,57.54c-6.03,0-12.03-2.47-16.34-7.32c-3.88-4.36-5.83-9.97-5.49-15.8
					c0.34-5.83,2.93-11.17,7.29-15.05c9-8.01,22.84-7.2,30.85,1.81c3.88,4.36,5.83,9.97,5.49,15.8c-0.34,5.83-2.93,11.17-7.29,15.05
					C39.65,55.72,34.46,57.54,29.29,57.54z M29.27,15.87c-4.69,0-9.39,1.65-13.17,5c-3.96,3.52-6.31,8.37-6.62,13.66
					c-0.31,5.29,1.46,10.38,4.98,14.34c7.27,8.17,19.82,8.91,28,1.64c3.96-3.52,6.31-8.37,6.62-13.66
					c0.31-5.29-1.46-10.38-4.98-14.34C40.19,18.12,34.74,15.87,29.27,15.87z"/>
			</g>
			<g>
				<path class="st0" d="M22.27,47.07V24.31l19.71,11.38L22.27,47.07z M24.29,27.82v15.75l13.64-7.88L24.29,27.82z"/>
			</g>
		</g>
		<g>
			<path class="st0" d="M58.55,61.48H0.01V9.91h58.54V61.48z M2.03,59.46h54.5V11.93H2.03V59.46z"/>
		</g>
	</g>
</g>
</svg>
