<svg xmlns="http://www.w3.org/2000/svg" viewBox="0 0 43 43"><defs><style>.cls-1{fill:#fff;}</style></defs><g id="Layer_1" data-name="Layer 1"><polygon class="cls-1" points="41.58 8.16 39.58 8.16 39.58 2.46 3.42 2.43 3.42 8.14 1.42 8.14 1.42 0.43 41.59 0.46 41.58 8.16"/><rect class="cls-1" x="6.36" y="3.95" width="9.3" height="2" transform="translate(-0.27 9.23) rotate(-44.98)"/><rect class="cls-1" x="16.85" y="3.95" width="9.3" height="2" transform="translate(2.79 16.65) rotate(-44.98)"/><rect class="cls-1" x="27.34" y="3.96" width="9.3" height="2" transform="translate(5.86 24.06) rotate(-44.98)"/><path class="cls-1" d="M21.52,39.91c-.3,0-.6,0-.9,0a15.29,15.29,0,1,1,.9,0Zm0-28.14a13.39,13.39,0,1,0,.78,0Q21.87,11.77,21.48,11.77Z"/><path class="cls-1" d="M16.45,33.08V16.61l14.26,8.23Zm2-13v9.53l8.26-4.77Z"/><path class="cls-1" d="M41.58,42.57H1.42V7.12H41.58Zm-38.16-2H39.58V9.12H3.42Z"/></g></svg>