<?xml version="1.0" encoding="utf-8"?>
<!-- Generator: Adobe Illustrator 24.3.0, SVG Export Plug-In . SVG Version: 6.00 Build 0)  -->
<svg version="1.1" xmlns="http://www.w3.org/2000/svg" xmlns:xlink="http://www.w3.org/1999/xlink" x="0px" y="0px"
	 viewBox="0 0 57.72 44.39" style="enable-background:new 0 0 57.72 44.39;" xml:space="preserve">
<style type="text/css">
	.st0{fill:#FFFFFF;}
	.st1{fill:none;stroke:#29ABE2;stroke-miterlimit:10;}
	.st2{fill:#FFFFFF;stroke:#344853;stroke-width:2;stroke-miterlimit:10;}
	.st3{fill:none;stroke:#344853;stroke-width:2;stroke-miterlimit:10;}
	.st4{fill:none;stroke:#344853;stroke-width:2;stroke-miterlimit:10;stroke-dasharray:1.7782,1.7782;}
	.st5{fill:none;stroke:#344853;stroke-width:2;stroke-miterlimit:10;stroke-dasharray:1.8875,1.8875;}
	.st6{fill:#344853;}
</style>
<g id="BG_Color">
</g>
<g id="Layer_1">
	<g>
		<g>
			<path class="st0" d="M15.6,34.11H0V10.27h15.6V34.11z M2,32.11h11.6V12.27H2V32.11z"/>
		</g>
		<g>
			<polygon class="st0" points="34.39,44.39 14.3,34 15.22,32.23 32.39,41.1 32.39,3.29 15.22,12.16 14.3,10.39 34.39,0 			"/>
		</g>
		<g>
			<path class="st0" d="M43.89,32.37l-1.41-1.41c2.34-2.34,3.63-5.46,3.63-8.76s-1.29-6.42-3.63-8.76l1.41-1.41
				c2.72,2.72,4.22,6.34,4.22,10.18S46.61,29.65,43.89,32.37z"/>
		</g>
		<g>
			<path class="st0" d="M49.65,41.65l-1.41-1.41c4.82-4.82,7.48-11.23,7.48-18.04c0-6.81-2.66-13.22-7.48-18.04l1.41-1.41
				c5.2,5.2,8.07,12.11,8.07,19.46S54.85,36.45,49.65,41.65z"/>
		</g>
	</g>
</g>
</svg>
