<?xml version="1.0" encoding="utf-8"?>
<!-- Generator: Adobe Illustrator 24.2.3, SVG Export Plug-In . SVG Version: 6.00 Build 0)  -->
<svg version="1.1" xmlns="http://www.w3.org/2000/svg" xmlns:xlink="http://www.w3.org/1999/xlink" x="0px" y="0px"
	 viewBox="0 0 59.38 61.57" style="enable-background:new 0 0 59.38 61.57;" xml:space="preserve">
<style type="text/css">
	.st0{fill:#FFFFFF;}
	.st1{fill:none;stroke:#29ABE2;stroke-miterlimit:10;}
	.st2{fill:#FFFFFF;stroke:#344853;stroke-width:2;stroke-miterlimit:10;}
	.st3{fill:none;stroke:#344853;stroke-width:2;stroke-miterlimit:10;}
	.st4{fill:none;stroke:#344853;stroke-width:2;stroke-miterlimit:10;stroke-dasharray:1.7782,1.7782;}
	.st5{fill:none;stroke:#344853;stroke-width:2;stroke-miterlimit:10;stroke-dasharray:1.8875,1.8875;}
	.st6{fill:#344853;}
</style>
<g id="BG_Color">
</g>
<g id="Layer_1">
	<g>
		<g>
			<path class="st0" d="M14.33,21.63c-5.96,0-10.82-4.85-10.82-10.81S8.37,0,14.33,0c5.96,0,10.81,4.85,10.81,10.81
				S20.29,21.63,14.33,21.63z M14.33,2c-4.86,0-8.82,3.95-8.82,8.81s3.95,8.81,8.82,8.81c4.86,0,8.81-3.95,8.81-8.81
				S19.19,2,14.33,2z"/>
		</g>
		<g>
			<path class="st0" d="M28.66,61.57H0V36.96c0-7.9,6.43-14.33,14.33-14.33c7.63,0,14.33,7.16,14.33,15.31h-2
				c0-7.09-5.76-13.31-12.33-13.31C7.53,24.63,2,30.17,2,36.96v22.61h24.66v-9.22h2V61.57z"/>
		</g>
		<g>
			<path class="st0" d="M26.67,51.48c-2.3,0-4.46-0.9-6.08-2.52l-9.93-9.93l1.41-1.41L22,47.54c1.25,1.25,2.91,1.93,4.67,1.93
				s3.42-0.69,4.67-1.93l1.95-1.95l8.85-9.24c0.76-0.79,1.17-1.84,1.16-2.94l2-0.02c0.02,1.62-0.59,3.17-1.72,4.34l-8.87,9.25
				l-1.96,1.96C31.13,50.58,28.97,51.48,26.67,51.48z"/>
		</g>
		<g>
			<polygon class="st0" points="26.68,40.41 18.89,32.62 20.31,31.2 26.65,37.55 34.66,29.19 36.1,30.57 			"/>
		</g>
		<g>
			<path class="st0" d="M54.69,43.43c-0.49,0-0.98-0.08-1.46-0.23c-1.19-0.39-2.16-1.22-2.73-2.34l-4.25-8.3l1.78-0.91l4.25,8.31
				c0.33,0.64,0.88,1.12,1.57,1.34c0.68,0.22,1.41,0.17,2.05-0.16c1.32-0.67,1.85-2.29,1.18-3.62l-4.25-8.31l1.78-0.91l4.25,8.31
				c1.17,2.31,0.25,5.13-2.06,6.31C56.14,43.26,55.42,43.43,54.69,43.43z"/>
		</g>
		<g>
			<path class="st0" d="M44.43,33.64c-5.46,0-10.73-2.99-13.37-8.19c-3.74-7.36-0.8-16.39,6.56-20.13
				c7.36-3.74,16.39-0.8,20.13,6.56l0,0c3.74,7.36,0.8,16.39-6.56,20.13C49.03,33.11,46.71,33.64,44.43,33.64z M44.39,5.69
				c-1.98,0-3.98,0.45-5.86,1.41c-6.38,3.24-8.93,11.07-5.68,17.44c3.24,6.38,11.07,8.93,17.44,5.68
				c6.38-3.24,8.93-11.07,5.68-17.44l0,0C53.69,8.29,49.12,5.69,44.39,5.69z"/>
		</g>
		<g>
			<path class="st0" d="M47.72,20.12h-2c0-1.21,0.53-2.36,1.46-3.18c0.83-0.72,1.31-1.77,1.31-2.87c0-1.04-0.41-2-1.15-2.73
				c-0.74-0.72-1.7-1.1-2.76-1.08c-2.01,0.05-3.68,1.73-3.72,3.74c-0.02,1.13,0.46,2.21,1.31,2.95c0.93,0.8,1.46,1.96,1.46,3.17h-2
				c0-0.63-0.28-1.23-0.77-1.66c-1.3-1.13-2.03-2.77-2-4.5c0.06-3.13,2.55-5.63,5.67-5.71c1.56-0.04,3.07,0.55,4.2,1.65
				c1.13,1.1,1.75,2.58,1.75,4.16c0,1.68-0.73,3.27-1.99,4.38C48,18.89,47.72,19.5,47.72,20.12z"/>
		</g>
		<g>
			<path class="st0" d="M49.99,28.46l-1.03-1.72c2.5-1.5,4.11-4.12,4.31-7.01l2,0.14C55.03,23.42,53.06,26.63,49.99,28.46z"/>
		</g>
		<g>
			<path class="st0" d="M46.72,32.42c-0.01-1.29-0.52-2.51-1.44-3.42c-0.94-0.94-2.2-1.47-3.53-1.44c-1.33,0.01-2.57,0.55-3.5,1.51
				l-1.18,1.2l-1.43-1.4l1.17-1.19c1.29-1.34,3.04-2.1,4.91-2.12c1.9,0.02,3.64,0.7,4.96,2.03c1.29,1.29,2,3,2.02,4.82L46.72,32.42z
				"/>
		</g>
		<g>
			<rect x="40.67" y="20.58" class="st0" width="8" height="2"/>
		</g>
		<g>
			<rect x="42.41" y="22.94" class="st0" width="4.53" height="2"/>
		</g>
	</g>
</g>
</svg>
