<?xml version="1.0" encoding="utf-8"?>
<!-- Generator: Adobe Illustrator 24.2.3, SVG Export Plug-In . SVG Version: 6.00 Build 0)  -->
<svg version="1.1" xmlns="http://www.w3.org/2000/svg" xmlns:xlink="http://www.w3.org/1999/xlink" x="0px" y="0px"
	 viewBox="0 0 58.41 61.3" style="enable-background:new 0 0 58.41 61.3;" xml:space="preserve">
<style type="text/css">
	.st0{fill:#FFFFFF;}
	.st1{fill:none;stroke:#29ABE2;stroke-miterlimit:10;}
	.st2{fill:#FFFFFF;stroke:#344853;stroke-width:2;stroke-miterlimit:10;}
	.st3{fill:none;stroke:#344853;stroke-width:2;stroke-miterlimit:10;}
	.st4{fill:none;stroke:#344853;stroke-width:2;stroke-miterlimit:10;stroke-dasharray:1.7782,1.7782;}
	.st5{fill:none;stroke:#344853;stroke-width:2;stroke-miterlimit:10;stroke-dasharray:1.8875,1.8875;}
	.st6{fill:#344853;}
</style>
<g id="BG_Color">
</g>
<g id="Layer_1">
	<g>
		<g>
			<g>
				<path class="st0" d="M53.68,61.3c-0.5,0-1-0.08-1.49-0.24c-1.21-0.4-2.18-1.24-2.75-2.38l-5.47-10.94l1.8-0.9l5.47,10.94
					c0.33,0.65,0.89,1.14,1.58,1.37c0.7,0.23,1.43,0.17,2.08-0.16c1.33-0.68,1.87-2.31,1.2-3.64l-5.5-10.98l1.8-0.9l5.5,10.98
					c1.16,2.32,0.22,5.16-2.09,6.34C55.15,61.12,54.42,61.3,53.68,61.3z"/>
			</g>
			<g>
				<path class="st0" d="M42.01,48.1c-1.53,0-3.07-0.24-4.56-0.73c-3.73-1.21-6.76-3.81-8.53-7.3c-1.78-3.49-2.09-7.47-0.87-11.2
					c1.21-3.73,3.81-6.76,7.3-8.53c3.49-1.78,7.47-2.08,11.2-0.87c3.73,1.21,6.76,3.81,8.53,7.3l0,0c1.78,3.49,2.09,7.47,0.87,11.2
					c-1.21,3.73-3.81,6.76-7.3,8.53C46.56,47.56,44.29,48.1,42.01,48.1z M41.98,20.76c-1.97,0-3.92,0.46-5.72,1.38
					c-3.01,1.53-5.25,4.15-6.3,7.36c-1.05,3.21-0.78,6.64,0.75,9.66s4.15,5.25,7.36,6.3c3.22,1.05,6.64,0.78,9.66-0.75
					s5.25-4.15,6.3-7.36c1.05-3.21,0.78-6.64-0.75-9.66l0,0c-1.53-3.01-4.15-5.25-7.36-6.3C44.63,20.97,43.3,20.76,41.98,20.76z"/>
			</g>
			<g>
				<path class="st0" d="M50.49,33.94l-2.01-0.17c0.22-2.64-1.13-5.17-3.46-6.45c-1.31-0.72-2.78-0.97-4.25-0.74l-0.31-1.99
					c1.91-0.3,3.83,0.03,5.53,0.97C49.02,27.21,50.78,30.5,50.49,33.94z"/>
			</g>
		</g>
		<g>
			<g>
				<rect x="46.75" y="15.11" class="st0" width="2.02" height="6.18"/>
			</g>
			<g>
				<polygon class="st0" points="31.66,43.55 2.56,43.55 2.56,15.49 4.57,15.49 4.57,41.54 31.66,41.54 				"/>
			</g>
			<g>
				<path class="st0" d="M45.16,16.73c-2.03,0-3.84-1.02-4.9-2.62c-1.06,1.6-2.87,2.62-4.9,2.62c-2.03,0-3.84-1.02-4.9-2.62
					c-1.06,1.6-2.87,2.62-4.9,2.62s-3.84-1.02-4.9-2.62c-1.06,1.6-2.87,2.62-4.9,2.62s-3.84-1.02-4.9-2.62
					c-1.06,1.6-2.87,2.62-4.9,2.62c-2.91,0-5.45-2.14-5.9-4.98L0,11.49L4.01,0h43.07l4.01,11.49l-0.04,0.25
					C50.6,14.58,48.07,16.73,45.16,16.73z M39.32,10.58h1.72l0.29,0.85c0.3,1.9,1.91,3.28,3.83,3.28c1.85,0,3.47-1.3,3.86-3.05
					l-3.37-9.65H5.44l-3.37,9.65c0.39,1.75,2.01,3.05,3.86,3.05c1.92,0,3.53-1.38,3.83-3.28l0.13-0.85h1.72l0.29,0.85
					c0.3,1.9,1.91,3.28,3.83,3.28s3.53-1.38,3.83-3.28l0.13-0.85h1.72l0.29,0.85c0.3,1.9,1.91,3.28,3.83,3.28
					c1.92,0,3.53-1.38,3.83-3.28l0.13-0.85h1.72l0.29,0.85c0.3,1.9,1.91,3.28,3.83,3.28c1.92,0,3.53-1.38,3.83-3.28L39.32,10.58z"/>
			</g>
			<g>
				<path class="st0" d="M21.65,43.55H7.56v-22.6h14.1V43.55z M9.57,41.54h10.06V22.97H9.57V41.54z"/>
			</g>
			<g>
				<polygon class="st0" points="28.44,37.45 24.54,37.45 24.54,20.58 35.37,20.58 35.37,22.59 26.55,22.59 26.55,35.43 
					28.44,35.43 				"/>
			</g>
			<g>
				<rect x="17.5" y="31.71" class="st0" width="2.02" height="2.39"/>
			</g>
		</g>
		<g>
			<polygon class="st0" points="46.4,41.19 29.95,41.19 29.95,39.17 44.38,39.17 44.38,20.33 46.4,20.33 			"/>
		</g>
		<g>
			<polygon class="st0" points="39.29,33.9 28.39,33.9 28.39,31.89 37.28,31.89 37.28,20.65 39.29,20.65 			"/>
		</g>
	</g>
</g>
</svg>
