<?xml version="1.0" encoding="utf-8"?>
<!-- Generator: Adobe Illustrator 24.2.3, SVG Export Plug-In . SVG Version: 6.00 Build 0)  -->
<svg version="1.1" xmlns="http://www.w3.org/2000/svg" xmlns:xlink="http://www.w3.org/1999/xlink" x="0px" y="0px"
	 viewBox="0 0 42.81 61.52" style="enable-background:new 0 0 42.81 61.52;" xml:space="preserve">
<style type="text/css">
	.st0{fill:#FFFFFF;}
	.st1{fill:none;stroke:#29ABE2;stroke-miterlimit:10;}
	.st2{fill:#FFFFFF;stroke:#344853;stroke-width:2;stroke-miterlimit:10;}
	.st3{fill:none;stroke:#344853;stroke-width:2;stroke-miterlimit:10;}
	.st4{fill:none;stroke:#344853;stroke-width:2;stroke-miterlimit:10;stroke-dasharray:1.7782,1.7782;}
	.st5{fill:none;stroke:#344853;stroke-width:2;stroke-miterlimit:10;stroke-dasharray:1.8875,1.8875;}
	.st6{fill:#344853;}
</style>
<g id="BG_Color">
</g>
<g id="Layer_1">
	<g>
		<g>
			<g>
				<path class="st0" d="M2.93,21.57L0,13.49L37.13,0l2.93,8.07L2.93,21.57z M2.56,14.69L4.13,19L37.5,6.88l-1.57-4.31L2.56,14.69z"
					/>
			</g>
			<g>
				
					<rect x="5.79" y="13.46" transform="matrix(0.4228 -0.9062 0.9062 0.4228 -7.1276 17.7348)" class="st0" width="9.14" height="2"/>
			</g>
			<g>
				
					<rect x="14.8" y="10.19" transform="matrix(0.4228 -0.9062 0.9062 0.4228 1.0399 24.0097)" class="st0" width="9.14" height="2"/>
			</g>
			<g>
				
					<rect x="23.81" y="6.91" transform="matrix(0.4228 -0.9062 0.9062 0.4228 9.207 30.2841)" class="st0" width="9.14" height="2"/>
			</g>
		</g>
		<g>
			<polygon class="st0" points="31.5,55.97 2.57,55.97 2.57,19.18 39.36,19.18 39.36,51.13 37.36,51.13 37.36,21.18 4.57,21.18 
				4.57,53.97 31.5,53.97 			"/>
		</g>
		<g>
			<g>
				<path class="st0" d="M38.1,61.52c-0.1,0-0.2,0-0.3-0.01c-1.27-0.08-2.42-0.65-3.26-1.6l-8.06-9.18l1.5-1.32l8.06,9.18
					c0.48,0.55,1.15,0.88,1.88,0.92c0.74,0.05,1.43-0.2,1.98-0.68c1.12-0.99,1.22-2.71,0.24-3.83l-8.09-9.22l1.5-1.32l8.09,9.22
					c1.71,1.94,1.52,4.93-0.41,6.65C40.36,61.1,39.25,61.52,38.1,61.52z"/>
			</g>
			<g>
				<path class="st0" d="M20.96,52.04c-0.29,0-0.58-0.01-0.88-0.03c-3.91-0.23-7.49-1.97-10.09-4.89s-3.91-6.69-3.68-10.59
					c0.23-3.91,1.97-7.49,4.89-10.09c6.04-5.37,15.32-4.82,20.68,1.21l0,0c2.6,2.92,3.91,6.69,3.68,10.59
					c-0.23,3.91-1.97,7.49-4.89,10.09C27.97,50.75,24.55,52.04,20.96,52.04z M20.93,24.75c-2.99,0-5.99,1.05-8.4,3.19
					c-2.52,2.25-4.02,5.34-4.22,8.71c-0.2,3.37,0.93,6.62,3.18,9.15c2.25,2.53,5.34,4.02,8.71,4.22c3.36,0.19,6.62-0.93,9.15-3.18
					c2.52-2.25,4.02-5.34,4.22-8.71c0.2-3.37-0.93-6.62-3.18-9.15l0,0C27.9,26.18,24.42,24.75,20.93,24.75z"/>
			</g>
			<g>
				<path class="st0" d="M29.77,35.47c-0.61-3.53-3.25-6.37-6.72-7.23c-1.32-0.33-2.65-0.36-3.97-0.09l-0.39-1.96
					c1.61-0.32,3.24-0.29,4.85,0.11c4.24,1.06,7.46,4.53,8.21,8.83L29.77,35.47z"/>
			</g>
			<g>
				<path class="st0" d="M15.84,45.45V29.69l13.65,7.88L15.84,45.45z M17.84,33.16v8.83l7.65-4.42L17.84,33.16z"/>
			</g>
		</g>
	</g>
</g>
</svg>
