<svg xmlns="http://www.w3.org/2000/svg" viewBox="0 0 43 43"><defs><style>.cls-1{fill:#fff;}</style></defs><g id="Layer_1" data-name="Layer 1"><path class="cls-1" d="M42.14,40.84H.86V2.16H42.14Zm-39.28-2H40.14V4.16H2.86Z"/><path class="cls-1" d="M39.38,34.3h-36l14.2-24.21,8.32,13.29,6.25-5.12Zm-32.47-2H36.29L31.43,21.47l-6,4.89L17.68,14Z"/><path class="cls-1" d="M31.81,16.43a3.91,3.91,0,1,1,3.91-3.91A3.92,3.92,0,0,1,31.81,16.43Zm0-5.82a1.91,1.91,0,1,0,1.91,1.91A1.91,1.91,0,0,0,31.81,10.61Z"/></g></svg>