<?xml version="1.0" encoding="utf-8"?>
<!-- Generator: Adobe Illustrator 24.2.3, SVG Export Plug-In . SVG Version: 6.00 Build 0)  -->
<svg version="1.1" xmlns="http://www.w3.org/2000/svg" xmlns:xlink="http://www.w3.org/1999/xlink" x="0px" y="0px"
	 viewBox="0 0 56.87 61.12" style="enable-background:new 0 0 56.87 61.12;" xml:space="preserve">
<style type="text/css">
	.st0{fill:#FFFFFF;}
	.st1{fill:none;stroke:#29ABE2;stroke-miterlimit:10;}
	.st2{fill:#FFFFFF;stroke:#344853;stroke-width:2;stroke-miterlimit:10;}
	.st3{fill:none;stroke:#344853;stroke-width:2;stroke-miterlimit:10;}
	.st4{fill:none;stroke:#344853;stroke-width:2;stroke-miterlimit:10;stroke-dasharray:1.7782,1.7782;}
	.st5{fill:none;stroke:#344853;stroke-width:2;stroke-miterlimit:10;stroke-dasharray:1.8875,1.8875;}
	.st6{fill:#344853;}
</style>
<g id="BG_Color">
</g>
<g id="Layer_1">
	<g>
		<g>
			<g>
				<g>
					<path class="st0" d="M20.1,61.12h-6.28v-6.28h6.28V61.12z M15.86,59.08h2.2v-2.2h-2.2V59.08z"/>
				</g>
				<g>
					<rect x="23.38" y="56.96" class="st0" width="23.85" height="2.04"/>
				</g>
			</g>
			<g>
				<g>
					<polygon class="st0" points="56.87,51.17 4.18,51.17 4.18,0 6.22,0 6.22,49.13 56.87,49.13 					"/>
				</g>
				<g>
					<polygon class="st0" points="50.53,22.32 48.49,22.32 48.49,14.06 40.07,14.06 40.07,12.02 50.53,12.02 					"/>
				</g>
				<g>
					<polygon class="st0" points="6.14,42.95 4.7,41.5 23.68,22.52 31.12,29.97 48.66,12.43 50.1,13.87 31.12,32.85 23.68,25.41 
											"/>
				</g>
			</g>
		</g>
		<g>
			<g>
				<rect y="3.95" class="st0" width="5.05" height="2.04"/>
			</g>
			<g>
				<rect y="17.25" class="st0" width="5.05" height="2.04"/>
			</g>
			<g>
				<rect y="30.55" class="st0" width="5.05" height="2.04"/>
			</g>
			<g>
				<rect y="43.85" class="st0" width="5.05" height="2.04"/>
			</g>
		</g>
	</g>
</g>
</svg>
