<?xml version="1.0" encoding="utf-8"?>
<!-- Generator: Adobe Illustrator 24.3.0, SVG Export Plug-In . SVG Version: 6.00 Build 0)  -->
<svg version="1.1" xmlns="http://www.w3.org/2000/svg" xmlns:xlink="http://www.w3.org/1999/xlink" x="0px" y="0px"
	 viewBox="0 0 43.83 54.26" style="enable-background:new 0 0 43.83 54.26;" xml:space="preserve">
<style type="text/css">
	.st0{fill:#FFFFFF;}
	.st1{fill:none;stroke:#29ABE2;stroke-miterlimit:10;}
	.st2{fill:#FFFFFF;stroke:#344853;stroke-width:2;stroke-miterlimit:10;}
	.st3{fill:none;stroke:#344853;stroke-width:2;stroke-miterlimit:10;}
	.st4{fill:none;stroke:#344853;stroke-width:2;stroke-miterlimit:10;stroke-dasharray:1.7782,1.7782;}
	.st5{fill:none;stroke:#344853;stroke-width:2;stroke-miterlimit:10;stroke-dasharray:1.8875,1.8875;}
	.st6{fill:#344853;}
</style>
<g id="BG_Color">
</g>
<g id="Layer_1">
	<g>
		<g>
			<g>
				<g>
					<path class="st0" d="M30.62,15.41l-9.62-9.62l5-5l9.62,9.62L30.62,15.41z M23.75,5.79l6.87,6.87l2.26-2.26l-6.87-6.87
						L23.75,5.79z"/>
				</g>
				<g>
					<polygon class="st0" points="19.01,24.68 11.74,17.4 23.54,5.6 30.82,12.88 28.03,15.66 26.66,14.29 28.07,12.88 23.54,8.35 
						14.49,17.4 19.01,21.93 22.88,18.06 24.26,19.43 					"/>
				</g>
				<g>
					<path class="st0" d="M14.47,26.6l-4.65-4.65l4.57-4.57l4.65,4.65L14.47,26.6z M12.56,21.95l1.91,1.91l1.82-1.82l-1.91-1.91
						L12.56,21.95z"/>
				</g>
			</g>
			<g>
				<path class="st0" d="M26.06,21.56c-0.98,0-1.96-0.37-2.7-1.12c-1.49-1.49-1.49-3.91,0-5.4c1.49-1.49,3.91-1.49,5.4,0
					c1.49,1.49,1.49,3.91,0,5.4C28.01,21.19,27.04,21.56,26.06,21.56z M26.06,15.87c-0.48,0-0.96,0.18-1.33,0.55
					c-0.73,0.73-0.73,1.92,0,2.65s1.92,0.73,2.65,0s0.73-1.92,0-2.65C27.02,16.05,26.54,15.87,26.06,15.87z"/>
			</g>
		</g>
		<g>
			<path class="st0" d="M21.94,36.65H0.64v-7.39h21.3V36.65z M2.58,34.71H20V31.2H2.58V34.71z"/>
		</g>
		<g>
			<path class="st0" d="M40.14,53.47H10.77v-7.51h2.85c-2.95-2.63-4.96-6.18-5.67-10.09l-0.21-1.14h6.34l0.18,0.74
				c1.27,5.15,5.86,8.74,11.16,8.74c6.34,0,11.5-5.16,11.5-11.5c0-5.65-4.22-10.54-9.81-11.36l0.28-1.92
				c6.54,0.97,11.47,6.68,11.47,13.28c0,7.41-6.03,13.44-13.44,13.44c-5.94,0-11.11-3.86-12.84-9.48h-2.47
				c1,3.88,3.48,7.28,6.92,9.44l2.85,1.79h-7.17v3.63H38.2V47.9h-7.24l2.86-1.79c4.66-2.92,7.44-7.93,7.44-13.4
				c0-7.55-5.37-14.08-12.77-15.52l0.37-1.91c8.31,1.63,14.34,8.96,14.34,17.43c0,5.13-2.18,9.91-5.95,13.25h2.9V53.47z"/>
		</g>
	</g>
</g>
</svg>
