<?xml version="1.0" standalone="no"?>
<!DOCTYPE svg PUBLIC "-//W3C//DTD SVG 20010904//EN"
 "http://www.w3.org/TR/2001/REC-SVG-20010904/DTD/svg10.dtd">
<svg version="1.0" xmlns="http://www.w3.org/2000/svg"
 width="40.000000pt" height="40.000000pt" viewBox="0 0 40.000000 40.000000"
 preserveAspectRatio="xMidYMid meet">
<metadata>
Created by potrace 1.16, written by Peter Selinger 2001-2019
</metadata>
<g transform="translate(0.000000,40.000000) scale(0.100000,-0.100000)"
fill="#000000" stroke="none">
<path d="M115 387 c-42 -20 -92 -74 -106 -115 -17 -52 -7 -144 21 -184 43 -63
83 -83 170 -83 87 0 127 20 171 83 20 30 24 48 24 112 0 87 -20 127 -83 171
-42 29 -149 37 -197 16z m135 -204 c-41 -43 -77 -79 -80 -81 -3 -1 -26 18 -50
43 l-44 45 22 22 22 22 25 -24 26 -24 57 57 c56 56 57 57 76 37 19 -19 19 -20
-54 -97z"/>
</g>
</svg>
