<?xml version="1.0" encoding="utf-8"?>
<!-- Generator: Adobe Illustrator 24.1.0, SVG Export Plug-In . SVG Version: 6.00 Build 0)  -->
<svg version="1.1" id="Layer_1" xmlns="http://www.w3.org/2000/svg" xmlns:xlink="http://www.w3.org/1999/xlink" x="0px" y="0px"
	 viewBox="0 0 360 360" style="enable-background:new 0 0 360 360;" xml:space="preserve">
<style type="text/css">
	.st0{fill:#FFFFFF;}
</style>
<g>
	<path class="st0" d="M131.22,328.05c-25.5,0-50.99-9.7-70.4-29.11C22,260.11,22,196.95,60.82,158.13
		c28.62-28.62,71.02-37.04,108.37-21.63l97.03-97.03c2.05-2.05,4.77-3.32,7.65-3.57l44.56-3.95c2.69-0.24,5.33,0.72,7.23,2.63
		c1.91,1.91,2.87,4.55,2.63,7.23l-3.95,44.56c-0.25,2.88-1.52,5.6-3.57,7.65l-22.32,22.32c-0.75,0.75-1.75,1.21-2.82,1.27l-16.16,1
		l-1,16.15c-0.07,1.07-0.52,2.08-1.29,2.85l-10.6,10.6c-0.76,0.75-1.75,1.21-2.8,1.28l-16.47,1.24l-1.24,16.5
		c-0.08,1.05-0.53,2.03-1.27,2.76l-21.25,21.25c15,37.16,6.47,79.29-21.92,107.68C182.22,318.34,156.72,328.05,131.22,328.05z
		 M131.06,132.9c-24.78,0-49.04,9.7-67.41,28.06c-37.26,37.26-37.26,97.89,0,135.15c37.26,37.26,97.89,37.26,135.15,0
		c27.55-27.55,35.62-68.59,20.55-104.55l-0.52-1.24l23.15-23.15c0.06-0.06,0.1-0.15,0.11-0.24l1.5-19.92l19.91-1.5
		c0.1-0.01,0.2-0.05,0.27-0.13l10.59-10.59c0.07-0.07,0.12-0.17,0.12-0.27l1.22-19.67l19.69-1.22c0.09-0.01,0.18-0.04,0.24-0.11
		l22.32-22.32c1.39-1.39,2.24-3.22,2.42-5.17l3.95-44.56c0.13-1.51-0.4-2.98-1.47-4.05c-1.07-1.07-2.53-1.61-4.05-1.47l-44.56,3.95
		c-1.95,0.17-3.79,1.03-5.18,2.41l-98.94,98.94l-1.24-0.53C156.62,135.45,143.77,132.9,131.06,132.9z"/>
	
		<rect x="143.07" y="110.78" transform="matrix(0.6989 -0.7152 0.7152 0.6989 -13.4823 193.5453)" class="st0" width="160.1" height="4"/>
	<path class="st0" d="M101.42,290.02c-15.32,0-27.79-12.47-27.79-27.79s12.47-27.79,27.79-27.79s27.79,12.47,27.79,27.79
		S116.75,290.02,101.42,290.02z M101.42,238.45c-13.12,0-23.79,10.67-23.79,23.79s10.67,23.79,23.79,23.79
		c13.12,0,23.79-10.67,23.79-23.79S114.54,238.45,101.42,238.45z"/>
</g>
</svg>
