<svg id="Icon_Expanded_" data-name="Icon (Expanded)" xmlns="http://www.w3.org/2000/svg" viewBox="0 0 50.66 60"><defs><style>.cls-1{fill:#007a80;}</style></defs><path class="cls-1" d="M49.52,33.77l-6-9.63a.42.42,0,0,1,0-.43l6-9.63a2.83,2.83,0,0,0-2.41-4.34H30.48V5.28a2.84,2.84,0,0,0-2.83-2.84H2.93v-2A.41.41,0,0,0,2.52,0H.9A.41.41,0,0,0,.49.41V59.59A.41.41,0,0,0,.9,60H2.52a.41.41,0,0,0,.41-.41V30.81H19.14v4.46A2.84,2.84,0,0,0,22,38.11H47.11a2.84,2.84,0,0,0,2.41-4.34ZM2.93,4.87H27.65a.4.4,0,0,1,.4.41V28a.43.43,0,0,1-.1.27l-.11.09a.38.38,0,0,1-.19.05H2.93ZM24.8,30.81l-3.23,2.63V30.81Zm22.67,4.65a.39.39,0,0,1-.36.21H22.68l6.63-5.4a1.59,1.59,0,0,0,.24-.2h0A2.81,2.81,0,0,0,30.48,28V12.17H47.11a.41.41,0,0,1,.35.62l-6,9.63a2.85,2.85,0,0,0,0,3l6,9.63A.39.39,0,0,1,47.47,35.46Z"/></svg>