<?xml version="1.0" encoding="utf-8"?>
<!-- Generator: Adobe Illustrator 25.2.1, SVG Export Plug-In . SVG Version: 6.00 Build 0)  -->
<svg version="1.1" id="Layer_1" xmlns="http://www.w3.org/2000/svg" xmlns:xlink="http://www.w3.org/1999/xlink" x="0px" y="0px"
	 viewBox="0 0 20 20" style="enable-background:new 0 0 20 20;" xml:space="preserve">
<style type="text/css">
	.st0{fill:#155257;}
</style>
<path class="st0" d="M10,20C4.5,20,0,15.5,0,10C0,4.5,4.5,0,10,0c5.5,0,10,4.5,10,10C20,15.5,15.5,20,10,20z M10,1c-5,0-9,4-9,9
	c0,5,4,9,9,9c5,0,9-4,9-9C19,5,15,1,10,1z"/>
<path class="st0" d="M14.5,14.9H6.3c-0.2,0-0.4-0.2-0.4-0.4s0.2-0.4,0.4-0.4h8.2c0.2,0,0.4,0.2,0.4,0.4S14.7,14.9,14.5,14.9z"/>
<g transform="translate(8.000000, 6.000000)">
	<path class="st0" d="M2,5.4C1.8,5.4,1.6,5.2,1.6,5V0c0-0.2,0.2-0.4,0.4-0.4S2.4-0.2,2.4,0v5C2.4,5.2,2.2,5.4,2,5.4z"/>
	<path class="st0" d="M2,5.4c-0.1,0-0.2-0.1-0.3-0.2l-2-3C-0.4,2-0.4,1.8-0.2,1.7C0,1.6,0.2,1.6,0.3,1.8L2,4.3l1.7-2.5
		C3.8,1.6,4,1.6,4.2,1.7C4.4,1.8,4.4,2,4.3,2.2l-2,3C2.2,5.3,2.1,5.4,2,5.4z"/>
</g>
</svg>
