<?xml version="1.0" encoding="utf-8"?>
<!-- Generator: Adobe Illustrator 25.2.0, SVG Export Plug-In . SVG Version: 6.00 Build 0)  -->
<svg version="1.1" id="Layer_1" xmlns="http://www.w3.org/2000/svg" xmlns:xlink="http://www.w3.org/1999/xlink" x="0px" y="0px"
	 viewBox="0 0 372.8 60.3" style="enable-background:new 0 0 372.8 60.3;" xml:space="preserve">
<style type="text/css">
	.st0{fill:#FFFFFF;}
</style>
<g>
	<path class="st0" d="M0,46.2V1.9h17.4c4.5,0,8.4,1,11.7,2.9s5.8,4.5,7.6,7.9c1.8,3.3,2.6,7.1,2.6,11.4s-0.9,8.1-2.6,11.4
		c-1.8,3.3-4.3,6-7.6,7.9s-7.2,2.9-11.7,2.9H0V46.2z M17.4,8.2H6.7v31.7h10.7c3.1,0,5.8-0.7,8.1-2c2.2-1.3,4-3.1,5.1-5.5
		c1.2-2.4,1.8-5.2,1.8-8.3c0-3.2-0.6-6-1.8-8.3c-1.2-2.4-2.9-4.2-5.1-5.5C23.2,8.9,20.6,8.2,17.4,8.2z"/>
	<path class="st0" d="M53.7,8.9c-1.3,0-2.3-0.4-3.1-1.2c-0.7-0.8-1.1-1.8-1.1-3s0.4-2.3,1.1-3c0.7-0.8,1.8-1.2,3.1-1.2
		s2.3,0.4,3.1,1.2c0.7,0.8,1.1,1.8,1.1,3s-0.4,2.2-1.1,3C56,8.5,55,8.9,53.7,8.9z M50.5,46.2V14.6h6.3v31.7h-6.3V46.2z"/>
	<path class="st0" d="M80.9,36.7c-1.5,0-2.9-0.1-4.2-0.4c-0.8,0.9-1.3,1.8-1.3,2.6c0,1.6,1.2,2.4,3.7,2.4h7.5c3.7,0,6.4,0.7,8.4,2.2
		c1.9,1.5,2.9,3.5,2.9,6.2c0,3.4-1.5,6-4.6,7.9c-3,1.9-7.3,2.8-12.8,2.8c-4.6,0-8.2-0.7-10.8-2.1s-3.8-3.4-3.8-6
		c0-3.2,2-5.7,6.1-7.5c-1.2-1.1-1.8-2.5-1.8-4.1c0-2,0.9-4,2.7-5.9c-3.4-2-5.2-5.2-5.2-9.5c0-3.4,1.2-6.2,3.5-8.3s5.5-3.2,9.6-3.2
		h0.6c1.5,0,2.9,0.2,4.2,0.5c1.3,0.3,2.4,0.8,3.5,1.4c1.2-2.4,3.5-3.6,6.7-3.6c0.7,0,1.6,0.1,2.5,0.3v5.2c-0.6-0.2-1.1-0.3-1.6-0.3
		c-0.4,0-0.8-0.1-1.1-0.1c-1.6,0-2.8,0.3-3.5,1c1.7,2,2.5,4.4,2.5,7.2c0,3.4-1.2,6.1-3.5,8.2s-5.5,3.2-9.6,3.2h-0.6V36.7z M72.1,51
		c0,2.7,3,4.1,8.9,4.1c3.5,0,6.1-0.5,7.9-1.4s2.7-2.2,2.7-3.7c0-2.3-1.9-3.4-5.8-3.4h-8.5c-0.3,0-0.5,0-0.8,0
		c-1.4,0.4-2.5,1-3.3,1.8C72.5,49.1,72.1,50,72.1,51z M80.9,31.4h0.5c2.3,0,4-0.6,5.2-1.7s1.8-2.6,1.8-4.5s-0.6-3.4-1.8-4.5
		c-1.2-1.1-2.9-1.7-5.2-1.7h-0.5c-2.3,0-4,0.6-5.2,1.7s-1.8,2.6-1.8,4.5s0.6,3.4,1.8,4.5C76.9,30.9,78.7,31.4,80.9,31.4z"/>
	<path class="st0" d="M110.3,8.9c-1.3,0-2.3-0.4-3.1-1.2c-0.7-0.8-1.1-1.8-1.1-3s0.4-2.3,1.1-3c0.7-0.8,1.8-1.2,3.1-1.2
		c1.3,0,2.3,0.4,3.1,1.2c0.7,0.8,1.1,1.8,1.1,3s-0.4,2.2-1.1,3C112.6,8.5,111.6,8.9,110.3,8.9z M107.1,46.2V14.6h6.3v31.7h-6.3V46.2
		z"/>
	<path class="st0" d="M140.2,46.6c-3.8,0-6.6-0.9-8.6-2.8c-2-1.9-2.9-4.8-2.9-8.8V20.1h-6.2v-5.5h6.2V5.1h6.3v9.4h10.7V20H135v14.1
		c0,2.5,0.5,4.2,1.6,5.2c1,1,2.6,1.5,4.6,1.5c1,0,1.8,0,2.6-0.1s1.6-0.2,2.4-0.3v5.5c-0.8,0.2-1.8,0.4-2.8,0.5
		C142.2,46.6,141.2,46.6,140.2,46.6z"/>
	<path class="st0" d="M164.4,46.8c-3.3,0-5.9-0.9-7.8-2.6c-1.8-1.7-2.8-4-2.8-6.8s1-5.1,3.1-7c2.1-1.9,5.4-2.8,10-2.8h8.6v-0.1
		c0-5.3-2.4-8-7.3-8c-2,0-3.8,0.4-5.2,1.1s-2.5,1.8-3.4,3.1l-4.3-3.5c1.4-2.1,3.1-3.7,5.3-4.8c2.2-1.1,4.7-1.7,7.5-1.7h0.7
		c3.9,0,7,1.1,9.4,3.4c2.4,2.2,3.5,5.6,3.5,10v19h-6.1v-5.2c-1.2,1.9-2.8,3.3-4.7,4.3S166.8,46.8,164.4,46.8z M165.8,41.2
		c2.4,0,4.5-0.6,6.1-1.7c1.6-1.1,2.8-2.6,3.6-4.5v-2.4h-8.4c-2.5,0-4.3,0.4-5.3,1.2c-1.1,0.8-1.6,1.9-1.6,3.2
		C160.3,39.8,162.1,41.2,165.8,41.2z"/>
	<path class="st0" d="M193.7,46.2V0h6.3v46.2H193.7z"/>
	<path class="st0" d="M241.2,46.2V8.3h-14.8V1.9h36.3v6.4h-14.8v37.9H241.2z"/>
	<path class="st0" d="M276.4,46.8c-3.3,0-5.9-0.9-7.8-2.6c-1.8-1.7-2.8-4-2.8-6.8s1-5.1,3.1-7c2.1-1.9,5.4-2.8,10-2.8h8.6v-0.1
		c0-5.3-2.4-8-7.3-8c-2,0-3.8,0.4-5.2,1.1c-1.4,0.7-2.5,1.8-3.4,3.1l-4.3-3.5c1.4-2.1,3.1-3.7,5.3-4.8c2.2-1.1,4.7-1.7,7.5-1.7h0.7
		c3.9,0,7,1.1,9.4,3.4c2.4,2.2,3.5,5.6,3.5,10v19h-6.1v-5.2c-1.2,1.9-2.8,3.3-4.7,4.3C281.1,46.3,278.9,46.8,276.4,46.8z
		 M277.8,41.2c2.4,0,4.5-0.6,6.1-1.7c1.6-1.1,2.8-2.6,3.6-4.5v-2.4h-8.4c-2.5,0-4.3,0.4-5.3,1.2s-1.6,1.9-1.6,3.2
		C272.3,39.8,274.1,41.2,277.8,41.2z"/>
	<path class="st0" d="M307.8,60.3c-0.9,0-1.8-0.1-2.6-0.2v-5.7c0.7,0.1,1.3,0.2,1.8,0.2c2.2,0,4-0.6,5.4-1.9
		c1.4-1.3,2.6-3.1,3.7-5.5c-2.6-5.2-5-10.6-7.3-16c-2.3-5.5-4.5-11-6.5-16.5h7.3c1.4,4.2,2.8,8.5,4.4,12.7s3.2,8.4,5,12.5l8.6-25.3
		h6.9l-12.4,32.6c-1.6,4.2-3.5,7.4-5.6,9.7C314.4,59.1,311.5,60.3,307.8,60.3z"/>
	<path class="st0" d="M356.3,47c-3.2,0-6-0.7-8.4-2.1c-2.4-1.4-4.2-3.4-5.5-5.9s-1.9-5.4-1.9-8.6s0.6-6.1,1.9-8.6s3.1-4.4,5.5-5.9
		c2.4-1.4,5.2-2.1,8.4-2.1h0.7c3.2,0,6,0.7,8.4,2.1c2.4,1.4,4.2,3.4,5.5,5.9s1.9,5.3,1.9,8.6c0,3.2-0.6,6.1-1.9,8.6
		s-3.1,4.5-5.5,5.9S360.2,47,357,47H356.3z M356.3,41.1h0.6c2.9,0,5.2-1,6.8-2.9c1.6-1.9,2.5-4.5,2.5-7.8s-0.8-5.9-2.5-7.8
		c-1.6-1.9-3.9-2.9-6.8-2.9h-0.6c-2.9,0-5.1,1-6.8,2.9s-2.5,4.5-2.5,7.8c0,3.2,0.8,5.8,2.5,7.8S353.5,41.1,356.3,41.1z"/>
</g>
</svg>
