<?xml version="1.0" encoding="utf-8"?>
<!-- Generator: Adobe Illustrator 25.2.0, SVG Export Plug-In . SVG Version: 6.00 Build 0)  -->
<svg version="1.1" id="Layer_1" xmlns="http://www.w3.org/2000/svg" xmlns:xlink="http://www.w3.org/1999/xlink" x="0px" y="0px"
	 viewBox="0 0 60 60" style="enable-background:new 0 0 60 60;" xml:space="preserve">
<style type="text/css">
	.st0{fill-rule:evenodd;clip-rule:evenodd;fill:#007A80;}
</style>
<g id="Symbols">
	<g id="Group-5" transform="translate(-44.000000, -44.000000)">
		<g transform="translate(44.000000, 44.000000)">
			<path id="Fill-1" class="st0" d="M30,2.4C14.8,2.4,2.4,14.8,2.4,30S14.8,57.6,30,57.6S57.6,45.2,57.6,30S45.2,2.4,30,2.4 M30,60
				C13.5,60,0,46.5,0,30S13.5,0,30,0s30,13.5,30,30S46.5,60,30,60"/>
			<path id="Fill-3" class="st0" d="M30,37.7c0.2,0,0.4,0,0.6,0.1l7.6,4l-1.5-8.5c-0.1-0.4,0.1-0.8,0.4-1.1l6.1-6l-8.5-1.2
				c-0.4-0.1-0.7-0.3-0.9-0.7L30,16.7l-3.8,7.7c-0.2,0.4-0.5,0.6-0.9,0.7l-8.5,1.2l6.1,6c0.3,0.3,0.4,0.7,0.4,1.1l-1.5,8.5l7.6-4
				C29.6,37.8,29.8,37.7,30,37.7 M21.3,44.6c-0.4,0-0.8-0.1-1.2-0.4c-0.6-0.5-0.9-1.2-0.8-2l1.5-8.6l-6.3-6.1
				c-0.6-0.5-0.8-1.3-0.5-2.1c0.2-0.7,0.9-1.3,1.6-1.4l8.7-1.3l3.9-7.9c0.3-0.7,1-1.1,1.8-1.1s1.5,0.4,1.8,1.1l3.9,7.9l8.7,1.3
				c0.8,0.1,1.4,0.6,1.6,1.4c0.2,0.7,0,1.5-0.5,2.1l-6.3,6.1l1.5,8.6c0.1,0.8-0.2,1.5-0.8,2c-0.6,0.5-1.4,0.5-2.1,0.2L30,40.3
				l-7.8,4.1C21.9,44.5,21.6,44.6,21.3,44.6"/>
		</g>
	</g>
</g>
</svg>
