<?xml version="1.0" encoding="utf-8"?>
<!-- Generator: Adobe Illustrator 25.2.0, SVG Export Plug-In . SVG Version: 6.00 Build 0)  -->
<svg version="1.1" id="Layer_1" xmlns="http://www.w3.org/2000/svg" xmlns:xlink="http://www.w3.org/1999/xlink" x="0px" y="0px"
	 viewBox="0 0 49 60" style="enable-background:new 0 0 49 60;" xml:space="preserve">
<style type="text/css">
	.st0{fill-rule:evenodd;clip-rule:evenodd;fill:#007A80;}
	.st1{filter:url(#Adobe_OpacityMaskFilter);}
	.st2{fill-rule:evenodd;clip-rule:evenodd;fill:#FFFFFF;}
	.st3{mask:url(#mask-3_1_);fill-rule:evenodd;clip-rule:evenodd;fill:#007A80;}
</style>
<g id="Symbols">
	<g id="Group-12" transform="translate(-361.000000, -45.000000)">
		<g transform="translate(361.000000, 45.000000)">
			<path id="Fill-1" class="st0" d="M8.4,47.3h31.5c0.2,0,0.4,0.2,0.4,0.4v1.4c0,0.2-0.2,0.4-0.4,0.4H8.4c-0.2,0-0.4-0.2-0.4-0.4
				v-1.4C8.1,47.4,8.2,47.3,8.4,47.3"/>
			<path id="Fill-3" class="st0" d="M8.4,18.6h31.5c0.2,0,0.4,0.2,0.4,0.4v1.4c0,0.2-0.2,0.4-0.4,0.4H8.4c-0.2,0-0.4-0.2-0.4-0.4V19
				C8.1,18.8,8.2,18.6,8.4,18.6"/>
			<path id="Fill-5" class="st0" d="M8.4,28.5h31.5c0.2,0,0.4,0.2,0.4,0.4v1.4c0,0.2-0.2,0.4-0.4,0.4H8.4c-0.2,0-0.4-0.2-0.4-0.4
				v-1.4C8.1,28.6,8.2,28.5,8.4,28.5"/>
			<path id="Fill-7" class="st0" d="M8.4,38.3h31.5c0.2,0,0.4,0.2,0.4,0.4v1.4c0,0.2-0.2,0.4-0.4,0.4H8.4c-0.2,0-0.4-0.2-0.4-0.4
				v-1.4C8.1,38.5,8.2,38.3,8.4,38.3"/>
			<g id="Group-11">
				<g id="Clip-10">
				</g>
				<defs>
					<filter id="Adobe_OpacityMaskFilter" x="0" y="0" width="48.4" height="60">
						<feColorMatrix  type="matrix" values="1 0 0 0 0  0 1 0 0 0  0 0 1 0 0  0 0 0 1 0"/>
					</filter>
				</defs>
				<mask maskUnits="userSpaceOnUse" x="0" y="0" width="48.4" height="60" id="mask-3_1_">
					<g class="st1">
						<polygon id="path-2_1_" class="st2" points="0,0 48.4,0 48.4,60 0,60 						"/>
					</g>
				</mask>
				<path id="Fill-9" class="st3" d="M45,57.3c0,0.3-0.2,0.4-0.5,0.5H3.8c-0.3,0-0.5-0.2-0.5-0.5C1.8,40.6,1.8,23.8,3.3,7
					c0-0.3,0.2-0.4,0.5-0.5h6.4v1.8c0,1.4,1.2,2.6,2.6,2.6h22.7c1.4,0,2.6-1.1,2.6-2.6V6.6h6.4C44.8,6.6,45,6.8,45,7
					C46.5,23.8,46.5,40.6,45,57.3L45,57.3z M12.5,2.6c0-0.2,0.2-0.4,0.4-0.4h22.7c0.2,0,0.4,0.2,0.4,0.4v5.9c0,0.2-0.2,0.4-0.4,0.4
					H12.8c-0.2,0-0.4-0.2-0.4-0.4V2.6z M47.2,6.8c-0.1-1.4-1.3-2.4-2.7-2.5h-6.4V2.6C38.1,1.1,37,0,35.5,0H12.8
					c-1.4,0-2.6,1.1-2.6,2.6v1.8H3.8c-1.4,0-2.6,1.1-2.7,2.5c-1.5,16.9-1.5,33.8,0,50.7C1.3,58.9,2.4,60,3.8,60h40.7
					c1.4,0,2.6-1.1,2.7-2.5C48.7,40.7,48.7,23.7,47.2,6.8L47.2,6.8z"/>
			</g>
		</g>
	</g>
</g>
</svg>
