<svg height="60" viewBox="0 0 60 60" width="60" xmlns="http://www.w3.org/2000/svg" xmlns:xlink="http://www.w3.org/1999/xlink"><mask id="a" fill="#fff"><path d="m5.631 5.616h48.738v48.768h-48.738z" fill="#fff" fill-rule="evenodd"/></mask><path d="m49.879 28.866h-17.7v-17.7c0-.18-.12-.3-.3-.3h-1.02c-.12 0-.24.12-.24.3v17.7h-17.76c-.12 0-.24.12-.24.24v1.02c0 .12.12.24.24.24h17.76v17.76c0 .12.12.24.24.24h1.02c.18 0 .3-.12.3-.24v-17.76h17.7c.12 0 .24-.12.24-.24v-1.02c0-.12-.12-.24-.24-.24" fill="#007a80" fill-rule="evenodd" mask="url(#a)"/></svg>