<?xml version="1.0" encoding="utf-8"?>
<!-- Generator: Adobe Illustrator 25.2.0, SVG Export Plug-In . SVG Version: 6.00 Build 0)  -->
<svg version="1.1" id="Layer_1" xmlns="http://www.w3.org/2000/svg" xmlns:xlink="http://www.w3.org/1999/xlink" x="0px" y="0px"
	 viewBox="0 0 65 60" style="enable-background:new 0 0 65 60;" xml:space="preserve">
<style type="text/css">
	.st0{fill-rule:evenodd;clip-rule:evenodd;fill:#007A80;}
</style>
<g id="Symbols">
	<g id="Group-6" transform="translate(-353.000000, -45.000000)">
		<g id="Group-3" transform="translate(353.000000, 45.000000)">
			<path id="Fill-1" class="st0" d="M51.3,31.5H34.1v-5.2l17.3-6.1V31.5z M60.4,34.3c0.1,0.2,0.1,0.3-0.1,0.5
				c-1.4,1.8-2.2,3.9-2.4,6.2H18.1c-0.2,0-0.4,0.2-0.4,0.4v1.7c0,0.2,0.2,0.4,0.4,0.4h3v6.9H7.8c-0.6-0.1-1.2-0.4-1.6-0.9
				c-2.5-4.5-2.5-10,0-14.5c0.4-0.5,1-0.9,1.6-1H60C60.1,34.1,60.3,34.2,60.4,34.3z M60.4,50.2c-0.1,0.2-0.2,0.2-0.4,0.2H34.1v-6.9
				h23.8c0.2,2.3,1,4.4,2.4,6.2C60.4,49.9,60.4,50.1,60.4,50.2L60.4,50.2z M31.5,56.3l-3.2-2.1c-0.4-0.3-1-0.3-1.4,0l-3.2,2.1V43.6
				h7.8V56.3z M13.4,20.3l17.9,6.2l0.2,0.1v4.9H13.4V20.3z M2.6,13.4c0-0.2,0.1-0.3,0.3-0.4L32.2,2.6c0,0,0.1,0,0.2,0
				c0.1,0,0.1,0,0.2,0L61.8,13c0.2,0.1,0.3,0.2,0.3,0.4c0,0.2-0.1,0.4-0.3,0.4L32.5,24.2c-0.1,0-0.2,0-0.4,0L2.9,13.8
				C2.7,13.7,2.6,13.6,2.6,13.4L2.6,13.4z M62.7,16.3c1.6-0.6,2.4-2.3,1.8-3.9c-0.3-0.9-1-1.5-1.8-1.8L33.5,0.2
				c-0.7-0.3-1.5-0.3-2.2,0L2,10.5c-1.6,0.6-2.4,2.3-1.8,3.9c0.3,0.9,1,1.5,1.8,1.8l8.8,3.1v12.2h-3c-1.6,0.1-3,0.9-3.9,2.3
				c-3,5.3-3,11.8,0,17.1c0.9,1.3,2.3,2.1,3.8,2.2h13.3v5.6c0,0.5,0.3,0.9,0.7,1.1c0.4,0.2,0.9,0.2,1.3-0.1l4.5-3l4.5,3
				c0.2,0.2,0.5,0.2,0.7,0.2c0.7,0,1.3-0.6,1.3-1.3v-5.6H60c1.7,0,3-1.4,3-3c0-0.7-0.2-1.3-0.6-1.8c-2.6-3.5-2.6-8.3,0-11.8
				c1-1.3,0.8-3.2-0.5-4.2c-0.5-0.4-1.2-0.6-1.9-0.6h-6V19.3L62.7,16.3z"/>
		</g>
	</g>
</g>
</svg>
