<?xml version="1.0" encoding="utf-8"?>
<!-- Generator: Adobe Illustrator 25.2.1, SVG Export Plug-In . SVG Version: 6.00 Build 0)  -->
<svg version="1.1" id="Layer_1" xmlns="http://www.w3.org/2000/svg" xmlns:xlink="http://www.w3.org/1999/xlink" x="0px" y="0px"
	 viewBox="0 0 20 20" style="enable-background:new 0 0 20 20;" xml:space="preserve">
<style type="text/css">
	.st0{fill:#115258;}
</style>
<g id="Desktop">
	<g id="Module-Page---Local-Resources-and-Guidelines" transform="translate(-953.000000, -1596.000000)">
		<g id="Local-Resources-Open" transform="translate(650.000000, 1453.000000)">
			<g id="Vocabulary" transform="translate(0.000000, 62.000000)">
				<g id="Print" transform="translate(0.000000, 69.000000)">
					<g transform="translate(303.000000, 11.000000)">
						<g id="icon" transform="translate(0.000000, 1.000000)">
							<path class="st0" d="M10,20C4.5,20,0,15.5,0,10C0,4.5,4.5,0,10,0c5.5,0,10,4.5,10,10C20,15.5,15.5,20,10,20z M10,1
								c-5,0-9,4-9,9c0,5,4,9,9,9c5,0,9-4,9-9C19,5,15,1,10,1z"/>
							<g id="Group-5" transform="translate(7.000000, 4.000000)">
								<path class="st0" d="M7,11.4H0c-0.2,0-0.4-0.2-0.4-0.4V0c0-0.2,0.2-0.4,0.4-0.4h3.5c0.1,0,0.2,0,0.3,0.1l3.5,3.8
									c0.1,0.1,0.1,0.2,0.1,0.3V11C7.4,11.2,7.2,11.4,7,11.4z M0.4,10.6h6.2V3.9L3.3,0.4h-3V10.6z"/>
								<path class="st0" d="M7,4.4H3C2.8,4.4,2.6,4.2,2.6,4V0c0-0.2,0.2-0.4,0.4-0.4S3.4-0.2,3.4,0v3.6H7c0.2,0,0.4,0.2,0.4,0.4
									S7.2,4.4,7,4.4z"/>
							</g>
						</g>
					</g>
				</g>
			</g>
		</g>
	</g>
</g>
</svg>
