<svg id="Layer_1" data-name="Layer 1" xmlns="http://www.w3.org/2000/svg" viewBox="0 0 1080 200"><defs><style>.cls-1{fill:#4B0550;}</style></defs><path class="cls-1" d="M40.84,132.4q-4.83-14-9.53-29T22.57,73q-4-15.3-7.11-29.91h14.8q2.29,12.24,5.42,25.51T42.38,95q3.57,13.14,7.33,25.07l18.05-67.8H82.43l18.11,67.93q3.76-11.94,7.43-25.1t6.86-26.44q3.19-13.26,5.48-25.57h14.35q-3,14.61-7.08,29.91t-8.73,30.36q-4.66,15-9.57,29H91.55L74.9,69.83,58.26,132.4Z"/><path class="cls-1" d="M175.42,133.93a30.32,30.32,0,0,1-16.1-4.21A28.81,28.81,0,0,1,148.54,118a37.65,37.65,0,0,1-3.86-17.41,37.87,37.87,0,0,1,3.86-17.44,29,29,0,0,1,10.78-11.8,30.25,30.25,0,0,1,16.1-4.24h1.41a26.43,26.43,0,0,1,14.7,4.11,27.35,27.35,0,0,1,9.92,11.86Q205,90.82,205,101.72v3.89H157.89q1.14,7.85,5.9,12.34t12.4,4.5h1.28a21.41,21.41,0,0,0,8.8-1.88,21,21,0,0,0,7.08-5.07l7.84,8.29a31.47,31.47,0,0,1-10.68,7.4,34.08,34.08,0,0,1-13.68,2.74Zm-.37-55.36a15.58,15.58,0,0,0-11.39,4.49q-4.56,4.5-5.77,12.28H192.2a20.66,20.66,0,0,0-4.63-11.92c-2.69-3.24-6.45-4.85-11.25-4.85Z"/><path class="cls-1" d="M284.1,132.4V56H254.25V43.11h73.22V56H297.62V132.4Z"/><path class="cls-1" d="M346.09,132.4V39.28h12.75v40a27,27,0,0,1,8.78-8.93,22.69,22.69,0,0,1,12.21-3.25h1.4q11,0,16.84,7.46t5.8,21V132.4H391.12V97.06Q391.12,79,378,79H376.7a16.15,16.15,0,0,0-11.06,4,24.42,24.42,0,0,0-6.8,10.14V132.4Z"/><path class="cls-1" d="M434.29,57.27a8.08,8.08,0,0,1-6.15-2.39,8.53,8.53,0,0,1-2.27-6.1,8.48,8.48,0,0,1,2.27-6.12,9.25,9.25,0,0,1,12.34,0,8.54,8.54,0,0,1,2.23,6.12,8.59,8.59,0,0,1-2.23,6.1A8.07,8.07,0,0,1,434.29,57.27Zm-6.38,75.13V68.62h12.76V132.4Z"/><path class="cls-1" d="M465.8,132.4V68.62h12.75V79.27a27,27,0,0,1,8.78-8.93,22.69,22.69,0,0,1,12.21-3.25h1.4q10.59,0,16.61,7.46t6,21V132.4H510.83V97.06Q510.83,79,497.69,79h-1.28a16.13,16.13,0,0,0-11.06,4,24.42,24.42,0,0,0-6.8,10.14V132.4Z"/><path class="cls-1" d="M547.62,132.4V39.28h12.76V95.92q7.65-6.7,14.92-13.65t13.46-13.65h15.75q-7.07,7.78-14.89,15.31t-16,14.6Q582,106,590.71,114.67t16.87,17.73H590.93q-6.95-7.65-15-15.85t-15.5-14.64V132.4Z"/><path class="cls-1" d="M661.52,132.4V43.11h35.15q13.71,0,23.62,5.77a39.16,39.16,0,0,1,15.25,15.85,48.52,48.52,0,0,1,5.32,23,48.54,48.54,0,0,1-5.32,23,39.16,39.16,0,0,1-15.25,15.85q-9.91,5.76-23.62,5.77ZM696.6,55.86H675v63.78H696.6q9.51,0,16.27-4a26.29,26.29,0,0,0,10.36-11.13,37,37,0,0,0,3.6-16.81,37,37,0,0,0-3.6-16.8,26.18,26.18,0,0,0-10.36-11.13A31.66,31.66,0,0,0,696.6,55.86Z"/><path class="cls-1" d="M769.75,57.27a8.08,8.08,0,0,1-6.15-2.39,8.53,8.53,0,0,1-2.27-6.1,8.48,8.48,0,0,1,2.27-6.12,9.25,9.25,0,0,1,12.34,0,8.54,8.54,0,0,1,2.23,6.12,8.59,8.59,0,0,1-2.23,6.1A8.07,8.07,0,0,1,769.75,57.27Zm-6.38,75.13V68.62h12.76V132.4Z"/><path class="cls-1" d="M824.54,113.14a37.81,37.81,0,0,1-8.42-.9c-1.7,1.92-2.55,3.68-2.55,5.3q0,4.77,7.46,4.78h15.05q11,0,16.87,4.4t5.84,12.57q0,10.2-9.22,15.82t-25.86,5.61q-14,0-21.68-4.18t-7.66-12.09q0-9.69,12.31-15.18a10.82,10.82,0,0,1-3.57-8.16q0-6.06,5.42-11.87-10.39-6.18-10.4-19.13,0-10.26,7-16.64t19.42-6.38h1.15a35.54,35.54,0,0,1,8.45,1,27.25,27.25,0,0,1,7,2.75q3.76-7.28,13.46-7.27a27.57,27.57,0,0,1,5,.51V74.42a19.77,19.77,0,0,0-3.2-.64c-.89-.08-1.65-.12-2.29-.12q-4.79,0-7.08,2a21.41,21.41,0,0,1,5.1,14.47q0,10.22-7,16.62t-19.42,6.41ZM806.87,142q0,8.29,18,8.3,10.46,0,15.94-2.81t5.49-7.46q0-6.88-11.61-6.89H817.46q-.76,0-1.53-.06a16.48,16.48,0,0,0-6.67,3.66A7.19,7.19,0,0,0,806.87,142Zm17.73-39.34h1c4.55,0,8-1.15,10.5-3.42a11.82,11.82,0,0,0,3.66-9.09A11.85,11.85,0,0,0,836.12,81q-3.68-3.4-10.5-3.41h-1q-6.83,0-10.49,3.41a11.82,11.82,0,0,0-3.67,9.09,11.79,11.79,0,0,0,3.67,9.09C816.55,101.47,820.05,102.62,824.6,102.62Z"/><path class="cls-1" d="M883.72,57.27a8.08,8.08,0,0,1-6.15-2.39,8.53,8.53,0,0,1-2.27-6.1,8.48,8.48,0,0,1,2.27-6.12,9.25,9.25,0,0,1,12.34,0,8.54,8.54,0,0,1,2.23,6.12,8.59,8.59,0,0,1-2.23,6.1A8.07,8.07,0,0,1,883.72,57.27Zm-6.38,75.13V68.62H890.1V132.4Z"/><path class="cls-1" d="M943.92,133.23q-11.34,0-17.28-5.74t-5.93-17.67V79.72h-12.5V68.62h12.5v-19h12.76v19H955v11.1H933.47V108.1c0,5,1,8.5,3.12,10.46s5.16,2.93,9.25,2.93a51.71,51.71,0,0,0,5.26-.25c1.55-.17,3.16-.39,4.81-.64v11.16a50.37,50.37,0,0,1-5.74,1.05A47.9,47.9,0,0,1,943.92,133.23Z"/><path class="cls-1" d="M992.79,133.67q-10.1,0-15.66-5.2t-5.58-13.67a18.21,18.21,0,0,1,6.28-14.1Q984.12,95,997.89,95h17.34v-.19q0-16.06-14.79-16.07A22.16,22.16,0,0,0,990,81a18.17,18.17,0,0,0-6.86,6.25l-8.73-7.08a27.24,27.24,0,0,1,10.74-9.69,32.93,32.93,0,0,1,15.15-3.38h1.4q11.73,0,18.88,6.76t7.14,20.22V132.4h-12.24V122a25.19,25.19,0,0,1-9.51,8.64A28,28,0,0,1,992.79,133.67Zm2.8-11.35A21.4,21.4,0,0,0,1007.9,119a20.22,20.22,0,0,0,7.33-9.09V105H998.4q-7.53,0-10.75,2.4a7.62,7.62,0,0,0-3.22,6.47Q984.43,122.33,995.59,122.32Z"/><path class="cls-1" d="M1051.78,132.4V39.28h12.76V132.4Z"/></svg>