<svg id="Layer_1" data-name="Layer 1" xmlns="http://www.w3.org/2000/svg" viewBox="0 0 200 200"><defs><style>.cls-1{fill:#26a49a;}</style></defs><path class="cls-1" d="M11.18,130.94A94.15,94.15,0,0,1,100,5.7c2.85,0,5.73.13,8.56.39l.4-4.48c-3-.27-6-.41-9-.41A98.66,98.66,0,0,0,6.93,132.43Z"/><path class="cls-1" d="M100,193.9a94.07,94.07,0,0,1-48.1-13.2l-2.3,3.86a98.72,98.72,0,0,0,99.53.75l-2.25-3.9A94.07,94.07,0,0,1,100,193.9Z"/><path class="cls-1" d="M193.58,130.94a98.84,98.84,0,0,0-10.09-83.62l-3.81,2.4a94.32,94.32,0,0,1,9.63,79.8Z"/><path class="cls-1" d="M47.58,102.44H76.25v-32H47.58Zm3-29H73.25v26H50.58Z"/><path class="cls-1" d="M122,143.93h47.12v-21H122Zm3-18h41.12v15H125Z"/><path class="cls-1" d="M186.14,110.07H172l-2.63-11H152.53V73a30.12,30.12,0,0,0,23.14-29.25V43.6c14.74-.73,19.29-17.42,19.62-26.4l0-4.08H175.67V3.73H115.53v9.39H95.69l-.08,3.25v.06c.25,9.26,4.75,26.62,19.92,27.18v.11A30.12,30.12,0,0,0,138.67,73V99.06H121.82l-2.63,11H105.06v42.28H97.58l-3.77-15.76h-4.9V57.89H20.66v78.7H14.51l-3.77,15.76H5.61V177H193.69V152.35h-7.55Zm4.62-92.45a39.21,39.21,0,0,1-2.48,10.92c-2.67,6.65-6.91,10.19-12.61,10.56V17.62ZM102.55,28.17a40.12,40.12,0,0,1-2.35-10.55h15.33V39.11C109.61,38.82,105.24,35.15,102.55,28.17ZM120,43.72V8.23h51.14V43.72a25.57,25.57,0,0,1-51.14,0Zm23.14,30c.8.06,1.61.11,2.43.11s1.63-.05,2.43-.11V99.06h-4.86Zm-17.8,29.88h40.46l1.56,6.51H123.82Zm-15.81,11h72.08v37.78H109.56Zm-19.3,26.52L93,152.35H30.13l2.69-11.26H90.26ZM38.5,62.39H84.41v74.2H38.5Zm-13.34,0H34v74.2H25.16Zm-7.1,78.7H28.2l-2.7,11.26H15.36Zm171.13,15.76v15.62H10.11V156.85H189.19Z"/><path class="cls-1" d="M160.18,31.36A14.58,14.58,0,1,0,145.6,45.94,14.6,14.6,0,0,0,160.18,31.36Zm-26.16,0A11.58,11.58,0,1,1,145.6,42.94,11.6,11.6,0,0,1,134,31.36Z"/></svg>