<svg id="Layer_1" data-name="Layer 1" xmlns="http://www.w3.org/2000/svg" viewBox="0 0 200 200"><defs><style>.cls-1{fill:#26a49a;}</style></defs><path class="cls-1" d="M178.21,39.73a99.4,99.4,0,0,0-50.65-35L126.29,9a94.75,94.75,0,0,1,48.33,33.43,94.23,94.23,0,0,1,13.21,89.67l4.22,1.57a98.76,98.76,0,0,0-13.84-94Z"/><path class="cls-1" d="M49.31,19.75,46.9,16A98.86,98.86,0,0,0,24.21,35.76l3.44,2.9A94.41,94.41,0,0,1,49.31,19.75Z"/><path class="cls-1" d="M99.62,193.38a93.24,93.24,0,0,1-56.7-19,94.85,94.85,0,0,1-33.47-48.1l-4.31,1.29A99.33,99.33,0,0,0,40.21,178a97.67,97.67,0,0,0,59.41,19.91,98.73,98.73,0,0,0,25.14-3.24l-1.14-4.35A94.38,94.38,0,0,1,99.62,193.38Z"/><path class="cls-1" d="M154.56,148.11a16.38,16.38,0,1,0-16.38-16.38A16.39,16.39,0,0,0,154.56,148.11Zm0-29.75a13.38,13.38,0,1,1-13.38,13.37A13.39,13.39,0,0,1,154.56,118.36Z"/><path class="cls-1" d="M167.42,89.43V80.24h-6.83V74.1l8.43-.64v3.05h12.8V59.86l-20.45-.74V45.66H117.43V1.72H55.19V45.66H11.25v62.23H55.19v44h62.24V107.89h10.76l-6.28,59.33,4.42,17.17h56.3l4.83-17.14-8.23-77.82Zm-35,21.66H177l4.37,41.28H128Zm42.81-17.16,1.5,14.16h-44l1.5-14.16h41Zm-12.26-4.5H146.2V84.74h16.72Zm-6.83-9.19H153V74.67l3.06-.23ZM177.32,72h-3.8v-3.4l-27.64,2.08V63.06l31.44,1.14Zm-64.39,31.38v44H59.69V103.39H15.75V50.16H59.69V6.22h53.24V50.16h43.94V59l-15.49-.57V75.55l7.15-.54v5.23H141.7v9.19H130.14l-1.48,14Zm66.29,76.5H129.81l-3.34-13,1.22-11.52h54l1.21,11.49Z"/><polygon class="cls-1" points="45.72 161.31 104.95 161.31 104.95 158.31 48.72 158.31 48.72 114.37 4.78 114.37 4.78 58.13 1.78 58.13 1.78 117.37 45.72 117.37 45.72 161.31"/></svg>