<svg id="Layer_1" data-name="Layer 1" xmlns="http://www.w3.org/2000/svg" viewBox="0 0 200 200"><defs><style>.cls-1{fill:#26a49a;}</style></defs><path class="cls-1" d="M7.6,65.53a98.92,98.92,0,0,0-.07,68.75l4.21-1.56a94.56,94.56,0,0,1,.07-65.62Z"/><path class="cls-1" d="M100,194.1a94,94,0,0,1-27.94-4.22l-1.33,4.3a99.19,99.19,0,0,0,55,1l-1.17-4.35A94.29,94.29,0,0,1,100,194.1Z"/><path class="cls-1" d="M100,1.4a98.81,98.81,0,0,0-47.17,12L55,17.34A94.14,94.14,0,0,1,186.06,138.12l4.11,1.83A98.65,98.65,0,0,0,100,1.4Z"/><path class="cls-1" d="M135.85,114.74h-4v21h4v49.54h45.78v-54h-4v-13h4v-21H135.85Zm12.1-1v-12h7v12Zm-7.6,22H145v12h-4.6Zm0,33H145v12h-4.6Zm14.6,0v12h-7v-12Zm22.18,12H168v-7.38h-3v7.38h-7v-12h19.18Zm0-16.51H140.35v-12h36.78ZM158,147.76v-7.38h-3v7.38h-7v-12h29.18v12Zm-21.6-16.51v-12h36.78v12Zm40.78-17.47H168v-6.91h-3v6.91h-7v-12h19.18Zm-36.78-12H145v12h-4.6Z"/><polygon class="cls-1" points="96.63 76.89 81.31 77.06 120.23 23.01 159.16 77.06 143.84 76.89 143.84 91.66 148.34 91.66 148.34 81.44 168.01 81.65 120.23 15.3 72.45 81.65 92.13 81.44 92.13 185.29 131.32 185.29 131.32 180.79 96.63 180.79 96.63 76.89"/><polygon class="cls-1" points="87.34 180.79 43.34 180.79 43.34 131.45 87.34 131.45 87.34 126.95 38.84 126.95 38.84 185.29 87.34 185.29 87.34 180.79"/><polygon class="cls-1" points="87.34 115.21 27.38 115.21 27.38 171.31 31.88 171.31 31.88 119.71 87.34 119.71 87.34 115.21"/><polygon class="cls-1" points="87.34 103.48 15.65 103.48 15.65 159.57 20.15 159.57 20.15 107.98 87.34 107.98 87.34 103.48"/><path class="cls-1" d="M61.44,39.69,47.18,18.53H29.91L15.65,39.69v52H61.44Zm-4.5,47.54H20.15V41.07L32.3,23H44.79l12.15,18Z"/><path class="cls-1" d="M38.54,30.76A6.49,6.49,0,1,0,45,37.25,6.5,6.5,0,0,0,38.54,30.76Zm0,10A3.49,3.49,0,1,1,42,37.25,3.5,3.5,0,0,1,38.54,40.74Z"/></svg>