<svg id="Layer_1" data-name="Layer 1" xmlns="http://www.w3.org/2000/svg" viewBox="0 0 200 200"><defs><style>.cls-1{fill:#26a49a;}</style></defs><path class="cls-1" d="M187.7,153.23,154,44h0V43.9H127.07V30.73H108.59V19.43H36.12v11.3H18.41V159.79h-9v24H190.62v-24H166.41Zm-50.27,6.56-10.36-33.6V63.72l29.62,96.07Zm-4.71,0h-5.65V141.47Zm18.4-33.34,21.57-6.64,4.82,15.62-21.57,6.65Zm9.39,30.46-3.69-12,21.57-6.65,3.68,12Zm11.3-40-21.57,6.65L129.49,56.28l21.57-6.65Zm-32-68.54-12.71,3.92V48.4ZM122.57,35.23V159.79h-14V35.23Zm-37,0v26h-21v-26Zm18.48,87.88h-14V111.75h14ZM64.66,64.24h21V81.58h-21Zm0,20.34h21v56.07h-21Zm0,59.07h21v16.14h-21Zm25.45-17.54h14v33.68h-14Zm14-17.36h-14V23.93h14ZM40.62,23.93h45v6.8h-45Zm.43,11.3h9.29V68.28L45.7,64.62l-4.65,3.66Zm-18.14,0H38.05V74.46l7.65-6,7.64,6V35.23h6.82V159.79H22.91Zm163.21,144H13.88v-15H186.12Z"/><path class="cls-1" d="M13.69,137.55a94.4,94.4,0,0,1,0-75.1l-4.12-1.8a98.82,98.82,0,0,0,0,78.69Z"/><path class="cls-1" d="M100,194.1a93.79,93.79,0,0,1-34.21-6.41l-1.64,4.19a99,99,0,0,0,71.69,0l-1.63-4.19A93.79,93.79,0,0,1,100,194.1Z"/><path class="cls-1" d="M100,1.4A97.64,97.64,0,0,0,56.18,11.65l2,4A93.15,93.15,0,0,1,100,5.9a94.16,94.16,0,0,1,87.7,128.28l4.19,1.64A98.66,98.66,0,0,0,100,1.4Z"/></svg>