<svg id="Layer_1" data-name="Layer 1" xmlns="http://www.w3.org/2000/svg" viewBox="0 0 200 200"><defs><style>.cls-1{fill:#26a49a;}</style></defs><path class="cls-1" d="M99.82,194.26a93.29,93.29,0,0,1-56.55-18.88A94.93,94.93,0,0,1,9.76,127.52l-4.3,1.31A99.36,99.36,0,0,0,40.56,179a97.72,97.72,0,0,0,59.26,19.79,98.9,98.9,0,0,0,45.56-11.13l-2.08-4A94.34,94.34,0,0,1,99.82,194.26Z"/><path class="cls-1" d="M99.82,6.07a94,94,0,0,1,91.25,71l4.37-1.1A98.65,98.65,0,0,0,44.64,18.44l2.52,3.73A93.57,93.57,0,0,1,99.82,6.07Z"/><path class="cls-1" d="M116.39,118.57V103.35h-4.5v12L61.26,131.85V60.53L111.89,44V87h4.5V40.05L60.47,21.78,4.56,40.05v78.52l55.91,18.27Zm-8.29-76.5L60.47,57.63,12.85,42.07,60.47,26.52ZM9.06,44l49.2,16.08v71.31L9.06,115.31Z"/><path class="cls-1" d="M121.87,71.58l1.4,4.28,15.9-5.2,47.62,15.56-47.62,15.56L91.55,86.22l14.6-4.77-1.4-4.28-21.49,7V118h4.5V88.14l49.91,16.3v71.32L87.76,159.45v-25h-4.5v28.25L139.17,181l55.91-18.26V84.19L139.17,65.93Zm18.8,104.18V104.44l49.91-16.3v71.31Z"/></svg>