<svg id="Layer_1" data-name="Layer 1" xmlns="http://www.w3.org/2000/svg" viewBox="0 0 200 200"><defs><style>.cls-1{fill:#26a49a;}</style></defs><path class="cls-1" d="M139.59,54.59l-.73,2.91a21.7,21.7,0,0,1,4.8,1.82l1.39-2.65A24.63,24.63,0,0,0,139.59,54.59Z"/><path class="cls-1" d="M150.53,60.58l-2.05,2.19a28.73,28.73,0,0,1,7.69,13.15l2.88-.82A31.58,31.58,0,0,0,150.53,60.58Z"/><path class="cls-1" d="M102.27,164.19l1.23-.79c46.11-29.74,68.53-56,68.53-80.16,0-23.45-15.19-40.47-36.11-40.47-18.49,0-29.4,13.6-33.64,20.25C98,56.37,87.13,42.77,68.64,42.77c-20.92,0-36.11,17-36.11,40.47A44.19,44.19,0,0,0,35,97.59l4.25-1.46A39.67,39.67,0,0,1,37,83.24c0-17.88,10.86-36,31.61-36,21.09,0,31.51,21,31.61,21.25l2,4.21,2-4.2c.1-.22,10.52-21.26,31.61-21.26,20.75,0,31.61,18.09,31.61,36,0,22-21.95,47.45-65.24,75.58-6-3.94-11-7.36-15.61-10.69l-2.62,3.65c5,3.6,10.4,7.29,17,11.61Z"/><path class="cls-1" d="M66.91,155.47l1.23-.79C89,141.26,99.07,129.3,99.07,118.12S91.82,98.94,81.82,98.94c-7.52,0-12.39,4.7-14.9,8-2.5-3.33-7.38-8-14.9-8-10,0-17.25,8.06-17.25,19.18,0,7.58,3.52,18.58,30.92,36.55ZM39.27,118.12c0-7.3,4.38-14.68,12.75-14.68,8.53,0,12.7,8.35,12.87,8.7l2,4.18,2-4.17c.17-.36,4.35-8.71,12.87-8.71s12.75,7.38,12.75,14.68c0,9.19-9.3,19.95-27.64,32C53.79,141.38,39.27,130,39.27,118.12Z"/><rect class="cls-1" x="21.14" y="154.46" width="21.63" height="3" transform="translate(-92.4 56.56) rotate(-39.79)"/><rect class="cls-1" x="42.55" y="162.38" width="13.73" height="3" transform="translate(-119.75 137.75) rotate(-64.44)"/><rect class="cls-1" x="14.29" y="138.69" width="17.43" height="3" transform="translate(-43.78 14.8) rotate(-18.72)"/><path class="cls-1" d="M100,1.4A98.67,98.67,0,0,0,6.67,131.89l4.26-1.45a94.23,94.23,0,1,1,25.38,38.82l-3.05,3.32A98.6,98.6,0,1,0,100,1.4Z"/><rect class="cls-1" x="20.67" y="118.97" width="3" height="7.27" transform="translate(-101.33 139.05) rotate(-87.33)"/></svg>