<svg id="Layer_1" data-name="Layer 1" xmlns="http://www.w3.org/2000/svg" viewBox="0 0 200 200"><defs><style>.cls-1{fill:#26a49a;}</style></defs><path class="cls-1" d="M184.42,22.37,79.17,15.28,78,33.43H47.24v150.8H160.66V168.86l13.33.9ZM156.16,179.73H51.74V37.93H156.16Zm4.5-15.38V33.43H82.46l.9-13.36,96.25,6.48L169.82,165Z"/><polygon class="cls-1" points="91.85 65.12 88.85 65.12 88.85 77.98 69.17 77.98 69.17 58.3 87.86 58.3 79.68 68.25 76.5 64.62 73.11 67.59 79.79 75.19 100.7 49.78 97.23 46.92 90.33 55.3 66.17 55.3 66.17 80.98 91.85 80.98 91.85 65.12"/><polygon class="cls-1" points="91.85 107.16 88.85 107.16 88.85 119.69 69.17 119.69 69.17 100 87.33 100 79.68 109.3 76.5 105.67 73.11 108.64 79.79 116.24 96.15 96.36 92.68 93.5 89.8 97 66.17 97 66.17 122.69 91.85 122.69 91.85 107.16"/><polygon class="cls-1" points="91.85 148.97 88.85 148.97 88.85 161.39 69.17 161.39 69.17 141.71 87.28 141.71 79.68 150.95 76.5 147.33 73.11 150.3 79.79 157.9 98.01 135.76 94.53 132.9 89.75 138.71 66.17 138.71 66.17 164.39 91.85 164.39 91.85 148.97"/><rect class="cls-1" x="103.04" y="71.28" width="32.14" height="3"/><rect class="cls-1" x="103.04" y="61.99" width="38.39" height="3"/><rect class="cls-1" x="103.04" y="112.99" width="24.74" height="3"/><rect class="cls-1" x="103.04" y="103.7" width="38.39" height="3"/><rect class="cls-1" x="103.04" y="154.7" width="16.07" height="3"/><rect class="cls-1" x="103.04" y="145.41" width="32.14" height="3"/><path class="cls-1" d="M37.13,125.3V34.41H34.07V20.64H21.47V34.41H18.4V125.3l9.37,22.49Zm-4.5-12H22.9V38.91h9.73ZM26,25.14h3.6v9.27H26ZM22.9,116.32h9.73v8.08l-4.86,11.68L22.9,124.4Z"/><rect class="cls-1" x="26.27" y="46.34" width="3" height="34.42"/><path class="cls-1" d="M5.9,100a93.63,93.63,0,0,1,7-35.6L8.7,62.69a98.71,98.71,0,0,0,29,113.7l2.85-3.48A93.82,93.82,0,0,1,5.9,100Z"/><path class="cls-1" d="M100,194.1a94,94,0,0,1-32.47-5.75L66,192.57a99,99,0,0,0,64.57,1.2l-1.39-4.28A93.86,93.86,0,0,1,100,194.1Z"/><path class="cls-1" d="M190.43,60.65l-4.12,1.8a94.27,94.27,0,0,1-6.63,87.63l3.81,2.4a98.76,98.76,0,0,0,6.94-91.83Z"/><path class="cls-1" d="M139,14.32l1.86-4.1A98.73,98.73,0,0,0,40.88,21.08l2.7,3.6A94.22,94.22,0,0,1,139,14.32Z"/></svg>