<svg xmlns="http://www.w3.org/2000/svg" viewBox="0 0 1000.02 110"><path d="M79.35,3.48V17.41A1.43,1.43,0,0,1,78,18.92H18V47.39H67.38a1.43,1.43,0,0,1,1.51,1.35v14.1a1.43,1.43,0,0,1-1.35,1.51H18v42.09A1.43,1.43,0,0,1,16.69,108H1.51A1.44,1.44,0,0,1,0,106.61V3.45A1.44,1.44,0,0,1,1.35,1.93H77.82a1.44,1.44,0,0,1,1.53,1.34A.74.74,0,0,1,79.35,3.48Z" transform="translate(0.01 0.03)" style="fill:#fff"/><path d="M201.39,108h-16.5a1.66,1.66,0,0,1-1.75-1.37c-2.19-8.7-4.84-17.86-7.87-27.1H124.62c-3,9.24-5.68,18.4-7.8,27.1a1.64,1.64,0,0,1-1.74,1.37H99.18c-1.06,0-1.66-.61-1.36-1.67,9.54-33.76,24.07-71,38.76-102.36a2.9,2.9,0,0,1,3-2H161a2.9,2.9,0,0,1,3,2A692.44,692.44,0,0,1,202.77,106.3C203.06,107.35,202.45,108,201.39,108ZM169.67,63.15c-5.53-15.3-11.66-30.59-18-44.52h-3.55c-6.29,13.93-12.5,29.22-18,44.52Z" transform="translate(0.01 0.03)" style="fill:#fff"/><path d="M228.49,55.87C228.49,23,250.14,0,281,0h2.27C302.67,0,317.66,9.81,325.61,24a1.34,1.34,0,0,1-.15,1.89,1.14,1.14,0,0,1-.38.23l-13.33,6.59a1.85,1.85,0,0,1-2.56-.53l-.09-.15c-5.6-9.69-14-14.84-26.42-14.84h-2.27c-19.46,0-32.86,15.44-32.86,37.85s13.17,37.55,32.86,37.55h2.27c12.72,0,20.14-4.31,25.82-10.9a1.93,1.93,0,0,1,2.5-.53l13.7,6.66a1.27,1.27,0,0,1,.76,1.06,2,2,0,0,1-.46,1.14c-8.4,12.27-23.54,19.84-42,19.84h-2.27C249.31,110,228.49,88.35,228.49,55.87Z" transform="translate(0.01 0.03)" style="fill:#fff"/><path d="M446.23,92.51v13.93a1.44,1.44,0,0,1-1.36,1.52H365.22a1.43,1.43,0,0,1-1.51-1.34V3.44A1.43,1.43,0,0,1,365,1.92h78.31a1.44,1.44,0,0,1,1.52,1.36V17.37a1.43,1.43,0,0,1-1.34,1.51H381.72V46.44h50.12a1.44,1.44,0,0,1,1.52,1.36V61.74A1.44,1.44,0,0,1,432,63.25H381.72V91h63a1.42,1.42,0,0,1,1.51,1.34A.67.67,0,0,1,446.23,92.51Z" transform="translate(0.01 0.03)" style="fill:#fff"/><path d="M583.11,78.89c0,18.54-14.23,29.07-39.37,29.07H491.65a1.43,1.43,0,0,1-1.51-1.34V3.44a1.43,1.43,0,0,1,1.33-1.52h47.65c24.46,0,37.78,9.69,37.78,27.41C576.9,41,571,48.64,559,52.19,575.84,55.79,583.11,65.86,583.11,78.89ZM538.74,18.47H508.16V47h30.58c13.71,0,20-4.47,20-14.24S552.45,18.47,538.74,18.47Zm25.9,58.83c0-9.85-6.51-14.31-20.82-14.31H508.16V91.45h35.66C558.35,91.45,564.64,87.21,564.64,77.3Z" transform="translate(0.01 0.03)" style="fill:#fff"/><path d="M614.83,55C614.83,23,636,0,669.34,0h2.27c33.31,0,54.51,23,54.51,55s-21.2,55-54.51,55h-2.27C636,110,614.83,86.91,614.83,55Zm56.78,37.7C693.34,92.67,707,77.76,707,55s-13.7-37.7-35.43-37.7h-2.27c-21.73,0-35.43,14.91-35.43,37.7s13.7,37.7,35.43,37.7Z" transform="translate(0.01 0.03)" style="fill:#fff"/><path d="M756.86,55c0-31.95,21.2-55,54.51-55h2.27C847,0,868.15,23,868.15,55s-21.2,55-54.51,55h-2.27C778.06,110,756.86,86.91,756.86,55Zm56.78,37.7c21.73,0,35.43-14.91,35.43-37.7s-13.7-37.7-35.43-37.7h-2.27c-21.73,0-35.43,14.91-35.43,37.7s13.7,37.7,35.43,37.7Z" transform="translate(0.01 0.03)" style="fill:#fff"/><path d="M998.75,108H979.21a2.89,2.89,0,0,1-2.65-1.29,413.35,413.35,0,0,0-43.68-44H924.1v43.76a1.44,1.44,0,0,1-1.36,1.52H907.58a1.43,1.43,0,0,1-1.51-1.34V3.44a1.43,1.43,0,0,1,1.33-1.52h15.18a1.44,1.44,0,0,1,1.52,1.36v42H933A325.79,325.79,0,0,0,972.53,3.1,2.46,2.46,0,0,1,974.8,2h18.48c.9,0,1.36.46,1.36,1.06a1.89,1.89,0,0,1-.53,1.14,377.57,377.57,0,0,1-47.32,49.21,456.67,456.67,0,0,1,52.77,52.69C1000.41,107.05,1000,108,998.75,108Z" transform="translate(0.01 0.03)" style="fill:#fff"/></svg>
