<svg xmlns="http://www.w3.org/2000/svg" viewBox="0 0 585 96"><path d="M22.28 70.54h-4L0 6.37h4.41l16.13 57.49L38.09 6.37h5.44L61.4 63.86 76.6 6.37h4.51L63.35 70.54h-4L40.76 11zM84.54 47c0 11.91 6.57 20.63 17.35 20.63A24.24 24.24 0 0 0 115 63.76l.93 3.8a26.72 26.72 0 0 1-14.38 4c-12.83 0-21.35-10.06-21.35-24.33s8.72-24.74 21-24.74c9.24 0 16.33 6.16 16.33 16.22a34.21 34.21 0 0 1-1 7.39l-32 .21zM113 42.51a20.58 20.58 0 0 0 .31-3.49c0-7.4-4.62-12.63-12.12-12.63-8.73 0-14.89 6.57-16.32 16.12zM163.18 10.37v60.17h-4.31V10.37h-22.69v-4h49.7v4zM225.84 70.54V39.32c0-8.31-3.49-12.93-11.09-12.93-5.33 0-11.08 3-16.22 8.11v36h-4.21V1.34L198.53 0v30.6c5.44-5.55 12.22-8.11 16.74-8.11 9.24 0 14.78 5.54 14.78 15.91v32.14zM243.07 12.32a3.11 3.11 0 0 1-3-3.28 3 3 0 0 1 3-3.08A3.09 3.09 0 0 1 246.15 9a3.19 3.19 0 0 1-3.08 3.32zm-2 58.22V23.82l4.21-1.33v48.05zM290.13 70.54V39.32c0-8.31-3.5-12.93-11.09-12.93-5.34 0-11.09 3-16.23 8.11v36h-4.21V23.82l4.21-1.33v8.21c5.45-5.54 12.22-8.21 16.74-8.21 9.24 0 14.79 5.54 14.79 15.91v32.14zM309.31 46.82v23.72h-4.21V1.34L309.31 0v45.38h.2l22.8-21.87h5.44L314 46.1l23.82 24.44h-5.54l-22.8-23.72zM379.47 70.54h-14.89V6.37h15.5c20.74 0 34 12.93 34 31.62-.01 20.74-12.95 32.55-34.61 32.55zm.2-60.27h-10.78v56.37h10.78c17.56 0 30-8.73 30-28.24-.02-16.94-11.21-28.13-30-28.13zM425.73 12.32a3.11 3.11 0 0 1-3-3.28 3 3 0 0 1 3-3.08A3.09 3.09 0 0 1 428.81 9a3.2 3.2 0 0 1-3.08 3.32zm-2.06 58.22V23.82l4.21-1.33v48.05zM438.18 62.94c0-4 3.8-7 7.6-8.73A17.27 17.27 0 0 1 438.49 40c0-10.78 7.9-17.55 17.76-17.55a17.93 17.93 0 0 1 10.16 2.77l14-.82.3 4.31-11.71-.47a17.77 17.77 0 0 1 4.42 11.5c0 10.67-7.81 17.35-17.87 17.35a19.15 19.15 0 0 1-7.29-1.54c-3 1.43-5.85 3.49-5.85 6.47s2.67 5.23 10.57 5.23h7.81c13.24 0 18.58 4.93 18.58 12 0 10.27-12.11 16.74-24.13 16.74-12.94 0-20.64-5.85-20.64-13.66 0-5.44 4.62-10.47 10.37-12.42-4.12-1.12-6.79-3.48-6.79-6.97zm.31 19c0 6.06 6.16 10.58 17.14 10.58 10.68 0 19.72-5.75 19.72-12.73 0-6.06-5.34-8.63-14.58-8.63-3.29 0-7.91 0-11.19-.2-6.58 1.63-11.09 6.35-11.09 10.97zm17.35-28.24c8.21 0 13.35-6 13.35-13.76s-4.62-14-13.25-14C447.52 26 442.59 32 442.59 40c0 7.44 4.83 13.7 13.25 13.7zM489.72 12.32a3.11 3.11 0 0 1-3-3.28 3 3 0 0 1 3-3.08A3.09 3.09 0 0 1 492.8 9a3.19 3.19 0 0 1-3.08 3.32zm-2.05 58.22V23.82l4.21-1.33v48.05zM517.75 72.08c-8.73 0-11.91-5.44-11.6-15l.85-29.26-6.47-.41.31-2.67 6.26-.82.31-11.19h4.11L511.18 24h16.73l-.3 3.59h-16.53l-.83 29.57c-.2 7.7 2.06 11.09 7.6 11.09a20.6 20.6 0 0 0 9.55-2.77l.82 3.59a21.84 21.84 0 0 1-10.47 3.01zM565.23 64.17c-2.87 3.7-8.62 7.39-14.68 7.39-8.32 0-14.68-5-14.68-12.42 0-8.73 7.18-15.2 29-16.63v-4.32c0-7.18-3.49-11.8-11.5-11.8-5.65 0-12.11 3.18-15.81 6.06l-1-4.21c4.31-3.08 11.5-5.75 17.15-5.75 8.93 0 15.4 4.31 15.4 15.29v25.47c0 2.87.72 5 4.93 4.93l-.31 3.18c-4.62.2-8-2-8.32-7.19zm-.41-18.58c-18.38 1.85-24.74 6.26-24.74 13.14 0 5.85 5 9.14 11 9.14s10.78-3.7 13.76-7.29zM580.79 70.54V1.34L585 0v70.54z" fill="#fff"/></svg>