<?xml version="1.0" encoding="UTF-8"?>
<svg width="24px" height="24px" viewBox="0 0 24 24" version="1.1" xmlns="http://www.w3.org/2000/svg" xmlns:xlink="http://www.w3.org/1999/xlink">
    <title>Close Button</title>
    <g id="Symbols" stroke="none" stroke-width="1" fill="none" fill-rule="evenodd">
        <g id="Group-10" transform="translate(-1017.000000, -23.000000)" fill="#005B94">
            <path d="M1029,23 C1035.62742,23 1041,28.372583 1041,35 C1041,41.627417 1035.62742,47 1029,47 C1022.37258,47 1017,41.627417 1017,35 C1017,28.372583 1022.37258,23 1029,23 Z M1025.70711,30.2928932 C1025.31658,29.9023689 1024.68342,29.9023689 1024.29289,30.2928932 C1023.90237,30.6834175 1023.90237,31.3165825 1024.29289,31.7071068 L1024.29289,31.7071068 L1027.585,35 L1024.29289,38.2928932 L1024.2097,38.3871006 C1023.90468,38.7793918 1023.93241,39.3466228 1024.29289,39.7071068 L1024.29289,39.7071068 L1024.3871,39.7902954 C1024.77939,40.0953203 1025.34662,40.0675907 1025.70711,39.7071068 L1025.70711,39.7071068 L1029,36.415 L1032.29289,39.7071068 C1032.68342,40.0976311 1033.31658,40.0976311 1033.70711,39.7071068 C1034.09763,39.3165825 1034.09763,38.6834175 1033.70711,38.2928932 L1033.70711,38.2928932 L1030.415,35 L1033.70711,31.7071068 L1033.7903,31.6128994 C1034.09532,31.2206082 1034.06759,30.6533772 1033.70711,30.2928932 L1033.70711,30.2928932 L1033.6129,30.2097046 C1033.22061,29.9046797 1032.65338,29.9324093 1032.29289,30.2928932 L1032.29289,30.2928932 L1029,33.585 Z" id="Close-Button"></path>
        </g>
    </g>
</svg>