<?xml version="1.0" encoding="UTF-8"?>
<svg width="24px" height="24px" viewBox="0 0 24 24" version="1.1" xmlns="http://www.w3.org/2000/svg" xmlns:xlink="http://www.w3.org/1999/xlink">
    <title>Close Hover</title>
    <g id="Close-Hover" stroke="none" stroke-width="1" fill="none" fill-rule="evenodd">
        <path d="M12,0 C18.627417,0 24,5.372583 24,12 C24,18.627417 18.627417,24 12,24 C5.372583,24 0,18.627417 0,12 C0,5.372583 5.372583,0 12,0 Z M8.70710678,7.29289322 C8.31658249,6.90236893 7.68341751,6.90236893 7.29289322,7.29289322 C6.90236893,7.68341751 6.90236893,8.31658249 7.29289322,8.70710678 L7.29289322,8.70710678 L10.585,12 L7.29289322,15.2928932 L7.20970461,15.3871006 C6.90467972,15.7793918 6.93240926,16.3466228 7.29289322,16.7071068 L7.29289322,16.7071068 L7.38710056,16.7902954 C7.77939176,17.0953203 8.34662282,17.0675907 8.70710678,16.7071068 L8.70710678,16.7071068 L12,13.415 L15.2928932,16.7071068 C15.6834175,17.0976311 16.3165825,17.0976311 16.7071068,16.7071068 C17.0976311,16.3165825 17.0976311,15.6834175 16.7071068,15.2928932 L16.7071068,15.2928932 L13.415,12 L16.7071068,8.70710678 L16.7902954,8.61289944 C17.0953203,8.22060824 17.0675907,7.65337718 16.7071068,7.29289322 L16.7071068,7.29289322 L16.6128994,7.20970461 C16.2206082,6.90467972 15.6533772,6.93240926 15.2928932,7.29289322 L15.2928932,7.29289322 L12,10.585 Z" id="Close-Button" fill="#005B94"></path>
        <path d="M12,0 C18.627417,0 24,5.372583 24,12 C24,18.627417 18.627417,24 12,24 C5.372583,24 0,18.627417 0,12 C0,5.372583 5.372583,0 12,0 Z M8.70710678,7.29289322 C8.31658249,6.90236893 7.68341751,6.90236893 7.29289322,7.29289322 C6.90236893,7.68341751 6.90236893,8.31658249 7.29289322,8.70710678 L7.29289322,8.70710678 L10.585,12 L7.29289322,15.2928932 L7.20970461,15.3871006 C6.90467972,15.7793918 6.93240926,16.3466228 7.29289322,16.7071068 L7.29289322,16.7071068 L7.38710056,16.7902954 C7.77939176,17.0953203 8.34662282,17.0675907 8.70710678,16.7071068 L8.70710678,16.7071068 L12,13.415 L15.2928932,16.7071068 C15.6834175,17.0976311 16.3165825,17.0976311 16.7071068,16.7071068 C17.0976311,16.3165825 17.0976311,15.6834175 16.7071068,15.2928932 L16.7071068,15.2928932 L13.415,12 L16.7071068,8.70710678 L16.7902954,8.61289944 C17.0953203,8.22060824 17.0675907,7.65337718 16.7071068,7.29289322 L16.7071068,7.29289322 L16.6128994,7.20970461 C16.2206082,6.90467972 15.6533772,6.93240926 15.2928932,7.29289322 L15.2928932,7.29289322 L12,10.585 Z" id="Close-Button" fill="#009ED7"></path>
    </g>
</svg>